<svg width="32" height="32" viewBox="0 0 32 32" fill="none" xmlns="http://www.w3.org/2000/svg">
<g id="action 1">
<path id="Vector" d="M6.06455 11.0078L12.115 8.79089L18.8547 12.7522L13.1324 18.7377L10.8242 24.8193L3.29343 28.8306C2.64349 29.1768 1.83599 28.9306 1.4898 28.2806C1.17246 27.6849 1.35293 26.9567 1.8858 26.5728L2.03977 26.4771L8.68615 22.9351L10.8318 17.2866L14.5991 13.344L11.8506 11.728L6.98202 13.5117C6.34821 13.7439 5.65183 13.4649 5.34502 12.8842L5.27134 12.7185C5.03912 12.0847 5.31818 11.3883 5.89887 11.0815L6.06455 11.0078Z" fill="#252A31"/>
<path id="Vector_2" d="M11.194 18.0007C11.518 17.4085 12.2258 17.16 12.8391 17.395L13.0037 17.4711L19.9709 21.2837L15.3814 30.0359C15.0395 30.688 14.2336 30.9395 13.5814 30.5975C12.9836 30.284 12.7225 29.5807 12.9465 28.9634L13.0198 28.7975L16.3928 22.3644L11.7236 19.8105C11.1314 19.4864 10.8828 18.7786 11.1178 18.1653L11.1939 18.0007H11.194ZM27.3778 10.1298C27.8736 9.58536 28.7169 9.54592 29.2614 10.0417C29.7563 10.4925 29.8339 11.2304 29.4714 11.7699L29.3495 11.9253L23.9317 17.8747L19.064 15.5612C18.3989 15.2451 18.116 14.4497 18.4321 13.7846C18.7219 13.175 19.4144 12.8864 20.0401 13.086L20.2087 13.1527L23.2889 14.6169L27.3778 10.1298Z" fill="#252A31"/>
<path id="Vector_3" d="M20.3637 2.13464C17.6227 2.13464 15.394 4.33608 15.394 7.05996C15.394 9.7838 17.6227 11.9853 20.3637 11.9853C23.1048 11.9853 25.3334 9.7838 25.3334 7.05996C25.3334 4.33608 23.1048 2.13464 20.3637 2.13464ZM20.3637 4.80133C21.6393 4.80133 22.6668 5.81624 22.6668 7.05996C22.6668 8.30367 21.6393 9.31858 20.3637 9.31858C19.0882 9.31858 18.0607 8.30367 18.0607 7.05996C18.0607 5.81621 19.0882 4.80133 20.3637 4.80133Z" fill="#252A31"/>
</g>
</svg>
