<svg width="16" height="17" viewBox="0 0 16 17" fill="none" xmlns="http://www.w3.org/2000/svg">
<g id="322annotation 1" clip-path="url(#clip0_6520_28496)">
<path id="Vector" d="M8 0.5C3.6 0.5 0 4.1 0 8.5C0 12.9 3.6 16.5 8 16.5C12.4 16.5 16 12.9 16 8.5C16 4.1 12.4 0.5 8 0.5ZM9 12.5C9 13.05 8.55 13.5 8 13.5C7.45 13.5 7 13.05 7 12.5V8C7 7.45 7.45 7 8 7C8.55 7 9 7.45 9 8V12.5ZM8 5.5C7.45 5.5 7 5.05 7 4.5C7 3.95 7.45 3.5 8 3.5C8.55 3.5 9 3.95 9 4.5C9 5.05 8.55 5.5 8 5.5Z" fill="#717171"/>
</g>
<defs>
<clipPath id="clip0_6520_28496">
<rect width="16" height="16" fill="white" transform="translate(0 0.5)"/>
</clipPath>
</defs>
</svg>
