<svg width="32" height="32" viewBox="0 0 32 32" fill="none" xmlns="http://www.w3.org/2000/svg">
<g id="aware 1">
<path id="Vector" opacity="0.3" d="M29.8133 12.7466C29.8133 6.98658 25.0133 2.34658 19.2 2.61324C14.0266 2.87991 9.75996 7.14657 9.54662 12.3199C9.38662 16.3732 11.6266 19.9466 14.9333 21.7066V25.3332C14.9333 26.0799 15.52 26.6666 16.2666 26.6666H23.04C23.7866 26.6666 24.3733 26.0799 24.3733 25.3332V21.7066C27.5733 20.0532 29.8133 16.6399 29.8133 12.7466Z" fill="#252A31"/>
<path id="Vector_2" d="M19.36 26.7734H12.64C11.4667 26.7734 10.5067 25.8134 10.5067 24.6401V21.4934C6.98671 19.4134 4.90671 15.6801 5.06671 11.5734C5.28005 5.97339 9.86671 1.33339 15.4667 1.06672C18.5067 0.906722 21.3867 1.97339 23.52 4.10672C25.7067 6.18672 26.9334 9.01339 26.9334 12.0001C26.9334 15.8934 24.8534 19.4667 21.4934 21.4401V24.5867C21.5467 25.8134 20.5867 26.7734 19.36 26.7734ZM16 2.66672H15.5734C10.7734 2.88006 6.88005 6.82672 6.66671 11.6267C6.50671 15.2534 8.42671 18.5601 11.6267 20.2667L12.0534 20.4801V24.5867C12.0534 24.9067 12.32 25.1201 12.5867 25.1201H19.36C19.68 25.1201 19.8934 24.8534 19.8934 24.5867V20.4801L20.32 20.2667C23.4134 18.6667 25.3334 15.4667 25.3334 12.0001C25.3334 9.44006 24.32 7.04006 22.4534 5.22672C20.6934 3.57339 18.4 2.66672 16 2.66672Z" fill="#252A31"/>
<path id="Vector_3" d="M16 16.7467C15.7866 16.7467 15.5733 16.6401 15.4133 16.4801L12.3733 13.3334C12.0533 13.0134 12.0533 12.5334 12.3733 12.2134C12.6933 11.8934 13.1733 11.8934 13.4933 12.2134L16 14.7734L18.56 12.2134C18.88 11.8934 19.36 11.8934 19.68 12.2134C20 12.5334 20 13.0134 19.68 13.3334L16.5333 16.4801C16.4266 16.6401 16.2133 16.7467 16 16.7467Z" fill="#252A31"/>
<path id="Vector_4" d="M15.3066 16H16.9066V25.9733H15.3066V16Z" fill="#252A31"/>
<path id="Vector_5" d="M19.3066 30.9333H12.6933C12.2666 30.9333 11.8933 30.5599 11.8933 30.1333C11.8933 29.7066 12.2666 29.3333 12.6933 29.3333H19.3066C19.7333 29.3333 20.1066 29.7066 20.1066 30.1333C20.1066 30.5599 19.7333 30.9333 19.3066 30.9333Z" fill="#252A31"/>
</g>
</svg>
