<svg width="21" height="20" viewBox="0 0 21 20" fill="none" xmlns="http://www.w3.org/2000/svg">
<g id="certification 1">
<path id="Vector" d="M10.5348 19.2049C10.1198 19.2049 9.73483 18.9999 9.50482 18.6549L8.28482 16.8199C8.06982 16.4949 7.67982 16.3349 7.29482 16.4099L5.13482 16.8449C4.72982 16.9249 4.30982 16.7999 4.01482 16.5099C3.71982 16.2149 3.59482 15.7999 3.67982 15.3899L4.11482 13.2299C4.18982 12.8449 4.02982 12.4599 3.70482 12.2399L1.86982 11.0199C1.52482 10.7899 1.31982 10.4049 1.31982 9.98991C1.31982 9.57491 1.52482 9.18991 1.86982 8.95991L3.70982 7.74991C4.03482 7.53491 4.19482 7.14491 4.11982 6.75991L3.68482 4.59991C3.60482 4.19491 3.72982 3.77491 4.01982 3.47991C4.31482 3.18491 4.72982 3.05991 5.13982 3.14491L7.29982 3.57991C7.68482 3.65991 8.06982 3.49491 8.28982 3.16991L9.50982 1.33491C9.73983 0.989912 10.1248 0.784912 10.5398 0.784912C10.9548 0.784912 11.3398 0.989912 11.5698 1.33491L12.7898 3.16991C13.0048 3.49491 13.3948 3.65491 13.7798 3.57991L15.9398 3.14491C16.3448 3.06491 16.7648 3.18991 17.0598 3.47991C17.3548 3.77491 17.4798 4.18991 17.3948 4.59991L16.9598 6.75991C16.8848 7.14491 17.0448 7.52991 17.3698 7.74991L19.2048 8.96991C19.5498 9.19991 19.7548 9.58491 19.7548 9.99991C19.7548 10.4149 19.5498 10.7999 19.2048 11.0299L17.3698 12.2499C17.0448 12.4649 16.8848 12.8549 16.9598 13.2399L17.3948 15.3999C17.4748 15.8049 17.3498 16.2249 17.0598 16.5199C16.7648 16.8149 16.3498 16.9399 15.9398 16.8549L13.7798 16.4199C13.3948 16.3449 13.0098 16.5049 12.7898 16.8299L11.5598 18.6499C11.3348 18.9949 10.9498 19.2049 10.5348 19.2049ZM7.48982 15.1899C8.20482 15.1899 8.87982 15.5449 9.28482 16.1549L10.5048 17.9899C10.5098 17.9949 10.5148 18.0049 10.5348 18.0049C10.5548 18.0049 10.5598 17.9949 10.5648 17.9899L11.7848 16.1549C12.2748 15.4199 13.1448 15.0599 14.0098 15.2349L16.1698 15.6699C16.1748 15.6699 16.1898 15.6749 16.1998 15.6599C16.2098 15.6449 16.2098 15.6349 16.2098 15.6299L15.7748 13.4699C15.5998 12.6049 15.9648 11.7299 16.6948 11.2449L18.5298 10.0249C18.5348 10.0199 18.5448 10.0149 18.5448 9.99491C18.5448 9.97491 18.5348 9.96991 18.5298 9.96491L16.6898 8.74991C15.9548 8.25991 15.5948 7.38991 15.7698 6.52491L16.2048 4.36491C16.2048 4.35991 16.2098 4.34491 16.1948 4.33491C16.1798 4.31991 16.1698 4.32491 16.1648 4.32491L14.0048 4.75991C13.1398 4.93491 12.2648 4.56991 11.7798 3.83991L10.5598 2.00491C10.5548 1.99991 10.5498 1.98991 10.5298 1.98991C10.5098 1.98991 10.5048 1.99991 10.4998 2.00491L9.27983 3.83991C8.78982 4.57491 7.91982 4.93491 7.05482 4.75991L4.89482 4.32491C4.88982 4.32491 4.87482 4.31991 4.86482 4.33491C4.84982 4.34991 4.85482 4.35991 4.85482 4.36491L5.28982 6.52491C5.46482 7.38991 5.09982 8.26491 4.36982 8.74991L2.53482 9.96991C2.52982 9.97491 2.51982 9.97991 2.51982 9.99991C2.51982 10.0199 2.52982 10.0249 2.53482 10.0299L4.36982 11.2499C5.10482 11.7399 5.46482 12.6099 5.28982 13.4749L4.85482 15.6349C4.85482 15.6399 4.84982 15.6549 4.86482 15.6649C4.87982 15.6799 4.88982 15.6749 4.89482 15.6749L7.05482 15.2399C7.20482 15.2049 7.34982 15.1899 7.48982 15.1899Z" fill="#717171"/>
<path id="Vector_2" d="M9.75992 12.9149C9.61992 12.9149 9.47492 12.8649 9.36492 12.7649L6.66492 10.3799C6.41492 10.1599 6.39492 9.77988 6.60992 9.53488C6.82992 9.28488 7.20992 9.26488 7.45492 9.47988L9.72992 11.4899L13.4599 7.69488C13.6899 7.45988 14.0699 7.45488 14.3099 7.68988C14.5449 7.91988 14.5499 8.29988 14.3149 8.53988L10.1849 12.7449C10.0749 12.8549 9.91992 12.9149 9.75992 12.9149Z" fill="#717171"/>
</g>
</svg>
