<svg width="40" height="40" viewBox="0 0 40 40" fill="none" xmlns="http://www.w3.org/2000/svg">
<g id="change 2">
<path id="Vector" d="M35.1053 4.97763L28.2125 6.44798L30.2074 8.3668L19.6205 17.8877C19.4288 18.0711 19.0454 18.0711 18.6626 17.8877L7.26305 12.1586C6.88032 11.9747 6.11202 11.7294 5.72413 12.4271C5.33628 13.1248 5.81011 13.6134 6.19293 13.7973L17.897 19.7911C18.2791 19.9744 18.8145 20.2075 19.1972 20.2075C19.7717 20.2075 20.0175 20.1577 20.7694 19.6064L31.5014 9.80971L33.573 11.9596L35.5586 5.27966C35.6259 5.04478 35.5458 4.86799 35.1053 4.97763ZM9.90008 20.3869H9.86054C9.22134 20.3869 8.70323 20.8367 8.70323 21.3917V33.9394C8.70323 34.4944 9.22134 34.9443 9.86054 34.9443H9.90008C10.5392 34.9443 11.0574 34.4943 11.0574 33.9394V21.3917C11.0574 20.8367 10.5392 20.3869 9.90008 20.3869ZM20.9308 23.5456H20.8917C20.2593 23.5456 19.7466 23.9955 19.7466 24.5504V33.9395C19.7466 34.4945 20.2593 34.9443 20.8917 34.9443H20.9308C21.5632 34.9443 22.0758 34.4944 22.0758 33.9395V24.5504C22.0758 23.9955 21.5632 23.5456 20.9308 23.5456ZM31.711 15.8548H31.6712C31.0299 15.8548 30.5098 16.3047 30.5098 16.8596V33.9395C30.5098 34.4945 31.0299 34.9443 31.6712 34.9443H31.711C32.3525 34.9443 32.8725 34.4944 32.8725 33.9395V16.8596C32.8725 16.3046 32.3525 15.8548 31.711 15.8548Z" fill="#BF5700"/>
</g>
</svg>
