<svg width="24" height="24" viewBox="0 0 24 24" fill="none" xmlns="http://www.w3.org/2000/svg">
<g id="click">
<path id="Vector" d="M18.1824 9.80093H18.1344C17.7791 9.80093 17.4875 9.903 17.2066 10.0768C16.9609 9.36 16.3357 8.84365 15.5305 8.84365C15.1752 8.84365 14.8359 8.94569 14.5551 9.1195C14.3093 8.40271 13.6839 7.88634 12.8787 7.88634C12.5646 7.88634 12.2728 7.96502 12.0145 8.10325V6.25893C12.0145 5.25438 11.2547 4.44004 10.2428 4.44004C9.23094 4.44004 8.4107 5.25438 8.4107 6.25893V13.3202L7.29765 12.2118C6.58215 11.5015 5.31582 11.6026 4.70664 12.2118C4.09745 12.8209 3.69793 14.0471 4.57028 14.9194L9.68682 20.0024C9.79239 20.1072 9.90843 20.1946 10.0305 20.2685C10.9634 21.0296 12.0323 21.4801 14.2928 21.4801C19.4566 21.4801 19.9348 18.6942 19.9348 15.2576V11.6198C19.9348 10.6153 19.1943 9.80093 18.1824 9.80093ZM18.9705 15.2575C18.9705 18.1654 18.9566 20.5227 14.2927 20.5227C12.317 20.5227 11.1308 20.0822 10.2323 19.1901L5.38848 14.3779C4.95993 13.9493 5.06769 13.4014 5.41853 13.0505C5.76934 12.6997 6.41324 12.6876 6.75217 13.024C6.75217 13.024 7.60199 13.8688 8.33415 14.5967C8.88824 15.1475 9.37497 15.6313 9.37497 15.6313V6.45039C9.37497 5.97457 9.76351 5.58883 10.2428 5.58883C10.7221 5.58883 11.0502 5.97459 11.0502 6.45039V12.2899H11.0599C11.0536 12.3209 11.0502 12.3529 11.0502 12.3857C11.0502 12.65 11.266 12.8643 11.5323 12.8643C11.7986 12.8643 12.0144 12.65 12.0144 12.3857C12.0144 12.3529 12.0111 12.3209 12.0047 12.2899H12.0144V9.89667C12.0144 9.42084 12.3612 9.03508 12.8405 9.03508C12.8405 9.03508 13.6897 9.0236 13.6897 9.89667V13.0557H13.6994C13.6931 13.0867 13.6897 13.1187 13.6897 13.1515C13.6897 13.4158 13.9055 13.6301 14.1718 13.6301C14.4381 13.6301 14.6539 13.4159 14.6539 13.1515C14.6539 13.1187 14.6505 13.0867 14.6442 13.0557H14.6539V10.854C14.6539 10.3781 14.9951 9.99236 15.4745 9.99236C15.4745 9.99236 16.3412 10.0463 16.3412 10.854V13.6301H16.351C16.3447 13.6611 16.3412 13.6931 16.3412 13.7259C16.3412 13.9902 16.5571 14.2045 16.8234 14.2045C17.0897 14.2045 17.2934 13.9902 17.2934 13.7259C17.2934 13.6931 17.2902 13.6611 17.2842 13.6301H17.2934V11.7347C17.2934 11.2589 17.651 10.8731 18.1302 10.8731C18.1302 10.8731 18.9705 10.8391 18.9705 11.7347C18.9705 11.7347 18.9705 14.4833 18.9705 15.2575ZM7.6948 8.97084V7.3623C7.54173 7.01915 7.4548 6.64003 7.4548 6.24002C7.4548 4.71571 8.6905 3.48002 10.2148 3.48002C11.7391 3.48002 12.9748 4.71571 12.9748 6.24002C12.9748 6.44824 12.9502 6.65039 12.906 6.84518C13.2532 6.85872 13.5664 7.00282 13.7944 7.23417C13.8828 6.91734 13.9348 6.5853 13.9348 6.24002C13.9348 4.18554 12.2693 2.52002 10.2148 2.52002C8.16029 2.52002 6.49478 4.18554 6.49478 6.24002C6.4948 7.32096 6.95865 8.29115 7.6948 8.97084Z" fill="#717171"/>
</g>
</svg>
