<svg width="40" height="40" viewBox="0 0 40 40" fill="none" xmlns="http://www.w3.org/2000/svg">
<g id="coloration 1">
<path id="Vector" opacity="0.5" d="M6.40356 27.3569C6.40356 27.3569 7.19849 28.3522 12.4969 27.1944C17.7954 26.0366 18.1915 28.0569 21.7567 27.8194C25.3219 27.5819 27.4969 26.5913 30.4715 26.5913C32.4918 26.5913 33.3934 26.7933 33.5915 26.964C33.7895 27.1347 28.4817 35.5034 19.7645 35.2515C8.79106 34.9343 6.40356 27.3569 6.40356 27.3569Z" fill="#68AB32"/>
<path id="Vector_2" d="M17.8618 20.1472C17.8618 21.2585 18.763 22.1597 19.8743 22.1597C20.9856 22.1597 21.8868 21.2585 21.8868 20.1472C21.8868 19.0359 20.9856 18.1347 19.8743 18.1347C18.763 18.1347 17.8618 19.0359 17.8618 20.1472ZM25.6024 4.45659C25.0622 5.08372 24.5552 5.73879 24.0837 6.41909C23.3681 7.40034 22.8337 8.38159 22.4337 9.27534C22.0774 10.0785 21.8993 10.7941 21.8993 11.4628C21.8993 13.6941 23.6837 15.4816 25.9181 15.4816C28.1524 15.4816 29.9368 13.6972 29.9368 11.4628C29.9368 10.8378 29.7587 10.0785 29.4024 9.27534C29.0462 8.38159 28.4649 7.40034 27.7524 6.41909C27.2618 5.75034 26.7712 5.07847 26.2337 4.45659C26.0993 4.32222 25.9649 4.18784 25.8774 4.05347C25.8243 4.19097 25.7337 4.32534 25.6024 4.45659ZM25.9587 14.5472C25.6899 14.5472 25.5118 14.3691 25.5118 14.1003C25.5118 13.8316 25.6899 13.6535 25.9587 13.6535C27.2087 13.6535 28.1899 12.6722 28.1899 11.4222C28.1899 11.1535 28.3681 10.9753 28.6368 10.9753C28.9056 10.9753 29.0837 11.1535 29.0837 11.4222C29.0837 13.1628 27.6993 14.5472 25.9587 14.5472Z" fill="#1E8FC1"/>
<path id="Vector_3" d="M11.2149 20.0066C11.2149 25.0754 15.5431 29.1785 20.6993 28.7785C25.0868 28.466 28.5899 24.8472 28.8149 20.4629C28.8712 19.4941 28.7587 18.5535 28.5024 17.6441C28.4462 17.416 28.5306 17.1597 28.7587 17.0472H28.7868C29.0712 16.9035 29.4431 17.0472 29.5274 17.3597C29.8962 18.641 29.9837 20.0379 29.7837 21.4597C29.0993 26.0722 25.1993 29.6066 20.5556 29.8629C14.8587 30.1472 10.1587 25.6191 10.1587 20.0097C10.1587 15.2816 13.5181 11.2941 17.9899 10.3535C18.3024 10.2972 18.6181 10.5254 18.6181 10.866C18.6181 11.1222 18.4462 11.3222 18.2181 11.3785C14.2056 12.2316 11.2149 15.7633 11.2149 20.0066Z" fill="#1E8FC1"/>
<path id="Vector_4" d="M35.9367 20.0066C35.9367 29.0629 28.3898 36.3535 19.2461 35.9285C11.1867 35.5566 4.60857 29.091 4.09607 21.0316C3.55545 12.516 9.70545 5.33785 17.7961 4.22848C18.2242 4.17223 18.5929 4.48473 18.5929 4.91285C18.5929 5.25348 18.3367 5.5691 17.9961 5.59723C10.9336 6.56598 5.46482 12.6597 5.46482 19.9816C5.46482 28.2972 12.4992 35.0191 20.9304 34.4785C28.0211 34.0222 33.8336 28.3847 34.4586 21.291C34.6554 19.1222 34.3429 17.016 33.6867 15.1066C33.5742 14.766 33.7148 14.4222 34.0273 14.2535C34.3961 14.0535 34.8804 14.2254 35.0242 14.6535C35.6242 16.3316 35.9367 18.1254 35.9367 20.0066Z" fill="#1E8FC1"/>
</g>
</svg>
