<svg width="21" height="22" viewBox="0 0 21 22" fill="none" xmlns="http://www.w3.org/2000/svg">
<g id="date 1" clip-path="url(#clip0_6520_26126)">
<path id="Vector" d="M14.2227 9.94989C14.8908 9.94989 15.559 9.94989 16.2272 9.94989C16.2272 9.47262 16.2272 9.0908 16.2272 8.61353C15.4636 8.61353 14.8908 8.61353 14.2227 8.61353C14.2227 9.0908 14.2227 9.47262 14.2227 9.94989Z" fill="black"/>
<path id="Vector_2" d="M4.77295 13.291C5.44113 13.291 6.10931 13.291 6.77749 13.291C6.77749 12.8137 6.77749 12.4319 6.77749 11.9546C6.10931 11.9546 5.44113 11.9546 4.77295 11.9546C4.77295 12.4319 4.77295 12.9091 4.77295 13.291Z" fill="black"/>
<path id="Vector_3" d="M9.54541 13.291C10.2136 13.291 10.8818 13.291 11.55 13.291C11.55 12.8137 11.55 12.4319 11.55 11.9546C10.8818 11.9546 10.2136 11.9546 9.54541 11.9546C9.54541 12.4319 9.54541 12.9091 9.54541 13.291Z" fill="black"/>
<path id="Vector_4" d="M16.2274 11.9546C15.5593 11.9546 14.8911 11.9546 14.3184 11.9546C14.3184 12.4319 14.3184 12.9091 14.3184 13.291C14.9865 13.291 15.5593 13.291 16.2274 13.291C16.2274 12.8137 16.2274 12.4319 16.2274 11.9546Z" fill="black"/>
<path id="Vector_5" d="M4.77295 16.6318C5.53659 16.6318 6.10931 16.6318 6.77749 16.6318C6.77749 16.1545 6.77749 15.7727 6.77749 15.2954C6.10931 15.2954 5.44113 15.2954 4.77295 15.2954C4.77295 15.8681 4.77295 16.25 4.77295 16.6318Z" fill="black"/>
<path id="Vector_6" d="M9.4502 16.7272C10.1184 16.7272 10.7866 16.7272 11.4547 16.7272C11.4547 16.25 11.4547 15.8681 11.4547 15.3909C10.7866 15.3909 10.1184 15.3909 9.4502 15.3909C9.4502 15.8681 9.4502 16.25 9.4502 16.7272Z" fill="black"/>
<path id="Vector_7" d="M14.2227 16.7272C14.8908 16.7272 15.559 16.7272 16.2272 16.7272C16.2272 16.25 16.2272 15.8681 16.2272 15.3909C15.559 15.3909 14.8908 15.3909 14.2227 15.3909C14.2227 15.8681 14.2227 16.3454 14.2227 16.7272Z" fill="black"/>
<path id="Vector_8" d="M6.77749 8.61353C6.10931 8.61353 5.44113 8.61353 4.77295 8.61353C4.77295 9.0908 4.77295 9.47262 4.77295 9.85443C5.44113 9.85443 6.10931 9.85443 6.77749 9.85443C6.77749 9.47262 6.77749 9.0908 6.77749 8.61353Z" fill="black"/>
<path id="Vector_9" d="M11.55 8.61353C10.8818 8.61353 10.2136 8.61353 9.54541 8.61353C9.54541 9.0908 9.54541 9.47262 9.54541 9.85443C10.2136 9.85443 10.8818 9.85443 11.55 9.85443C11.55 9.47262 11.55 9.0908 11.55 8.61353Z" fill="black"/>
<path id="Vector_10" d="M18.9 2.40909H16.4182V0.977273C16.4182 0.690909 16.2273 0.5 15.9409 0.5C15.6545 0.5 15.4636 0.690909 15.4636 0.977273V2.40909H10.9773V0.977273C10.9773 0.690909 10.7864 0.5 10.5 0.5C10.2136 0.5 10.0227 0.690909 10.0227 0.977273V2.40909H5.63182V0.977273C5.63182 0.690909 5.44091 0.5 5.15455 0.5C4.86818 0.5 4.67727 0.690909 4.67727 0.977273V2.40909H2.1C0.954546 2.40909 0 3.36364 0 4.50909V19.3045C0 20.5455 0.954546 21.5 2.1 21.5H18.8045C19.95 21.5 20.9045 20.5455 20.9045 19.4V4.50909C21 3.36364 20.0455 2.40909 18.9 2.40909ZM20.0455 19.4C20.0455 20.0682 19.4727 20.5455 18.9 20.5455H2.1C1.52727 20.5455 0.954546 19.9727 0.954546 19.4V4.50909C0.954546 3.93636 1.52727 3.36364 2.1 3.36364H4.58182V4.79545C4.67727 4.98636 4.86818 5.27273 5.15455 5.27273C5.44091 5.27273 5.63182 5.08182 5.63182 4.79545V3.36364H10.0227V4.79545C10.0227 4.98636 10.2136 5.27273 10.5 5.27273C10.7864 5.27273 10.9773 5.08182 10.9773 4.79545V3.36364H15.4636V4.79545C15.4636 5.08182 15.6545 5.27273 15.9409 5.27273C16.2273 5.27273 16.4182 5.08182 16.4182 4.79545L16.4182 3.36364H18.9C19.4727 3.36364 20.0455 3.93636 20.0455 4.50909V19.4Z" fill="black"/>
</g>
<defs>
<clipPath id="clip0_6520_26126">
<rect width="21" height="21" fill="white" transform="translate(0 0.5)"/>
</clipPath>
</defs>
</svg>
