<svg width="48" height="48" viewBox="0 0 48 48" fill="none" xmlns="http://www.w3.org/2000/svg">
<g id="distribution 1" clip-path="url(#clip0_6520_25836)">
<path id="Vector" d="M48 24C48 37.2547 37.2543 48 24 48C10.7453 48 0 37.2547 0 24C0 10.7453 10.7453 0 24 0C37.2543 0 48 10.7453 48 24Z" fill="white"/>
<path id="Vector_2" d="M14.3553 13.3474C14.3557 13.4331 14.2989 13.5187 14.1846 13.5838L11.9748 14.8469C11.7458 14.9778 11.3741 14.9778 11.1439 14.8469L8.9193 13.5838C8.80441 13.5187 8.74661 13.4331 8.74614 13.3474H8.74609V16.1037H8.74614C8.74666 16.1893 8.80441 16.2749 8.9193 16.3401L11.1439 17.6031C11.3741 17.7341 11.7458 17.7341 11.9748 17.6031L14.1846 16.3401C14.2989 16.2749 14.3557 16.1893 14.3553 16.1037H14.3554L14.3553 13.3474Z" fill="#BF5700"/>
<path id="Vector_3" opacity="0.3" d="M14.1846 14.2097L11.9748 15.4727C11.7458 15.6037 11.3741 15.6037 11.1439 15.4727L8.9193 14.2097C8.80441 14.1445 8.74661 14.0589 8.74614 13.9734H8.74609V14.2399H8.74614C8.74666 14.3255 8.80441 14.4111 8.9193 14.4763L11.1439 15.7393C11.3741 15.8701 11.7458 15.8701 11.9748 15.7393L14.1846 14.4763C14.2989 14.4112 14.3557 14.3255 14.3553 14.2399L14.3554 13.9734C14.3558 14.0589 14.2989 14.1446 14.1846 14.2097Z" fill="white"/>
<path id="Vector_4" d="M14.1824 13.1115C14.4122 13.2408 14.4133 13.4534 14.1847 13.5837L11.9749 14.8468C11.7459 14.9777 11.3742 14.9777 11.144 14.8468L8.91938 13.5837C8.68969 13.4534 8.68815 13.2413 8.91685 13.1115L11.1268 11.8473C11.3557 11.7172 11.727 11.7172 11.9579 11.8473L14.1824 13.1115Z" fill="#BF5700"/>
<path id="Vector_5" d="M13.2467 13.1952C13.3954 13.2785 13.3961 13.4151 13.2485 13.4999L11.8241 14.3147C11.6768 14.3978 11.4367 14.3978 11.2884 14.3147L9.85499 13.4999C9.70663 13.4157 9.7057 13.2785 9.85335 13.1952L11.2774 12.3805C11.4248 12.2967 11.6646 12.2967 11.8129 12.3805L13.2467 13.1952Z" fill="#BF5700"/>
<path id="Vector_6" d="M39.9504 13.3472C39.9508 13.4328 39.8939 13.5184 39.7797 13.5835L37.5699 14.8466C37.3409 14.9776 36.9692 14.9776 36.7389 14.8466L34.5144 13.5835C34.3995 13.5184 34.3416 13.4328 34.3412 13.3472V16.1035C34.3417 16.1891 34.3995 16.2747 34.5144 16.3399L36.7389 17.6028C36.9692 17.7338 37.3409 17.7338 37.5699 17.6028L39.7797 16.3399C39.8939 16.2747 39.9508 16.1891 39.9504 16.1035H39.9504L39.9504 13.3472Z" fill="#BF5700"/>
<path id="Vector_7" opacity="0.3" d="M39.7797 14.2098L37.5699 15.4728C37.3409 15.6037 36.9692 15.6037 36.7389 15.4728L34.5144 14.2098C34.3995 14.1446 34.3416 14.0589 34.3412 13.9734V14.2399C34.3417 14.3255 34.3995 14.4111 34.5144 14.4763L36.7389 15.7394C36.9692 15.8702 37.3409 15.8702 37.5699 15.7394L39.7797 14.4763C39.8939 14.4112 39.9508 14.3255 39.9504 14.2399L39.9504 13.9734C39.9508 14.0589 39.8939 14.1447 39.7797 14.2098Z" fill="white"/>
<path id="Vector_8" d="M39.7773 13.1115C40.0072 13.2408 40.0083 13.4534 39.7797 13.5837L37.5699 14.8468C37.3409 14.9777 36.9693 14.9777 36.739 14.8468L34.5144 13.5837C34.2847 13.4534 34.2831 13.2414 34.5118 13.1115L36.7218 11.8473C36.9506 11.7172 37.3219 11.7172 37.5528 11.8473L39.7773 13.1115Z" fill="#BF5700"/>
<path id="Vector_9" d="M38.8416 13.195C38.9903 13.2783 38.991 13.4149 38.8435 13.4997L37.419 14.3144C37.2718 14.3976 37.0317 14.3976 36.8833 14.3144L35.4499 13.4997C35.3016 13.4155 35.3007 13.2783 35.4483 13.195L36.8723 12.3803C37.0198 12.2964 37.2596 12.2964 37.4079 12.3803L38.8416 13.195Z" fill="#BF5700"/>
<path id="Vector_10" d="M12.6544 16.0977C12.6544 16.0938 12.6555 16.0895 12.6555 16.0858V16.0798V16.0773C12.6555 16.076 12.6567 16.0752 12.6567 16.0723C12.657 16.0675 12.6585 16.0638 12.6585 16.0579C12.6585 16.0557 12.6589 16.0497 12.6604 16.0452C12.6612 16.0396 12.6612 16.0363 12.6622 16.0317C12.6638 16.0276 12.6647 16.0233 12.6649 16.0189C12.6652 16.0173 12.6652 16.0152 12.6668 16.0131V16.0122C12.6679 16.0084 12.6679 16.0075 12.6679 16.0046C12.6698 16.0016 12.6705 15.9957 12.672 15.9919C12.6739 15.9864 12.6743 15.9834 12.675 15.9804V15.9775C12.675 15.9775 12.6761 15.9775 12.6761 15.9758C12.6784 15.9716 12.6791 15.9657 12.681 15.9631C12.6817 15.9581 12.6836 15.9542 12.6854 15.9495C12.6854 15.9474 12.6858 15.9474 12.6862 15.9466C12.6862 15.9457 12.6862 15.9457 12.6874 15.9453C12.6881 15.9419 12.6885 15.9385 12.69 15.936C12.6925 15.9321 12.6941 15.9278 12.6949 15.9233C12.6972 15.9195 12.6983 15.9174 12.6997 15.9145C12.7005 15.9127 12.7013 15.9127 12.7013 15.9115V15.9098C12.7035 15.9061 12.7054 15.9013 12.7073 15.8971C12.7099 15.8916 12.7122 15.8874 12.7148 15.8844C12.7152 15.8836 12.7152 15.881 12.7152 15.881C12.7152 15.8798 12.7167 15.8798 12.7167 15.8798C12.719 15.8751 12.7201 15.8709 12.722 15.8662C12.7253 15.8615 12.7284 15.8574 12.7314 15.8539C12.7322 15.8515 12.7332 15.8491 12.7343 15.8468C12.7351 15.8459 12.7351 15.8459 12.7351 15.843C12.7371 15.8417 12.7387 15.84 12.74 15.838C12.7413 15.836 12.7422 15.8338 12.7426 15.8315C12.7471 15.8256 12.7513 15.8227 12.7546 15.8159C12.7555 15.815 12.7555 15.8112 12.7562 15.8112C12.7614 15.8044 12.7674 15.7977 12.7727 15.7888L12.7735 15.7879C12.7778 15.7834 12.7817 15.7784 12.7851 15.7732C12.7885 15.7693 12.7919 15.7647 12.7945 15.76C12.8002 15.7571 12.8024 15.752 12.8058 15.7482C12.8096 15.7444 12.8133 15.7398 12.8163 15.7377C12.8179 15.7377 12.8179 15.7367 12.8179 15.7367C12.819 15.7367 12.8194 15.7329 12.8201 15.7329C12.8231 15.7299 12.825 15.7279 12.828 15.7249C12.8322 15.7211 12.8348 15.7189 12.8397 15.7143C12.8412 15.7143 12.8419 15.7105 12.8431 15.7105C12.8442 15.7096 12.8442 15.7096 12.846 15.7096C12.8471 15.7067 12.8498 15.7058 12.8517 15.702C12.8547 15.6986 12.8596 15.697 12.8634 15.6923C12.8653 15.6919 12.866 15.6902 12.8683 15.6893C12.8698 15.6872 12.8698 15.6872 12.8709 15.6872C12.8724 15.6855 12.8743 15.6842 12.875 15.6842C12.8796 15.6796 12.8833 15.6784 12.8878 15.6749C12.8893 15.6715 12.8931 15.6707 12.8953 15.6707C12.8961 15.6677 12.8976 15.666 12.8976 15.666H12.8994C12.9029 15.6631 12.9066 15.661 12.9108 15.6571C12.9141 15.6571 12.9183 15.6555 12.9217 15.6525C12.9232 15.6513 12.9243 15.6513 12.9247 15.6495C12.9284 15.6478 12.931 15.6474 12.9322 15.6449C12.9369 15.6437 12.9413 15.6417 12.9453 15.639C12.9472 15.639 12.9491 15.6377 12.9509 15.636C12.9521 15.6343 12.9525 15.6343 12.9532 15.6343H12.9547C12.9603 15.6331 12.9626 15.631 12.966 15.6301C12.9694 15.6292 12.9735 15.6255 12.9773 15.6255H12.9807C12.9833 15.6225 12.9848 15.6225 12.9878 15.6225C12.9916 15.6212 12.9955 15.6205 12.9995 15.6204C13.0013 15.6195 13.0029 15.6195 13.0036 15.6195C13.0055 15.6195 13.0055 15.6195 13.0074 15.6174C13.0074 15.6174 13.0096 15.6165 13.0108 15.6165H13.0213C13.0239 15.6148 13.0281 15.6148 13.0288 15.6135H13.0607C13.0661 15.6147 13.0713 15.6165 13.0773 15.6165H13.0789C13.0849 15.6194 13.0902 15.6203 13.0962 15.6212C13.0962 15.6212 13.097 15.6212 13.097 15.6224C13.1037 15.6254 13.1112 15.6271 13.1173 15.6309L27.3998 23.7909C27.3938 23.7864 27.3867 23.7836 27.3792 23.7829C27.3745 23.7796 27.3691 23.7774 27.3635 23.7765H27.3592C27.3533 23.7736 27.3454 23.7736 27.3387 23.7727H27.3341C27.3289 23.7723 27.3206 23.7727 27.3142 23.7736H27.3127C27.3044 23.7736 27.2973 23.7766 27.2894 23.7766H27.2867C27.2789 23.7792 27.2709 23.7829 27.2639 23.7834H27.2616C27.2525 23.7859 27.2443 23.791 27.236 23.7957H27.2341C27.2254 23.7999 27.216 23.8032 27.2077 23.8105C27.1976 23.8129 27.189 23.8197 27.1803 23.8265C27.1803 23.8265 27.1795 23.8265 27.1795 23.827C27.1703 23.8324 27.1616 23.8388 27.1537 23.846C27.1537 23.846 27.1517 23.846 27.1514 23.8481C27.1439 23.8527 27.1355 23.8604 27.128 23.8671C27.1269 23.8684 27.1257 23.8709 27.1246 23.8709C27.1174 23.8781 27.1099 23.8851 27.1021 23.8917C27.1021 23.8933 27.1013 23.8933 27.1013 23.8933C27.0938 23.9022 27.0847 23.9115 27.078 23.9187H27.0773C27.0705 23.928 27.0626 23.936 27.0562 23.9483H27.0547C27.0495 23.9572 27.0431 23.9652 27.0379 23.9746C27.0331 23.9799 27.0292 23.9859 27.0262 23.9923C27.0228 23.997 27.0202 24.0026 27.0172 24.0047C27.0157 24.0076 27.0153 24.0114 27.0127 24.0123C27.0074 24.0211 27.0037 24.0296 26.9992 24.0364C26.998 24.0393 26.998 24.0393 26.9976 24.0397C26.9931 24.0512 26.9871 24.0588 26.9826 24.0706V24.0735C26.9777 24.083 26.9737 24.0929 26.9706 24.1032C26.9701 24.1053 26.9701 24.1053 26.9687 24.1053C26.9653 24.1167 26.9612 24.1264 26.9585 24.137L26.9574 24.1383C26.9552 24.148 26.9518 24.1594 26.9499 24.1683C26.9499 24.1709 26.9495 24.1709 26.9485 24.173C26.9461 24.1836 26.9439 24.1916 26.9436 24.203C26.9409 24.2154 26.9394 24.2251 26.939 24.2369V24.2387C26.9383 24.2496 26.9383 24.2593 26.9383 24.2687C26.9383 24.2793 26.9383 24.2902 26.939 24.2979V24.3016C26.9398 24.3114 26.9409 24.3181 26.9436 24.3249V24.3296C26.9451 24.3355 26.9462 24.3452 26.9496 24.352L26.9503 24.3558C26.9533 24.3609 26.9552 24.3685 26.9575 24.374C26.9575 24.374 26.9586 24.3761 26.9586 24.377C26.9623 24.3838 26.9654 24.3897 26.9702 24.3956C26.9706 24.3964 26.9706 24.3972 26.9721 24.3972C26.9751 24.4032 26.9777 24.4083 26.9815 24.4107C26.9826 24.4121 26.9841 24.4137 26.986 24.4167C26.9894 24.4189 26.9932 24.4227 26.9962 24.4243C26.9977 24.4281 26.998 24.4281 27.0003 24.4285C27.0064 24.4324 27.0112 24.4362 27.0157 24.4392L12.7337 16.2829C12.7285 16.2783 12.7236 16.2753 12.7187 16.2706C12.7168 16.2693 12.7154 16.2693 12.7134 16.2676C12.71 16.2629 12.7066 16.2608 12.7036 16.257C12.7018 16.257 12.7014 16.2562 12.6999 16.2541C12.695 16.249 12.6923 16.2443 12.6886 16.2384C12.6882 16.2384 12.6882 16.2384 12.6863 16.2358C12.6838 16.2299 12.6805 16.2244 12.6766 16.2193C12.6766 16.218 12.6762 16.218 12.6762 16.2164L12.6751 16.2155C12.6738 16.2109 12.672 16.2063 12.6698 16.202C12.669 16.2015 12.6679 16.1986 12.6679 16.1948C12.6679 16.1939 12.6668 16.1922 12.6668 16.1922C12.6668 16.191 12.6653 16.1892 12.6653 16.1892C12.6638 16.1842 12.6635 16.1787 12.6623 16.1744C12.6612 16.1744 12.6612 16.1719 12.6612 16.1698C12.6612 16.1698 12.6609 16.1677 12.6605 16.1669C12.6594 16.166 12.6594 16.163 12.6589 16.1622C12.6585 16.1579 12.6585 16.1542 12.657 16.1478C12.6567 16.1474 12.6567 16.1449 12.6567 16.1406L12.6555 16.1398V16.1359C12.6555 16.1313 12.6545 16.1275 12.6545 16.1245V16.1098L12.6544 16.0977Z" fill="#BF5700"/>
<path id="Vector_11" d="M27.2078 23.8106C27.057 23.8947 26.9363 24.0986 26.9383 24.2687C26.9383 24.4379 27.0593 24.5056 27.2093 24.4218C27.3585 24.3355 27.4796 24.1304 27.4784 23.962C27.4784 23.7919 27.357 23.7234 27.2078 23.8106Z" fill="#BF5700"/>
<path id="Vector_12" d="M36.0821 16.1411C36.0817 16.1363 36.0806 16.133 36.0806 16.1284V16.1228V16.1199C36.0806 16.1194 36.0802 16.1178 36.0802 16.1148C36.0795 16.1101 36.0784 16.1063 36.0784 16.1012C36.0784 16.0983 36.078 16.0928 36.0772 16.0886C36.0758 16.083 36.0758 16.0792 36.0743 16.0742C36.0737 16.0701 36.0728 16.0662 36.0716 16.0623C36.0708 16.0614 36.0708 16.0589 36.0704 16.0556C36.0704 16.0556 36.0704 16.0546 36.0697 16.0529C36.0693 16.0517 36.0686 16.0508 36.0686 16.047C36.0665 16.0428 36.0652 16.0382 36.0649 16.0335C36.0641 16.0318 36.0622 16.0259 36.0603 16.0228V16.0217V16.0199C36.0595 16.0149 36.0578 16.0101 36.0554 16.0055C36.0544 16.0009 36.0527 15.9963 36.0505 15.9921V15.9899C36.0501 15.9882 36.0501 15.9882 36.049 15.9878C36.0488 15.9847 36.0478 15.9818 36.046 15.9792C36.0446 15.9747 36.0438 15.9708 36.0412 15.9666C36.0396 15.9619 36.0389 15.9607 36.037 15.9573C36.0355 15.956 36.0355 15.956 36.0355 15.9539L36.0347 15.953C36.0333 15.9493 36.0309 15.9446 36.0291 15.9395C36.0271 15.9351 36.0247 15.9308 36.0219 15.9268C36.0219 15.9268 36.0216 15.9243 36.0212 15.9243C36.0212 15.9222 36.0197 15.9213 36.0197 15.9213C36.017 15.918 36.0152 15.9141 36.0144 15.9099C36.0107 15.9065 36.0089 15.8997 36.0062 15.8972C36.0043 15.8951 36.0039 15.8922 36.0028 15.8892H36.0009C35.9987 15.8837 35.9961 15.8799 35.9938 15.8765C35.9896 15.868 35.9855 15.8659 35.9818 15.8592C35.981 15.8583 35.981 15.8545 35.9803 15.8537C35.9742 15.8478 35.9694 15.8402 35.9637 15.8334V15.8304C35.9592 15.8257 35.9558 15.8207 35.9517 15.816C35.9475 15.8122 35.9445 15.8072 35.9412 15.8033C35.9374 15.7987 35.9332 15.7952 35.931 15.7906C35.9273 15.7868 35.9242 15.7838 35.9205 15.78C35.9194 15.78 35.9185 15.7791 35.9178 15.777C35.9174 15.777 35.9174 15.7762 35.9174 15.7762C35.9137 15.7732 35.9114 15.7686 35.9091 15.7681C35.9048 15.7646 35.9008 15.7608 35.8971 15.7567C35.896 15.7567 35.8944 15.7537 35.8937 15.7537C35.8926 15.7528 35.8922 15.7528 35.8907 15.7528C35.8889 15.749 35.8877 15.7482 35.8862 15.7452C35.8813 15.7414 35.8772 15.7401 35.8745 15.7355C35.8707 15.7347 35.8704 15.7343 35.8681 15.7325C35.8666 15.7304 35.8663 15.7304 35.8655 15.7295C35.8644 15.7279 35.8628 15.7266 35.861 15.7266C35.8572 15.7228 35.8531 15.7211 35.8497 15.7173C35.8487 15.716 35.8475 15.7149 35.846 15.7142C35.8446 15.7135 35.843 15.7131 35.8414 15.713C35.8406 15.7114 35.8391 15.7101 35.8391 15.7101C35.8388 15.7101 35.8384 15.7101 35.8384 15.7084C35.8338 15.7054 35.8294 15.7033 35.8268 15.7008C35.8222 15.7 35.8179 15.6979 35.8143 15.6949C35.8143 15.694 35.8124 15.694 35.8113 15.6919C35.8087 15.6911 35.8068 15.6907 35.8035 15.6889C35.7998 15.6863 35.7957 15.6843 35.7914 15.683C35.7895 15.6813 35.7871 15.6803 35.7846 15.68C35.7838 15.6775 35.7838 15.6775 35.7831 15.6775H35.7816C35.778 15.675 35.7739 15.6736 35.7696 15.6732C35.7666 15.6724 35.7628 15.6686 35.7594 15.6686H35.7579C35.7575 15.6677 35.7568 15.6677 35.7561 15.6677C35.7531 15.6664 35.7512 15.6639 35.7481 15.6639C35.7444 15.6639 35.7417 15.6635 35.7376 15.6635C35.7349 15.6626 35.7334 15.6626 35.7319 15.6626C35.7312 15.6626 35.7301 15.6626 35.7289 15.6617C35.7278 15.6617 35.7275 15.6596 35.7263 15.6596H35.7151C35.7121 15.6587 35.7098 15.6587 35.7076 15.6558H35.6748C35.6711 15.6587 35.6655 15.6596 35.6602 15.6596H35.6564C35.6516 15.6623 35.6461 15.6637 35.6406 15.6638H35.6398C35.6319 15.6677 35.6248 15.6706 35.6184 15.6732L21.337 23.8343C21.3441 23.8288 21.3506 23.8275 21.3577 23.8259C21.3622 23.8238 21.3685 23.8199 21.3742 23.8191C21.3753 23.8191 21.3753 23.8187 21.378 23.8187C21.384 23.8187 21.3919 23.8187 21.3983 23.816H21.4024C21.4081 23.8152 21.416 23.816 21.4216 23.8187H21.4254C21.4322 23.8187 21.4408 23.8187 21.4471 23.8191H21.4499C21.4584 23.8238 21.4652 23.8259 21.4735 23.8275H21.4754C21.4837 23.8288 21.4931 23.8343 21.5006 23.839H21.5021C21.5116 23.8423 21.5202 23.8461 21.5288 23.853C21.5386 23.8567 21.548 23.8644 21.5566 23.8695H21.5581C21.5669 23.8758 21.5747 23.8818 21.5834 23.8894C21.5834 23.8894 21.5849 23.8894 21.5852 23.8915C21.5927 23.8961 21.6014 23.9029 21.6082 23.9101C21.6092 23.9105 21.6103 23.911 21.6112 23.9117C21.619 23.9202 21.6266 23.9283 21.6333 23.9359C21.6349 23.9367 21.6352 23.9367 21.6352 23.9367C21.6428 23.9456 21.6517 23.9541 21.6585 23.9613H21.6596C21.6668 23.9727 21.6739 23.9811 21.6811 23.9909H21.6822C21.6875 24.0006 21.6943 24.0087 21.6991 24.0172C21.7044 24.023 21.7078 24.0281 21.7111 24.0349C21.7141 24.0403 21.7168 24.0442 21.7194 24.0472C21.7213 24.051 21.7224 24.0539 21.7239 24.0548C21.7284 24.0636 21.7329 24.0725 21.7374 24.081C21.7386 24.0819 21.7386 24.0819 21.7394 24.0831C21.7442 24.0946 21.7488 24.1035 21.754 24.1149C21.7544 24.1149 21.7544 24.1149 21.7544 24.1161C21.7593 24.1264 21.7631 24.1361 21.7661 24.1466C21.7665 24.1478 21.768 24.1478 21.768 24.1478C21.7721 24.1593 21.7748 24.1703 21.7781 24.1796C21.7781 24.1817 21.7789 24.1817 21.7789 24.1817C21.7818 24.1931 21.7849 24.202 21.7879 24.2126V24.2156C21.7913 24.2269 21.7924 24.2358 21.7939 24.2485C21.7969 24.2591 21.7973 24.2679 21.7981 24.2794V24.2802C21.7999 24.2921 21.7999 24.3019 21.7999 24.3111C21.7999 24.3217 21.7999 24.3327 21.7981 24.342C21.7981 24.3441 21.7973 24.3441 21.7973 24.3441C21.7973 24.3539 21.7969 24.3614 21.7939 24.3691V24.372C21.7916 24.3801 21.7913 24.3885 21.7878 24.3945C21.7878 24.3945 21.7878 24.3966 21.7863 24.3991C21.7841 24.4034 21.7818 24.4118 21.7788 24.4165C21.7788 24.4165 21.778 24.4195 21.778 24.4198C21.7747 24.4262 21.772 24.433 21.7664 24.4389C21.766 24.4398 21.766 24.4427 21.7644 24.4427C21.7611 24.4456 21.7592 24.4516 21.7546 24.4533C21.7539 24.4546 21.7517 24.4571 21.7509 24.4604C21.7475 24.4613 21.7441 24.4652 21.7408 24.4681C21.7393 24.4706 21.7385 24.4706 21.7363 24.4728C21.7306 24.4757 21.7258 24.4804 21.7213 24.4825L36.0028 16.3259C36.0084 16.3209 36.0141 16.3188 36.0186 16.314C36.0197 16.3124 36.0216 16.3119 36.0239 16.3094C36.0269 16.3082 36.0303 16.3035 36.0333 16.2997C36.0344 16.2988 36.0355 16.2988 36.037 16.2984C36.0412 16.2908 36.0445 16.2878 36.0472 16.2811C36.049 16.2811 36.049 16.2811 36.0502 16.2802C36.0536 16.2726 36.057 16.2675 36.0604 16.262V16.2582C36.0641 16.2531 36.0653 16.2493 36.0667 16.2472C36.0676 16.2442 36.0686 16.2412 36.0694 16.2375L36.0705 16.2358L36.0709 16.2328C36.0728 16.2278 36.0739 16.2222 36.0743 16.2171C36.0758 16.2171 36.0758 16.2147 36.0758 16.2134L36.0772 16.2096C36.0772 16.2096 36.0772 16.2057 36.0781 16.2057C36.0784 16.2019 36.0784 16.1969 36.0795 16.1913C36.0803 16.1901 36.0803 16.1871 36.0803 16.1854L36.0806 16.1833V16.1787C36.0806 16.1749 36.0818 16.1719 36.0818 16.1672C36.0822 16.163 36.0822 16.1584 36.0822 16.1525L36.0821 16.1411Z" fill="#BF5700"/>
<path id="Vector_13" d="M21.5289 23.8529C21.68 23.9388 21.8003 24.144 21.7999 24.3111C21.7999 24.4802 21.6781 24.5492 21.5285 24.4642C21.3789 24.38 21.2571 24.1748 21.2589 24.0048C21.2589 23.8343 21.3796 23.7666 21.5289 23.8529Z" fill="#BF5700"/>
<path id="Vector_14" d="M33.3874 20.2061C33.3886 20.4816 33.2056 20.7574 32.8379 20.9669L25.7256 25.0322C25.3495 25.2471 24.8541 25.3518 24.3605 25.3474V34.2189C24.8541 34.2232 25.3495 34.1186 25.7256 33.9036L32.8379 29.8383C33.2056 29.6287 33.3886 29.3529 33.3874 29.0775H33.3875V20.2061H33.3874ZM24.3604 25.3474C23.8864 25.3432 23.4141 25.2386 23.0511 25.0321L15.8909 20.9668C15.5211 20.7571 15.335 20.4815 15.3334 20.2061H15.3334V29.0774H15.3334C15.335 29.3528 15.5211 29.6284 15.8909 29.8381L23.0511 33.9034C23.414 34.1098 23.8863 34.2145 24.3604 34.2187V25.3474Z" fill="#BF5700"/>
<path id="Vector_15" d="M32.8303 19.4468C33.5701 19.8631 33.5735 20.5476 32.8378 20.9668L25.7255 25.0321C24.9882 25.4536 23.792 25.4536 23.051 25.0321L15.8909 20.9668C15.1514 20.5476 15.1465 19.8648 15.8826 19.4468L22.9957 15.3781C23.7322 14.9593 24.9273 14.9593 25.6705 15.3781L32.8303 19.4468ZM19.1615 25.587C20.0361 26.0839 20.7457 27.2931 20.7427 28.2812C20.74 29.2684 20.0256 29.6716 19.1504 29.1726C18.2749 28.6774 17.5652 27.4681 17.568 26.4791C17.5712 25.4901 18.2852 25.089 19.1615 25.587ZM19.1504 28.8691C19.8778 29.2811 20.4708 28.9482 20.4732 28.1289C20.4753 27.3088 19.887 26.3036 19.1601 25.8926C18.4338 25.4812 17.84 25.8126 17.8379 26.6323C17.8358 27.4532 18.4248 28.4561 19.1504 28.8691Z" fill="#BF5700"/>
<path id="Vector_16" d="M19.1615 25.5868C20.0362 26.0837 20.7457 27.2929 20.7427 28.281C20.7401 29.2683 20.0256 29.6714 19.1504 29.1725C18.275 28.6772 17.5653 27.468 17.5681 26.479C17.5713 25.4899 18.2853 25.0888 19.1615 25.5868ZM19.1505 28.8689C19.8779 29.281 20.4709 28.948 20.4733 28.1287C20.4754 27.3087 19.8871 26.3035 19.1602 25.8924C18.4339 25.481 17.84 25.8125 17.8379 26.6322C17.8359 27.4531 18.4249 28.456 19.1505 28.8689Z" fill="#BF5700"/>
<path id="Vector_17" d="M19.4349 25.4407C18.9412 25.16 18.5688 25.1622 18.2432 25.3587L18.0425 25.4713L18.0457 25.4712C18.3335 25.3146 18.7275 25.3404 19.1615 25.587C20.0362 26.0839 20.7457 27.2931 20.7427 28.2812C20.7415 28.7344 20.59 29.064 20.3422 29.2403C20.4124 29.2042 20.5119 29.1453 20.5428 29.1287C20.8377 28.9711 21.0116 28.6526 21.013 28.1419C21.016 27.1538 20.3096 25.9375 19.4349 25.4407Z" fill="#BF5700"/>
<path id="Vector_18" d="M20.1901 28.8851C19.9731 28.9384 19.7075 28.8921 19.4207 28.7297C18.6951 28.3167 18.1061 27.3139 18.1082 26.493C18.1091 26.1483 18.2149 25.8904 18.391 25.7373C18.0576 25.819 17.8392 26.1359 17.8379 26.6323C17.8358 27.4532 18.4249 28.4561 19.1504 28.869C19.5717 29.1076 19.9476 29.096 20.1901 28.8851Z" fill="#BF5700"/>
<path id="Vector_19" d="M30.9569 26.6879C30.9598 27.6769 30.2501 28.8862 29.3747 29.3814C28.4994 29.8804 27.7849 29.4772 27.7824 28.49C27.7794 27.5019 28.4889 26.2927 29.3635 25.7958C30.2398 25.2978 30.9538 25.6989 30.9569 26.6879ZM29.3747 29.0778C30.1002 28.6649 30.6892 27.662 30.6872 26.8411C30.685 26.0214 30.0912 25.69 29.3649 26.1014C28.638 26.5124 28.0497 27.5176 28.0518 28.3377C28.0542 29.157 28.6472 29.4899 29.3747 29.0778Z" fill="#BF5700"/>
<path id="Vector_20" d="M30.9569 26.6879C30.9598 27.6769 30.2501 28.8862 29.3747 29.3814C28.4994 29.8804 27.7849 29.4772 27.7824 28.49C27.7794 27.5019 28.4889 26.2927 29.3635 25.7958C30.2398 25.2978 30.9538 25.6989 30.9569 26.6879ZM29.3747 29.0778C30.1002 28.6649 30.6892 27.662 30.6872 26.8411C30.685 26.0214 30.0912 25.69 29.3649 26.1014C28.638 26.5124 28.0497 27.5176 28.0518 28.3377C28.0542 29.157 28.6472 29.4899 29.3747 29.0778Z" fill="#BF5700"/>
<path id="Vector_21" d="M29.09 25.6494C29.5838 25.3687 29.9562 25.3709 30.2818 25.5675L30.4825 25.68L30.4793 25.6799C30.1915 25.5233 29.7975 25.5491 29.3634 25.7958C28.4888 26.2927 27.7793 27.5018 27.7823 28.49C27.7835 28.9431 27.9349 29.2728 28.1828 29.449C28.1126 29.4129 28.0131 29.354 27.9822 29.3375C27.6873 29.1798 27.5133 28.8614 27.512 28.3506C27.509 27.3625 28.2154 26.1463 29.09 25.6494Z" fill="#BF5700"/>
<path id="Vector_22" d="M28.335 29.0941C28.5519 29.1474 28.8176 29.1011 29.1043 28.9387C29.8299 28.5258 30.4189 27.5229 30.4168 26.702C30.4159 26.3573 30.3101 26.0994 30.134 25.9463C30.4674 26.028 30.6858 26.3449 30.6871 26.8413C30.6892 27.6622 30.1002 28.6651 29.3746 29.078C28.9533 29.3166 28.5774 29.305 28.335 29.0941Z" fill="#BF5700"/>
<path id="Vector_23" d="M29.7052 19.7269C30.1721 19.9896 30.1742 20.4216 29.71 20.6861L25.2218 23.2515C24.7566 23.5174 24.0017 23.5174 23.5342 23.2515L19.0159 20.6861C18.5492 20.4216 18.5462 19.9907 19.0106 19.7269L23.4993 17.1594C23.964 16.8951 24.7182 16.8951 25.1872 17.1594L29.7052 19.7269Z" fill="white"/>
<path id="Vector_24" d="M19.4829 27.3044C19.4829 27.3015 19.4822 27.2976 19.4822 27.2947V27.2883V27.2853V27.2794C19.4808 27.2753 19.4801 27.271 19.4803 27.2667C19.4803 27.2621 19.4784 27.2578 19.4781 27.2532C19.4777 27.2485 19.4777 27.2447 19.4755 27.2387C19.474 27.2358 19.474 27.2307 19.4728 27.226C19.472 27.226 19.472 27.2231 19.4717 27.2214C19.4717 27.2214 19.4706 27.2206 19.4706 27.2176C19.4698 27.2155 19.4698 27.2138 19.4698 27.2116C19.4683 27.2087 19.4668 27.2036 19.4649 27.1989C19.4646 27.1951 19.4646 27.1913 19.463 27.187H19.4623V27.1845C19.4604 27.1778 19.4593 27.1727 19.457 27.171C19.4563 27.1658 19.4545 27.1609 19.4517 27.1566C19.4517 27.1545 19.4517 27.1545 19.451 27.1536V27.1524C19.4494 27.1494 19.449 27.1464 19.4472 27.1439C19.4457 27.1397 19.4442 27.135 19.4419 27.1321C19.4412 27.1265 19.4397 27.1235 19.4377 27.1222V27.1206C19.4377 27.1206 19.437 27.1185 19.437 27.1167C19.4347 27.1129 19.4325 27.1092 19.4302 27.1058C19.4279 27.0994 19.4265 27.0952 19.4238 27.0913C19.4238 27.0897 19.4238 27.0876 19.4219 27.0876C19.4219 27.0867 19.4216 27.0867 19.4216 27.0867C19.419 27.082 19.4174 27.0778 19.4156 27.074C19.4129 27.071 19.4103 27.0663 19.4066 27.0625C19.4062 27.0587 19.4051 27.0557 19.4038 27.0545C19.4035 27.0515 19.402 27.0515 19.402 27.0515C19.4005 27.049 19.3967 27.0439 19.3948 27.0409C19.3907 27.0324 19.3873 27.0286 19.3831 27.0236C19.3824 27.021 19.3824 27.0198 19.3816 27.0189C19.3758 27.0117 19.3704 27.0043 19.3655 26.9965L19.3644 26.9956C19.3606 26.9905 19.3568 26.9858 19.353 26.9791C19.3492 26.977 19.3455 26.9723 19.3421 26.9693C19.3388 26.9644 19.3353 26.9596 19.3316 26.9549C19.3275 26.9511 19.3248 26.949 19.3214 26.9442C19.3207 26.9442 19.3207 26.943 19.3207 26.9421C19.3181 26.9421 19.3173 26.9413 19.3173 26.9413C19.3151 26.9383 19.3116 26.9336 19.3106 26.9324C19.3059 26.9285 19.3015 26.9244 19.2973 26.9201L19.2955 26.9189C19.2936 26.9171 19.2936 26.9171 19.2925 26.9159C19.2904 26.9138 19.2885 26.9115 19.2868 26.9091C19.283 26.9065 19.2786 26.9044 19.2745 26.8997C19.2725 26.8976 19.2706 26.8969 19.2699 26.8969L19.2673 26.8955C19.2654 26.8926 19.2639 26.8918 19.262 26.8918C19.2575 26.8871 19.2545 26.8862 19.25 26.8812C19.2478 26.8773 19.2451 26.8773 19.2417 26.8773C19.2412 26.8763 19.2407 26.8753 19.2402 26.8743C19.2394 26.8743 19.2394 26.8743 19.2394 26.8727C19.2356 26.8689 19.2304 26.8684 19.2281 26.8659C19.2237 26.8644 19.2196 26.8621 19.2161 26.8591C19.2153 26.8586 19.2138 26.8586 19.2134 26.8561C19.2108 26.8553 19.2071 26.8549 19.2044 26.8523C19.2006 26.851 19.1976 26.848 19.1935 26.8463C19.1905 26.8456 19.1883 26.8451 19.186 26.8426C19.186 26.8417 19.1848 26.8417 19.184 26.8417H19.1825C19.1783 26.841 19.1743 26.8392 19.1708 26.8366C19.1679 26.8358 19.1641 26.8328 19.1603 26.8328H19.1581C19.1578 26.832 19.1578 26.832 19.157 26.832C19.1561 26.831 19.155 26.8303 19.1539 26.8298C19.1527 26.8293 19.1514 26.829 19.1502 26.829C19.1457 26.8282 19.1423 26.8269 19.1374 26.8269C19.1371 26.8252 19.1348 26.8252 19.134 26.8252H19.131C19.1299 26.8248 19.1287 26.824 19.1272 26.824H19.116C19.1141 26.8223 19.1114 26.8223 19.1076 26.821H19.1061H19.0753C19.0712 26.8223 19.0655 26.824 19.061 26.824H19.058C19.0527 26.8252 19.0472 26.827 19.0415 26.8282C19.0415 26.8282 19.0403 26.8282 19.0403 26.8291C19.034 26.832 19.0272 26.8345 19.0197 26.8388L8.93811 32.5856C8.94599 32.5823 8.95241 32.5788 8.95991 32.5784C8.96403 32.5746 8.9705 32.5737 8.97575 32.5721C8.9765 32.5721 8.97758 32.5716 8.97988 32.5716C8.9855 32.57 8.9938 32.57 8.99905 32.5687H9.00434C9.00997 32.5687 9.01831 32.5687 9.02389 32.5699H9.02684C9.03444 32.5699 9.04156 32.5716 9.04874 32.572H9.05056C9.06074 32.5746 9.06753 32.5784 9.07503 32.5788H9.07691C9.086 32.5822 9.09392 32.5856 9.10288 32.5911H9.10367C9.11305 32.595 9.12242 32.5992 9.13114 32.6046C9.14014 32.6089 9.14994 32.6165 9.15828 32.622C9.15936 32.622 9.16011 32.622 9.16011 32.6232C9.16841 32.6301 9.17713 32.6356 9.1842 32.6424C9.18613 32.6424 9.1865 32.6424 9.18763 32.6436C9.19475 32.6495 9.20347 32.6572 9.21055 32.6627C9.21242 32.6639 9.21327 32.6648 9.21327 32.6648C9.22114 32.6724 9.22902 32.6804 9.23544 32.6872C9.23694 32.6889 9.23736 32.6889 9.23736 32.6902C9.24524 32.6987 9.25349 32.7054 9.26066 32.7139C9.26895 32.725 9.27613 32.7325 9.28325 32.7444H9.28433C9.29 32.7537 9.29675 32.7617 9.30163 32.7711C9.30697 32.777 9.30917 32.782 9.31255 32.7867C9.31672 32.7935 9.31892 32.7974 9.32197 32.8015C9.32277 32.8049 9.32427 32.8049 9.32609 32.8083C9.33064 32.8168 9.33556 32.8252 9.33964 32.8342C9.33964 32.8354 9.34086 32.8354 9.34156 32.8354C9.34644 32.8456 9.35056 32.8558 9.35661 32.8672V32.8693C9.36185 32.8795 9.36614 32.8901 9.36941 32.9011C9.37386 32.9108 9.37728 32.9222 9.38066 32.9337V32.9358C9.38408 32.9439 9.38708 32.954 9.3897 32.965C9.3897 32.9676 9.39045 32.9676 9.39045 32.9688C9.39383 32.9795 9.39425 32.9883 9.39617 33.0006C9.39838 33.0113 9.39955 33.021 9.4003 33.0329V33.0337C9.40213 33.0443 9.40213 33.0531 9.40213 33.0646C9.40213 33.0756 9.40175 33.085 9.4003 33.094C9.4003 33.0985 9.3995 33.0985 9.3995 33.0985C9.3987 33.1074 9.39838 33.1142 9.39613 33.1226V33.1256C9.3942 33.1332 9.39383 33.1412 9.39041 33.1472C9.38966 33.1481 9.38966 33.1502 9.38858 33.1518C9.38628 33.1569 9.38403 33.1645 9.38061 33.1705V33.1735C9.37616 33.1798 9.37353 33.1858 9.36899 33.1925C9.36861 33.1934 9.36861 33.1946 9.36706 33.1946C9.36369 33.1994 9.36144 33.2044 9.35731 33.2081C9.35656 33.2091 9.35356 33.2108 9.35319 33.2137C9.34986 33.215 9.34644 33.2187 9.34302 33.2205C9.34152 33.2243 9.33959 33.2243 9.33852 33.2264C9.33322 33.2286 9.32802 33.2332 9.32272 33.2353L19.4038 27.4893C19.4103 27.4847 19.4151 27.4826 19.4201 27.4779C19.4209 27.4779 19.4238 27.4775 19.4242 27.4741C19.4279 27.4706 19.4302 27.469 19.4347 27.4652C19.4351 27.4643 19.4377 27.4622 19.4381 27.4614C19.4419 27.4555 19.4464 27.4525 19.4494 27.4441L19.451 27.4436C19.4547 27.439 19.4573 27.4306 19.4604 27.4276C19.4604 27.4255 19.4623 27.4255 19.4623 27.4246L19.4626 27.4234C19.4645 27.4187 19.4668 27.4148 19.4683 27.4111C19.469 27.4081 19.4698 27.406 19.4698 27.403C19.4698 27.4013 19.4705 27.4005 19.4716 27.4005L19.472 27.3975C19.4739 27.3916 19.4739 27.3878 19.4765 27.3809C19.4776 27.3809 19.4776 27.38 19.4776 27.378C19.4776 27.378 19.4776 27.3759 19.478 27.3743C19.4783 27.3733 19.4783 27.3721 19.4783 27.3695C19.4802 27.3662 19.4802 27.3606 19.4806 27.3568C19.4806 27.353 19.4821 27.353 19.4821 27.3492V27.3488V27.344C19.4821 27.3391 19.4828 27.3343 19.4828 27.3326V27.3191C19.4829 27.3155 19.4829 27.3087 19.4829 27.3044Z" fill="#BF5700"/>
<path id="Vector_25" d="M9.13117 32.6048C9.28211 32.692 9.40253 32.8967 9.40211 33.0647C9.40173 33.2355 9.28019 33.3032 9.13005 33.2176C8.98028 33.1333 8.85911 32.9263 8.86098 32.7582C8.86094 32.5883 8.98098 32.5188 9.13117 32.6048Z" fill="#BF5700"/>
<path id="Vector_26" d="M29.0898 27.3064C29.0902 27.3017 29.0913 27.2975 29.0913 27.2945C29.0921 27.292 29.0921 27.2881 29.0921 27.2881V27.2852C29.0921 27.2852 29.0924 27.2831 29.0924 27.2792C29.0934 27.2755 29.0934 27.2712 29.0934 27.2665C29.0944 27.2628 29.0948 27.2577 29.0959 27.253C29.0959 27.2483 29.0959 27.2446 29.0978 27.2403C29.0993 27.2356 29.0997 27.2305 29.1012 27.2258C29.1012 27.2258 29.1019 27.2229 29.1019 27.2212C29.1019 27.2212 29.1019 27.2204 29.1034 27.2174C29.1034 27.2162 29.1039 27.2136 29.1039 27.2132C29.1057 27.2084 29.1069 27.2039 29.108 27.1987C29.1095 27.1949 29.1095 27.1911 29.111 27.1868C29.111 27.1852 29.1113 27.1852 29.1113 27.1843C29.1132 27.1792 29.1147 27.1746 29.1162 27.1716C29.1182 27.1657 29.1192 27.161 29.1215 27.1572C29.1215 27.1551 29.1226 27.1551 29.1226 27.1542C29.1229 27.1533 29.1229 27.1533 29.1229 27.1521C29.1241 27.1495 29.1249 27.1461 29.126 27.1436C29.1271 27.1398 29.1297 27.1347 29.1309 27.1318C29.1332 27.127 29.135 27.1249 29.1357 27.1224C29.1361 27.1219 29.1361 27.1219 29.1361 27.1203C29.1361 27.1203 29.1361 27.1182 29.1365 27.1173C29.1399 27.1135 29.1407 27.1097 29.1433 27.1055C29.1446 27.101 29.1468 27.0969 29.1497 27.0932C29.1508 27.0903 29.1508 27.0894 29.1508 27.0894C29.1512 27.0883 29.1517 27.0873 29.1523 27.0864C29.1542 27.0818 29.1561 27.0784 29.1587 27.0737C29.161 27.0708 29.1633 27.0669 29.1667 27.0623C29.1678 27.0585 29.1689 27.0581 29.1697 27.0547C29.1711 27.0525 29.1711 27.0525 29.1711 27.0512C29.174 27.0479 29.1766 27.0444 29.179 27.0407C29.1828 27.0322 29.1862 27.0283 29.1903 27.0241C29.1914 27.0225 29.1914 27.0207 29.1922 27.0186C29.1975 27.0127 29.2028 27.0051 29.2095 26.997V26.9954C29.2128 26.9903 29.2174 26.9856 29.2208 26.9806C29.2242 26.9768 29.2276 26.9721 29.231 26.9691C29.2355 26.9644 29.2392 26.9594 29.2422 26.9556C29.2449 26.951 29.2487 26.9488 29.2528 26.9458C29.2532 26.9458 29.2535 26.9429 29.2547 26.942H29.2562C29.2585 26.9382 29.2603 26.9352 29.263 26.9323C29.2682 26.9285 29.2713 26.9247 29.2754 26.92C29.2762 26.92 29.2776 26.9188 29.2788 26.9188C29.2795 26.9178 29.2802 26.9178 29.2817 26.9158C29.2841 26.9141 29.286 26.9117 29.287 26.909C29.2912 26.9064 29.2958 26.9043 29.2991 26.9006C29.3006 26.8975 29.3029 26.8968 29.3043 26.8968C29.3054 26.8958 29.3054 26.8958 29.3077 26.8954C29.3092 26.8925 29.3096 26.8925 29.3111 26.8925C29.3156 26.887 29.3191 26.8861 29.3228 26.8818C29.3254 26.8789 29.3284 26.8771 29.3318 26.8771C29.3318 26.8763 29.3328 26.8742 29.3328 26.8742C29.3344 26.8742 29.3344 26.8742 29.3351 26.8733C29.3393 26.8696 29.343 26.8682 29.3457 26.8657C29.3498 26.8653 29.3539 26.8615 29.3585 26.859C29.3585 26.859 29.3593 26.859 29.3608 26.8568C29.3634 26.8559 29.366 26.8547 29.3691 26.8538C29.3726 26.8509 29.3767 26.8486 29.3811 26.847C29.3823 26.8461 29.386 26.8454 29.3871 26.8424C29.3886 26.8415 29.3886 26.8415 29.3894 26.8415H29.3912C29.3958 26.8411 29.3992 26.8385 29.4026 26.8373C29.406 26.8364 29.4093 26.8335 29.4132 26.8335H29.4154C29.4154 26.8318 29.4158 26.8318 29.4172 26.8318C29.4195 26.8313 29.4211 26.8296 29.4244 26.8296C29.4278 26.8278 29.4315 26.8268 29.4353 26.8267C29.4376 26.825 29.4386 26.825 29.4406 26.825H29.4428C29.4436 26.825 29.445 26.8238 29.4458 26.8238H29.4582C29.4601 26.8229 29.4631 26.8229 29.4654 26.8208H29.497C29.5021 26.8228 29.5074 26.8238 29.5128 26.8238H29.5151C29.5219 26.825 29.5268 26.8267 29.5317 26.828C29.5317 26.828 29.5328 26.828 29.5328 26.8296C29.5404 26.8318 29.5472 26.8356 29.5534 26.8385L39.6354 32.5871C39.629 32.5823 39.6207 32.5802 39.614 32.5781C39.6091 32.5756 39.6023 32.5743 39.5978 32.5727C39.5959 32.5727 39.5955 32.5718 39.5944 32.5718C39.5883 32.5697 39.58 32.5697 39.5748 32.5685H39.57C39.5631 32.5685 39.5568 32.5685 39.5496 32.5697H39.5477C39.5395 32.5697 39.5327 32.5718 39.5244 32.5726H39.5225C39.5138 32.5756 39.5056 32.5781 39.4981 32.5802H39.4962C39.4875 32.5823 39.4796 32.5871 39.471 32.5908H39.4687C39.4601 32.5955 39.4514 32.5997 39.4423 32.6056C39.433 32.6094 39.4243 32.6162 39.4145 32.6221L39.4137 32.623C39.4051 32.6298 39.3964 32.6354 39.3893 32.6421C39.3882 32.6421 39.3866 32.6421 39.3866 32.6434C39.3787 32.6502 39.3712 32.6577 39.3629 32.6624C39.3618 32.6637 39.3618 32.6645 39.3599 32.6645C39.352 32.6721 39.3449 32.681 39.3381 32.687C39.3363 32.6895 39.3363 32.6895 39.3363 32.6899C39.3291 32.6985 39.3197 32.7068 39.3129 32.7141C39.3054 32.7248 39.2974 32.7341 39.2903 32.7442H39.2899C39.2831 32.7535 39.2775 32.7624 39.2722 32.7713C39.2673 32.7777 39.2648 32.7819 39.2613 32.7865C39.2572 32.7933 39.255 32.7972 39.2523 32.8013C39.2496 32.8047 39.2493 32.806 39.2474 32.8081C39.2433 32.8166 39.238 32.8255 39.2335 32.834C39.2335 32.8352 39.2331 32.8352 39.2331 32.8361C39.2267 32.8454 39.2226 32.8564 39.2181 32.867C39.2163 32.867 39.2163 32.867 39.2163 32.8691C39.2128 32.8793 39.2083 32.889 39.2049 32.8988C39.2049 32.9009 39.2049 32.9009 39.203 32.9009C39.1997 32.9123 39.1962 32.9242 39.1929 32.9335V32.9356C39.1902 32.9445 39.1868 32.9559 39.1838 32.9657C39.1838 32.9674 39.1838 32.9674 39.1827 32.9686C39.1815 32.9795 39.1793 32.9901 39.1759 33.0005C39.1756 33.0114 39.1737 33.0212 39.1737 33.0335H39.1726C39.1722 33.0453 39.1722 33.0547 39.1722 33.0652C39.1722 33.0771 39.1726 33.0869 39.1737 33.0954V33.0983C39.1752 33.1072 39.1756 33.114 39.1759 33.1224C39.1759 33.1229 39.1759 33.1254 39.1774 33.1254C39.1797 33.133 39.1816 33.1419 39.1838 33.147C39.1838 33.1495 39.1842 33.1508 39.1849 33.1524C39.1872 33.1567 39.1902 33.1651 39.1929 33.172V33.1732C39.1962 33.1809 39.2004 33.1863 39.2049 33.1923C39.2049 33.1944 39.2053 33.1944 39.206 33.1944C39.2094 33.1998 39.2128 33.2042 39.2163 33.2079C39.2181 33.2088 39.2196 33.2105 39.2211 33.2147C39.2245 33.2156 39.2268 33.2193 39.2298 33.2223C39.2332 33.224 39.2335 33.224 39.2343 33.227C39.2403 33.2308 39.246 33.2329 39.2516 33.2358L29.1697 27.489C29.1637 27.4861 29.1592 27.4823 29.1543 27.4784C29.1524 27.4775 29.1509 27.4772 29.1497 27.4755C29.1452 27.4703 29.1423 27.4687 29.14 27.4658C29.1383 27.4645 29.1368 27.4629 29.1358 27.4611C29.1305 27.4571 29.1266 27.4516 29.1245 27.4454C29.1241 27.4454 29.123 27.4454 29.123 27.4438C29.1193 27.4387 29.1155 27.4319 29.1128 27.4272C29.1128 27.4259 29.1113 27.4259 29.1113 27.4243L29.111 27.4234C29.1095 27.4183 29.1072 27.4145 29.1057 27.4107C29.1046 27.4083 29.1039 27.4057 29.1034 27.4031C29.1034 27.4009 29.1019 27.4001 29.1019 27.4001V27.3988C29.0997 27.392 29.0993 27.3874 29.0974 27.3823C29.0959 27.3823 29.0959 27.3797 29.0959 27.3785V27.3755C29.0951 27.373 29.0951 27.3718 29.0948 27.3709C29.0945 27.3662 29.0934 27.3602 29.0934 27.3573C29.0925 27.3535 29.0925 27.3526 29.0925 27.3489L29.0921 27.3484V27.3446C29.0913 27.3387 29.0903 27.334 29.0903 27.3331C29.0899 27.3281 29.0899 27.3234 29.0899 27.3188L29.0898 27.3064Z" fill="#BF5700"/>
<path id="Vector_27" d="M39.4424 32.606C39.293 32.6919 39.1715 32.8973 39.1722 33.0654C39.1727 33.2353 39.2949 33.3039 39.4436 33.2187C39.5937 33.1332 39.7134 32.9269 39.7134 32.758C39.713 32.5882 39.5926 32.5196 39.4424 32.606Z" fill="#BF5700"/>
<path id="Vector_28" d="M11.3601 31.8965C11.3604 31.9821 11.3036 32.0677 11.1893 32.1328L8.9796 33.3959C8.75057 33.5268 8.3789 33.5268 8.14865 33.3959L5.92406 32.1328C5.80917 32.0677 5.75132 31.9821 5.75085 31.8965V34.6528C5.75132 34.7384 5.80917 34.824 5.92406 34.8892L8.14865 36.1521C8.3789 36.283 8.75053 36.283 8.9796 36.1521L11.1893 34.8892C11.3036 34.824 11.3604 34.7384 11.3601 34.6528V31.8965Z" fill="#BF5700"/>
<path id="Vector_29" opacity="0.3" d="M11.1893 32.7588L8.9796 34.0218C8.75057 34.1527 8.3789 34.1527 8.14865 34.0218L5.92406 32.7588C5.80917 32.6936 5.75132 32.608 5.75085 32.5225V32.7889C5.75132 32.8745 5.80917 32.9602 5.92406 33.0253L8.14865 34.2883C8.3789 34.4193 8.75053 34.4193 8.9796 34.2883L11.1893 33.0253C11.3036 32.9602 11.3604 32.8745 11.3601 32.7889L11.3601 32.5225C11.3604 32.608 11.3036 32.6937 11.1893 32.7588Z" fill="white"/>
<path id="Vector_30" d="M11.187 31.6606C11.4169 31.7899 11.4179 32.0025 11.1893 32.1327L8.9796 33.3958C8.75057 33.5268 8.3789 33.5268 8.14865 33.3958L5.92406 32.1327C5.69432 32.0025 5.69277 31.7904 5.92152 31.6606L8.13145 30.3964C8.36029 30.2663 8.73159 30.2663 8.96249 30.3964L11.187 31.6606Z" fill="#BF5700"/>
<path id="Vector_31" d="M10.2513 31.7443C10.4 31.8276 10.4007 31.9642 10.2532 32.049L8.82869 32.8637C8.6815 32.9469 8.44136 32.9469 8.293 32.8637L6.85961 32.049C6.71125 31.9648 6.71036 31.8276 6.85797 31.7443L8.28199 30.9296C8.42946 30.8457 8.66922 30.8457 8.81754 30.9296L10.2513 31.7443Z" fill="#BF5700"/>
<path id="Vector_32" d="M42.2491 31.8965C42.2495 31.9821 42.1926 32.0677 42.0784 32.1328L39.8686 33.3959C39.6396 33.5268 39.2679 33.5268 39.0377 33.3959L36.8131 32.1328C36.6982 32.0677 36.6404 31.9821 36.6399 31.8965V34.6528C36.6404 34.7384 36.6982 34.824 36.8131 34.8892L39.0377 36.1521C39.2679 36.283 39.6396 36.283 39.8686 36.1521L42.0784 34.8892C42.1926 34.824 42.2495 34.7384 42.2491 34.6528V31.8965Z" fill="#BF5700"/>
<path id="Vector_33" opacity="0.3" d="M42.0784 32.7588L39.8686 34.0218C39.6396 34.1527 39.2679 34.1527 39.0377 34.0218L36.8131 32.7588C36.6982 32.6936 36.6404 32.608 36.6399 32.5225V32.7889C36.6404 32.8745 36.6982 32.9602 36.8131 33.0253L39.0377 34.2883C39.2679 34.4193 39.6396 34.4193 39.8686 34.2883L42.0784 33.0253C42.1926 32.9602 42.2495 32.8745 42.2491 32.7889V32.5225C42.2495 32.608 42.1926 32.6937 42.0784 32.7588Z" fill="white"/>
<path id="Vector_34" d="M42.076 31.6606C42.3059 31.7899 42.307 32.0025 42.0784 32.1327L39.8687 33.3958C39.6396 33.5268 39.268 33.5268 39.0377 33.3958L36.8131 32.1327C36.5834 32.0025 36.5818 31.7904 36.8106 31.6606L39.0205 30.3964C39.2493 30.2663 39.6206 30.2663 39.8515 30.3964L42.076 31.6606Z" fill="#BF5700"/>
<path id="Vector_35" d="M41.1404 31.7443C41.289 31.8276 41.2898 31.9642 41.1422 32.049L39.7177 32.8637C39.5705 32.9469 39.3304 32.9469 39.182 32.8637L37.7487 32.049C37.6003 31.9648 37.5994 31.8276 37.747 31.7443L39.171 30.9296C39.3185 30.8457 39.5583 30.8457 39.7066 30.9296L41.1404 31.7443Z" fill="#BF5700"/>
</g>
<defs>
<clipPath id="clip0_6520_25836">
<rect width="48" height="48" fill="white"/>
</clipPath>
</defs>
</svg>
