<svg width="32" height="32" viewBox="0 0 32 32" fill="none" xmlns="http://www.w3.org/2000/svg">
<g id="i_documents_accepted">
<path id="Vector" fill-rule="evenodd" clip-rule="evenodd" d="M25.3335 9.99999V24C25.3335 25.1046 24.4381 26 23.3335 26H11.3335C10.2289 26 9.3335 25.1046 9.3335 24V5.33333C9.3335 4.22876 10.2289 3.33333 11.3335 3.33333H18.6668L25.3335 9.99999ZM18.6668 10.6667C18.2986 10.6667 18.0002 10.3682 18.0002 9.99999V4.66666H11.3335C10.9653 4.66666 10.6668 4.96514 10.6668 5.33333V24C10.6668 24.3682 10.9653 24.6667 11.3335 24.6667H23.3335C23.7017 24.6667 24.0002 24.3682 24.0002 24V10.6667H18.6668ZM19.3335 5.88561L22.7812 9.33333H19.3335V5.88561Z" fill="#252A31"/>
<path id="Vector_2" d="M7.99984 7.33333V25.3333C7.99984 26.4379 8.89524 27.3333 9.99984 27.3333H22.6665V28.6667H9.99984C8.1589 28.6667 6.6665 27.1743 6.6665 25.3333V7.33333H7.99984Z" fill="#252A31"/>
</g>
</svg>
