<svg width="32" height="32" viewBox="0 0 32 32" fill="none" xmlns="http://www.w3.org/2000/svg">
<g id="glossary 1">
<path id="Vector" d="M26 29H8C7.20435 29 6.44129 28.6839 5.87868 28.1213C5.31607 27.5587 5 26.7956 5 26V7C5 5.93913 5.42143 4.92172 6.17157 4.17157C6.92172 3.42143 7.93913 3 9 3H26C26.2652 3 26.5196 3.10536 26.7071 3.29289C26.8946 3.48043 27 3.73478 27 4V24C26.4696 24 25.9609 24.2107 25.5858 24.5858C25.2107 24.9609 25 25.4696 25 26C25 26.5304 25.2107 27.0391 25.5858 27.4142C25.9609 27.7893 26.4696 28 27 28C27 28.2652 26.8946 28.5196 26.7071 28.7071C26.5196 28.8946 26.2652 29 26 29Z" fill="white"/>
<path id="Vector_2" d="M26 3C26.2652 3 26.5196 3.10536 26.7071 3.29289C26.8946 3.48043 27 3.73478 27 4V24.016C26.5172 24.0774 26.0733 24.3128 25.7516 24.6781C25.43 25.0433 25.2525 25.5133 25.2525 26C25.2525 26.4867 25.43 26.9567 25.7516 27.3219C26.0733 27.6872 26.5172 27.9226 27 27.984V28C27 28.2652 26.8946 28.5196 26.7071 28.7071C26.5196 28.8946 26.2652 29 26 29H7.98C7.18965 29 6.43168 28.686 5.87282 28.1272C5.31396 27.5683 5 26.8103 5 26.02L5.004 25.886L5 25.89V7C5 5.93913 5.42143 4.92172 6.17157 4.17157C6.92172 3.42143 7.93913 3 9 3H26ZM8.5 26C8.37505 26.0002 8.25455 25.9537 8.16222 25.8695C8.06988 25.7853 8.01241 25.6696 8.00112 25.5452C7.98983 25.4207 8.02554 25.2966 8.10122 25.1972C8.1769 25.0977 8.28705 25.0303 8.41 25.008L8.5 25H24.425C24.5437 24.6647 24.7212 24.3532 24.949 24.08L24.983 24.04H7.98C7.46638 24.038 6.9721 24.2357 6.60151 24.5914C6.23091 24.947 6.01301 25.4327 5.9938 25.9459C5.9746 26.4592 6.15559 26.9598 6.49857 27.3422C6.84155 27.7245 7.31967 27.9586 7.832 27.995L7.98 28H25.02L24.95 27.921C24.5398 27.4297 24.298 26.8199 24.26 26.181L24.253 26H8.5ZM26 4H9C8.23479 3.99996 7.49849 4.29233 6.94174 4.81728C6.38499 5.34224 6.04989 6.06011 6.005 6.824L6 7V23.793C6.54511 23.3074 7.24999 23.0397 7.98 23.041L25.97 23.04L26 23.036V4Z" fill="#252A31"/>
<path id="Vector_3" d="M20.4999 17C20.6249 16.9998 20.7454 17.0463 20.8377 17.1305C20.9301 17.2147 20.9875 17.3304 20.9988 17.4548C21.0101 17.5793 20.9744 17.7034 20.8987 17.8028C20.8231 17.9023 20.7129 17.9697 20.5899 17.992L20.4999 18H12.4999C12.375 18.0002 12.2545 17.9537 12.1622 17.8695C12.0698 17.7853 12.0124 17.6696 12.0011 17.5452C11.9898 17.4207 12.0255 17.2966 12.1012 17.1972C12.1768 17.0977 12.287 17.0303 12.4099 17.008L12.4999 17H20.4999ZM18.4999 11C18.6249 10.9998 18.7454 11.0463 18.8377 11.1305C18.9301 11.2147 18.9875 11.3304 18.9988 11.4548C19.0101 11.5793 18.9744 11.7034 18.8987 11.8028C18.8231 11.9023 18.7129 11.9697 18.5899 11.992L18.4999 12H12.4999C12.375 12.0002 12.2545 11.9537 12.1622 11.8695C12.0698 11.7853 12.0124 11.6696 12.0011 11.5452C11.9898 11.4207 12.0255 11.2966 12.1012 11.1972C12.1768 11.0977 12.287 11.0303 12.4099 11.008L12.4999 11H18.4999ZM23.4999 8C23.6249 7.99977 23.7454 8.04633 23.8377 8.13051C23.9301 8.21469 23.9875 8.33039 23.9988 8.45482C24.0101 8.57926 23.9744 8.70341 23.8987 8.80283C23.8231 8.90225 23.7129 8.96974 23.5899 8.992L23.4999 9H12.4999C12.375 9.00023 12.2545 8.95367 12.1622 8.86949C12.0698 8.78531 12.0124 8.66961 12.0011 8.54518C11.9898 8.42074 12.0255 8.29659 12.1012 8.19717C12.1768 8.09775 12.287 8.03026 12.4099 8.008L12.4999 8H23.4999Z" fill="#252A31"/>
<path id="Vector_4" d="M8.50293 5.97803C8.61996 5.97799 8.73329 6.019 8.82319 6.09392C8.91309 6.16883 8.97386 6.27291 8.99493 6.38803L9.00293 6.47803V20.478C9.00316 20.603 8.9566 20.7235 8.87242 20.8158C8.78824 20.9081 8.67254 20.9656 8.54811 20.9769C8.42367 20.9882 8.29952 20.9525 8.2001 20.8768C8.10068 20.8011 8.03319 20.691 8.01093 20.568L8.00293 20.478V6.47803C8.00293 6.34542 8.05561 6.21824 8.14938 6.12447C8.24314 6.03071 8.37032 5.97803 8.50293 5.97803Z" fill="#252A31"/>
</g>
</svg>
