<svg width="32" height="32" viewBox="0 0 32 32" fill="none" xmlns="http://www.w3.org/2000/svg">
<g id="institution 1">
<path id="Vector" d="M28.2832 27.3182H2.71099C2.52248 27.3193 2.342 27.4087 2.20884 27.5667C2.07567 27.7248 2.00061 27.9388 2 28.1621C2 28.6264 2.3147 29 2.71099 29H28.289C28.4776 28.9988 28.6582 28.9094 28.7913 28.7512C28.9245 28.593 28.9995 28.3789 29 28.1555C29 27.6915 28.6795 27.3179 28.2832 27.3179V27.3182ZM4.13296 23.9401C3.94437 23.9413 3.76382 24.0307 3.63064 24.1889C3.49747 24.3471 3.42246 24.5612 3.42197 24.7846C3.42246 25.0081 3.49747 25.2222 3.63064 25.3804C3.76382 25.5386 3.94437 25.628 4.13296 25.6292H26.8612C27.0498 25.628 27.2304 25.5386 27.3635 25.3804C27.4967 25.2222 27.5717 25.0081 27.5722 24.7846C27.5717 24.5612 27.4967 24.3471 27.3635 24.1889C27.2304 24.0307 27.0498 23.9413 26.8612 23.9401H24.7283V13.8966H26.8612C27.0099 13.8973 27.1549 13.8421 27.2754 13.7389C27.3958 13.6356 27.4855 13.4897 27.5314 13.3222C27.5796 13.1548 27.5819 12.9735 27.5379 12.8045C27.494 12.6354 27.406 12.4871 27.2866 12.3808L15.9225 2.17129C15.7994 2.06017 15.6489 2 15.4942 2C15.3394 2 15.1889 2.06017 15.0658 2.17129L3.70171 12.381C3.45694 12.6025 3.35787 12.9762 3.45694 13.3222C3.50359 13.4892 3.59343 13.6345 3.71373 13.7376C3.83402 13.8408 3.97866 13.8964 4.12713 13.8966H6.26009V23.9401H4.13296ZM13.3641 23.9401V13.8966H17.6242V23.9401H13.3641ZM23.3121 23.9401H19.052V13.8966H23.3121V23.9401ZM15.4971 3.90173L24.7457 12.2079H6.24844L15.4971 3.90173ZM7.68206 13.8966H11.9422V23.9401H7.68206V13.8966Z" fill="#252A31"/>
</g>
</svg>
