<svg width="32" height="32" viewBox="0 0 32 32" fill="none" xmlns="http://www.w3.org/2000/svg">
<g id="medium_level">
<path id="Vector" d="M4.42345 16.0534C4.72583 13.3282 5.94511 10.8765 7.76887 9.0084L9.83194 11.0549L10.7865 10.1079L8.76099 8.09863C10.7008 6.50779 13.1474 5.50291 15.825 5.35754V8.68744H17.175V5.35754C19.8526 5.5029 22.2993 6.50781 24.2391 8.0987L22.2954 10.0266L23.2499 10.9737L25.2312 9.00846C27.0549 10.8766 28.2742 13.3282 28.5766 16.0534H25.7369V17.3927H28.65C28.6483 20.2991 27.609 22.9641 25.8784 25.0446L23.5696 22.7542L22.615 23.7012L24.9621 26.0296L24.9536 26.0379L25.8928 27C28.4248 24.5677 30 21.1584 30 17.3855C30 9.99256 23.9555 4 16.5 4C9.04449 4 3 9.99256 3 17.3855C3 21.0583 4.49284 24.3868 6.90804 26.8046L7.86695 25.8619C7.8627 25.8577 7.85851 25.8535 7.85426 25.8492L9.88284 23.8367L8.92819 22.8897L6.95833 24.844C5.32582 22.7941 4.35166 20.2066 4.35 17.3927H7.08557V16.0534H4.42345Z" fill="#252A31"/>
<path id="Vector_2" fill-rule="evenodd" clip-rule="evenodd" d="M15.6781 16.0195L14.003 25.4843C13.983 25.7529 14.0648 26.0194 14.2332 26.2336L15.5922 27.7481C16.3879 28.084 16.7414 28.084 17.4078 27.7481L18.7668 26.2336C18.9352 26.0194 19.017 25.7529 18.997 25.4843L17.3137 16.0319C17.2117 14.6643 15.7802 14.6519 15.6781 16.0195ZM17.5628 25.4876L16.4966 19.5004L15.4369 25.4873L16.434 26.5983C16.4885 26.6161 16.5217 26.6242 16.5392 26.6278L17.5628 25.4876ZM16.5188 26.6332C16.5189 26.633 16.5212 26.6325 16.5252 26.6319C16.5207 26.633 16.5187 26.6333 16.5188 26.6332ZM15.8926 16.059L15.8919 16.0568C15.8919 16.0568 15.8922 16.0575 15.8926 16.059Z" fill="#252A31"/>
</g>
</svg>
