<svg width="16" height="17" viewBox="0 0 16 17" fill="none" xmlns="http://www.w3.org/2000/svg">
<g id="link 2">
<path id="Vector" d="M9.5011 9.75095L10.6258 8.62625C10.9245 8.32796 11.0925 7.92323 11.0928 7.50109C11.0931 7.07894 10.9257 6.67397 10.6274 6.37526C10.3291 6.07655 9.92437 5.90857 9.50223 5.90827C9.08008 5.90797 8.67511 6.07538 8.3764 6.37367L7.2517 7.49837L6.8761 7.12382C6.67718 6.92485 6.56544 6.65502 6.56544 6.37367C6.56544 6.09232 6.67718 5.82249 6.8761 5.62352L9.87671 2.62185C10.0738 2.4247 10.3077 2.26831 10.5653 2.16162C10.8228 2.05492 11.0988 2 11.3775 2C11.6563 2 11.9323 2.05492 12.1898 2.16162C12.4473 2.26831 12.6813 2.4247 12.8784 2.62185L14.3787 4.12321C14.7765 4.52116 15 5.06082 15 5.62352C15 6.18621 14.7765 6.72587 14.3787 7.12382L11.377 10.1244C11.178 10.3233 10.9082 10.4351 10.6269 10.4351C10.3455 10.4351 10.0757 10.3233 9.87671 10.1244L9.50216 9.74989L9.5011 9.75095ZM6.49837 8.25064L5.37367 9.37534C5.08361 9.67537 4.923 10.0773 4.92643 10.4946C4.92985 10.9119 5.09705 11.3112 5.392 11.6064C5.68695 11.9017 6.08605 12.0692 6.50335 12.073C6.92065 12.0769 7.32276 11.9166 7.62307 11.6269L8.74989 10.5011L9.12443 10.8756C9.22308 10.9742 9.30135 11.0912 9.35474 11.22C9.40814 11.3488 9.43562 11.4869 9.43562 11.6263C9.43562 11.7658 9.40814 11.9038 9.35474 12.0326C9.30135 12.1615 9.22308 12.2785 9.12443 12.377L6.12382 15.3776C5.92676 15.5748 5.69278 15.7312 5.43527 15.8379C5.17775 15.9446 4.90173 15.9995 4.62299 15.9995C4.34424 15.9995 4.06822 15.9446 3.81071 15.8379C3.55319 15.7312 3.31921 15.5748 3.12215 15.3776L1.62184 13.8773C1.4247 13.6803 1.26831 13.4463 1.16162 13.1888C1.05492 12.9312 1 12.6552 1 12.3765C1 12.0977 1.05492 11.8217 1.16162 11.5642C1.26831 11.3067 1.4247 11.0727 1.62184 10.8756L4.62246 7.87504C4.721 7.77639 4.83802 7.69812 4.96683 7.64473C5.09563 7.59133 5.2337 7.56385 5.37314 7.56385C5.51258 7.56385 5.65064 7.59133 5.77945 7.64473C5.90826 7.69812 6.02528 7.77639 6.12382 7.87504L6.49837 8.25064ZM9.87459 7.12488C9.97404 7.22437 10.0299 7.35929 10.0299 7.49996C10.0299 7.64063 9.97404 7.77555 9.87459 7.87504L6.87398 10.8756C6.82504 10.9263 6.7665 10.9667 6.70177 10.9945C6.63705 11.0223 6.56743 11.037 6.49699 11.0376C6.42655 11.0382 6.35669 11.0248 6.29149 10.9981C6.22629 10.9714 6.16706 10.932 6.11725 10.8822C6.06744 10.8324 6.02804 10.7732 6.00137 10.708C5.97469 10.6428 5.96127 10.5729 5.96188 10.5025C5.96249 10.432 5.97713 10.3624 6.00493 10.2977C6.03274 10.233 6.07315 10.1744 6.12382 10.1255L9.12443 7.12488C9.22392 7.02543 9.35884 6.96956 9.49951 6.96956C9.64018 6.96956 9.7751 7.02543 9.87459 7.12488Z" fill="#717171"/>
</g>
</svg>
