<svg width="16" height="17" viewBox="0 0 16 17" fill="none" xmlns="http://www.w3.org/2000/svg">
<g id="mail-fill 1">
<path id="Vector" d="M14.5 3H1.5C1.22344 3 1 3.22344 1 3.5V13.5C1 13.7766 1.22344 14 1.5 14H14.5C14.7766 14 15 13.7766 15 13.5V3.5C15 3.22344 14.7766 3 14.5 3ZM13.2375 4.70156L8.30781 8.5375C8.18594 8.63281 8.01562 8.63281 7.89375 8.5375L2.9625 4.70156C2.93438 4.67969 2.91875 4.64688 2.91875 4.6125C2.91875 4.55 2.96875 4.5 3.03125 4.5H13.1687C13.2031 4.5 13.2359 4.51562 13.2578 4.54375C13.2953 4.59219 13.2875 4.6625 13.2375 4.70156Z" fill="#717171"/>
</g>
</svg>
