<svg width="20" height="17" viewBox="0 0 20 17" fill="none" xmlns="http://www.w3.org/2000/svg">
<g id="Frame 383">
<g id="Group 219">
<path id="Vector" d="M9.3335 12.3666C9.3335 12.4526 9.35041 12.5377 9.38329 12.6172C9.41616 12.6967 9.46434 12.7689 9.52508 12.8297C9.58581 12.8905 9.65792 12.9387 9.73728 12.9716C9.81664 13.0046 9.90169 13.0215 9.98759 13.0215C10.0735 13.0215 10.1585 13.0046 10.2379 12.9716C10.3173 12.9387 10.3894 12.8905 10.4501 12.8297C10.5108 12.7689 10.559 12.6967 10.5919 12.6172C10.6248 12.5377 10.6417 12.4526 10.6417 12.3666C10.6417 12.1929 10.5728 12.0263 10.4501 11.9035C10.3274 11.7807 10.1611 11.7117 9.98759 11.7117C9.81411 11.7117 9.64774 11.7807 9.52508 11.9035C9.40241 12.0263 9.3335 12.1929 9.3335 12.3666Z" fill="#BF5700"/>
<path id="Vector_2" d="M9.3335 14.6334C9.3335 14.7194 9.35041 14.8046 9.38329 14.8841C9.41616 14.9635 9.46434 15.0357 9.52508 15.0965C9.58581 15.1573 9.65792 15.2056 9.73728 15.2385C9.81664 15.2714 9.90169 15.2883 9.98759 15.2883C10.0735 15.2883 10.1585 15.2714 10.2379 15.2385C10.3173 15.2056 10.3894 15.1573 10.4501 15.0965C10.5108 15.0357 10.559 14.9635 10.5919 14.8841C10.6248 14.8046 10.6417 14.7194 10.6417 14.6334C10.6417 14.4597 10.5728 14.2932 10.4501 14.1703C10.3274 14.0475 10.1611 13.9785 9.98759 13.9785C9.81411 13.9785 9.64774 14.0475 9.52508 14.1703C9.40241 14.2932 9.3335 14.4597 9.3335 14.6334Z" fill="#BF5700"/>
<path id="Vector_3" d="M10.063 1.93823C7.87431 1.93823 6.08814 3.72665 6.08814 5.94327C6.08814 7.37904 6.84286 8.63849 7.97494 9.34378C5.28311 10.301 3.24536 13.0465 3.24536 16.0692C3.24536 16.3463 3.47178 16.573 3.74851 16.573C4.02524 16.573 4.25166 16.3463 4.25166 16.0692C4.25166 12.9458 6.79255 10.2254 9.78627 9.9735C9.8869 9.9735 9.93722 9.94831 10.0378 9.94831C10.1385 9.94831 10.1888 9.94831 10.2643 9.92312C12.3523 9.84755 14.0379 8.08433 14.0379 5.94327C14.0379 3.72665 12.2517 1.93823 10.063 1.93823ZM10.063 8.94075H9.93722C8.3523 8.86519 7.09444 7.55536 7.09444 5.94327C7.09444 4.2808 8.42777 2.94579 10.063 2.94579C11.6982 2.94579 13.0316 4.2808 13.0316 5.94327C13.0316 7.58055 11.6982 8.94075 10.063 8.94075Z" fill="#BF5700"/>
<path id="Vector_4" d="M4.30185 7.42952C4.5031 7.42952 4.67921 7.30358 4.77984 7.10206C4.88046 6.85017 4.75468 6.54791 4.5031 6.44715C3.52197 6.04413 2.86788 5.11214 2.86788 4.02902C2.86788 2.59325 4.02512 1.43456 5.43393 1.43456C6.0377 1.43456 6.61632 1.63607 7.06915 2.03909C7.27041 2.21541 7.59746 2.19023 7.77356 1.96353C7.94966 1.76201 7.9245 1.43456 7.69809 1.25824C7.06915 0.729269 6.23896 0.427002 5.40877 0.427002C3.4465 0.427002 1.83643 2.03909 1.83643 4.02902C1.83643 5.51516 2.71693 6.82499 4.10059 7.37914C4.17606 7.40433 4.22637 7.42952 4.30185 7.42952Z" fill="#BF5700"/>
<path id="Vector_5" d="M13.8367 10.9812C13.6355 11.1827 13.6355 11.485 13.8367 11.6865C15.1449 13.0215 15.799 14.4825 15.799 16.0442C15.799 16.3213 16.0254 16.548 16.3022 16.548C16.5789 16.548 16.8053 16.3213 16.8053 16.0442C16.8053 14.2054 16.0506 12.4925 14.5411 10.9812C14.3399 10.7797 14.038 10.7797 13.8367 10.9812Z" fill="#BF5700"/>
<path id="Vector_6" d="M1.91196 8.563C0.704406 9.89801 0 11.636 0 13.3741C0 13.6512 0.226416 13.8779 0.503147 13.8779C0.779878 13.8779 1.00629 13.6512 1.00629 13.3741C1.00629 11.8879 1.61007 10.4018 2.64152 9.2431C2.81762 9.04159 2.81762 8.71413 2.61636 8.53781C2.41511 8.3363 2.08806 8.36149 1.91196 8.563Z" fill="#BF5700"/>
<path id="Vector_7" d="M16.6541 7.07683C17.6604 6.42192 18.2893 5.31361 18.2893 4.05416C18.2893 2.06424 16.6792 0.452148 14.6918 0.452148C13.8113 0.452148 12.9811 0.779605 12.327 1.35895C12.1258 1.53527 12.1006 1.86273 12.2767 2.06424C12.4528 2.26575 12.7798 2.29094 12.9811 2.11462C13.4591 1.71159 14.0629 1.4597 14.6918 1.4597C16.1258 1.4597 17.283 2.6184 17.283 4.05416C17.283 5.16248 16.5786 6.14484 15.5472 6.52268C15.3459 6.57305 15.0692 6.62343 14.9937 6.85013C14.8931 7.10202 15.0189 7.3791 15.2704 7.47986C17.4591 8.43703 18.9937 10.7544 18.9937 13.1222C18.9937 13.3993 19.2201 13.626 19.4969 13.626C19.7736 13.626 20 13.3993 20 13.1222C19.9748 10.704 18.6415 8.38666 16.6541 7.07683Z" fill="#BF5700"/>
</g>
</g>
</svg>
