<svg width="32" height="32" viewBox="0 0 32 32" fill="none" xmlns="http://www.w3.org/2000/svg">
<g id="exclamation 1">
<path id="Vector" d="M15.976 1.95361C8.25111 1.95361 1.9668 8.23793 1.9668 15.9629C1.9668 23.6881 8.25111 29.9724 15.976 29.9724C23.7013 29.9724 29.9856 23.6881 29.9856 15.9629C29.9856 8.23793 23.7013 1.95361 15.976 1.95361ZM15.9759 28.7332C8.93455 28.7332 3.20605 23.0036 3.20605 15.9629C3.20605 8.9214 8.93455 3.19284 15.9759 3.19284C23.0167 3.19284 28.7462 8.92143 28.7464 15.9629C28.7464 23.0036 23.0167 28.7332 15.9759 28.7332ZM15.9735 18.4313C16.6553 18.4313 17.2111 17.8783 17.2111 17.1938L17.2193 9.65892C17.2193 8.97714 16.6661 8.42411 15.9817 8.42411C15.2972 8.42411 14.744 8.97714 14.744 9.65892L14.777 17.1938C14.777 17.8783 15.2918 18.4313 15.9735 18.4313ZM15.979 20.805C15.2452 20.805 14.651 21.3992 14.651 22.1329L14.6455 22.174C14.6455 22.9078 15.2397 23.5019 15.9735 23.5019C16.7073 23.5019 17.3014 22.9077 17.3014 22.174L17.3069 22.1329C17.3069 21.3992 16.7127 20.805 15.979 20.805Z" fill="#272636"/>
</g>
</svg>
