<svg width="20" height="20" viewBox="0 0 20 20" fill="none" xmlns="http://www.w3.org/2000/svg">
<g id="parameter 1">
<path id="Vector" d="M14.1775 9.5863H5.87474C5.56635 9.5863 5.31396 9.83837 5.31396 10.1477C5.31396 10.4567 5.56635 10.7096 5.87474 10.7096H14.1792C14.4888 10.7096 14.7406 10.4567 14.7406 10.1477C14.7406 9.83837 14.4888 9.5863 14.1775 9.5863Z" fill="white"/>
<path id="Vector_2" d="M16.3127 2.7959H3.55715C2.61287 2.7959 1.84473 3.56402 1.84473 4.50802V15.4923C1.84473 16.4366 2.61287 17.2041 3.55715 17.2041H16.3127C17.257 17.2041 18.0251 16.4366 18.0251 15.4923V14.5336V14.1639V4.508C18.0251 3.56402 17.257 2.7959 16.3127 2.7959ZM16.9503 14.1679V14.5336V15.4085C16.9503 15.8059 16.6269 16.1293 16.229 16.1293H3.64205C3.24414 16.1293 2.92072 15.8059 2.92072 15.4085V4.59204C2.92072 4.19527 3.24414 3.87157 3.64205 3.87157H16.229C16.6269 3.87157 16.9503 4.19527 16.9503 4.59204V14.1679Z" fill="white"/>
<path id="Vector_3" d="M12.4818 12.6865H5.87474C5.56635 12.6865 5.31396 12.9384 5.31396 13.2473C5.31396 13.5569 5.56635 13.8086 5.87648 13.8086H12.4818C12.7908 13.8086 13.0432 13.5569 13.0432 13.2473C13.0432 12.9384 12.7908 12.6865 12.4818 12.6865Z" fill="white"/>
<path id="Vector_4" d="M14.1792 6.48608H5.87474C5.56635 6.48608 5.31396 6.73817 5.31396 7.04744C5.31396 7.35615 5.56635 7.60824 5.87474 7.60824H14.1792C14.4888 7.60824 14.7406 7.35615 14.7406 7.04744C14.7406 6.73817 14.4888 6.48608 14.1792 6.48608Z" fill="white"/>
</g>
</svg>
