<svg width="40" height="40" viewBox="0 0 40 40" fill="none" xmlns="http://www.w3.org/2000/svg">
<g id="particle 1">
<path id="Vector" d="M32.2712 10.0474C32.2712 8.4724 30.9945 7.19556 29.4194 7.19556C27.2806 7.19556 26.5676 8.4724 26.5676 10.0474C26.5676 11.6224 27.8444 12.8992 29.4194 12.8992C30.9945 12.8992 32.2712 11.6224 32.2712 10.0474Z" fill="#ABBF63"/>
<path id="Vector_2" d="M26.1077 17.1311C24.5326 17.1311 23.2559 18.4079 23.2559 19.9829C23.2559 21.5579 23.4287 22.8348 25.0037 22.8348C28.3155 22.8348 28.9595 21.5579 28.9595 19.9829C28.9595 18.4079 27.6827 17.1311 26.1077 17.1311Z" fill="#ABBF63"/>
<path id="Vector_3" d="M19.4839 16.211C21.0589 16.211 22.0681 16.0152 22.3357 14.463C22.7957 11.7952 21.0589 10.5073 19.4839 10.5073C17.9088 10.5073 16.6321 11.7842 16.6321 13.3591C16.6321 14.9342 17.9089 16.211 19.4839 16.211Z" fill="#ABBF63"/>
<path id="Vector_4" d="M10.6526 16.211C12.2276 16.211 13.5044 14.9341 13.5044 13.3591C13.5044 11.7842 13.5044 10.5073 10.6526 10.5073C9.07754 10.5073 7.80078 11.7842 7.80078 13.3591C7.80078 14.9342 9.07754 16.211 10.6526 16.211Z" fill="#ABBF63"/>
<path id="Vector_5" d="M10.1926 22.1907C10.1926 20.6157 9.61765 19.3389 7.34081 19.3389C5.76577 19.3389 4.48901 20.6157 4.48901 22.1907C4.48901 23.7657 5.76577 25.0425 7.34081 25.0425C8.91585 25.0425 10.1926 23.7657 10.1926 22.1907Z" fill="#ABBF63"/>
<path id="Vector_6" d="M10.6526 27.0664C9.07754 27.0664 7.80078 27.5954 7.80078 29.9182C7.80078 31.4932 9.07754 32.7701 10.6526 32.7701C12.2276 32.7701 13.5044 31.4932 13.5044 29.9182C13.5044 28.3432 12.2276 27.0664 10.6526 27.0664Z" fill="#ABBF63"/>
<path id="Vector_7" d="M22.7958 25.9624C21.2207 25.9624 18.8443 25.992 19.254 28.8142C19.668 31.666 21.2207 31.666 22.7958 31.666C24.3708 31.666 25.6476 30.3892 25.6476 28.8142C25.6476 27.2392 24.3708 25.9624 22.7958 25.9624Z" fill="#ABBF63"/>
<path id="Vector_8" d="M32.7312 25.9624C31.1562 25.9624 29.8794 27.2392 29.8794 28.8142C29.8794 30.3892 30.5923 31.666 32.7312 31.666C34.3062 31.666 35.583 30.3892 35.583 28.8142C35.583 27.2392 34.3062 25.9624 32.7312 25.9624Z" fill="#ABBF63"/>
<path id="Vector_9" d="M16.1722 20.2129C13.8953 20.2129 13.0903 21.5926 13.0903 23.2946C13.0903 24.9967 14.4701 26.3765 16.1722 26.3765C17.8743 26.3765 19.254 24.9967 19.254 23.2946C19.254 21.5926 18.587 20.2129 16.1722 20.2129Z" fill="#ABBF63"/>
</g>
</svg>
