<svg width="18" height="18" viewBox="0 0 18 18" fill="none" xmlns="http://www.w3.org/2000/svg">
<path id="Vector" d="M14.4809 0.873571L14.4811 0.873737L16.8062 3.19662C16.8064 3.19684 16.8066 3.19707 16.8068 3.19729C17.3453 3.7398 17.5912 4.5067 17.4694 5.24806C16.9969 8.08721 15.4884 10.9134 13.1988 13.2008C10.9066 15.4909 8.07827 17.0012 5.24877 17.4672L5.24876 17.4672L5.24435 17.4679C5.12269 17.4891 4.99847 17.4999 4.86692 17.4999C4.24305 17.4999 3.63469 17.2485 3.19622 16.8082L3.1955 16.8075L0.873449 14.4854C0.632583 14.2446 0.5 13.9259 0.5 13.5851C0.5 13.2462 0.632803 12.9255 0.873414 12.6848C0.873426 12.6848 0.873437 12.6848 0.873448 12.6848L3.37868 10.1839L3.37899 10.1836C3.61986 9.94276 3.93848 9.81018 4.2793 9.81018C4.61576 9.81018 4.93657 9.94276 5.17743 10.1836L7.00799 12.0142L7.25386 12.2601L7.56994 12.1151C8.5712 11.656 9.47489 11.03 10.2517 10.2486C11.0297 9.47051 11.6562 8.56911 12.1114 7.56614L12.2546 7.2508L12.0097 7.00592L10.1791 5.17537C9.93827 4.9345 9.80569 4.61589 9.80569 4.27506C9.80569 3.9386 9.93827 3.6178 10.1791 3.37693L12.6825 0.873571L12.3289 0.520017L12.6825 0.87357C12.9234 0.632705 13.242 0.500122 13.5828 0.500122C13.9193 0.500122 14.2401 0.632705 14.4809 0.873571Z" stroke="#BF5700"/>
</svg>
