<svg width="16" height="17" viewBox="0 0 16 17" fill="none" xmlns="http://www.w3.org/2000/svg">
<g id="phone-fill 1">
<path id="Vector" d="M13.8375 4.09687L12.1734 2.43438C11.9344 2.19531 11.6141 2.0625 11.2781 2.0625C10.9391 2.0625 10.6203 2.19531 10.3813 2.43438L8.59062 4.225C8.35156 4.46406 8.21875 4.78438 8.21875 5.12031C8.21875 5.45938 8.35156 5.77813 8.59062 6.01719L9.9 7.32656C9.59219 8.00469 9.16875 8.61406 8.64219 9.14062C8.11719 9.66875 7.50625 10.0922 6.82812 10.4031L5.51875 9.09375C5.27969 8.85469 4.95937 8.72188 4.62344 8.72188C4.28437 8.72188 3.96563 8.85469 3.72656 9.09375L1.93438 10.8828C1.69531 11.1219 1.5625 11.4422 1.5625 11.7797C1.5625 12.1188 1.69531 12.4375 1.93438 12.6766L3.59531 14.3375C3.97656 14.7203 4.50312 14.9375 5.04375 14.9375C5.15781 14.9375 5.26719 14.9281 5.375 14.9094C7.48125 14.5625 9.57031 13.4422 11.2563 11.7578C12.9406 10.075 14.0594 7.9875 14.4109 5.875C14.5172 5.22969 14.3031 4.56562 13.8375 4.09687Z" fill="#717171"/>
</g>
</svg>
