<svg width="48" height="48" viewBox="0 0 48 48" fill="none" xmlns="http://www.w3.org/2000/svg">
<g id="plumbing 1">
<path id="Vector" d="M7.5 13.5H6V4.5H7.5V6H9C10.5913 6 12.1174 6.63214 13.2426 7.75736C14.3679 8.88258 15 10.4087 15 12V28.5H9V13.5C9 12 9 12 7.5 12V13.5ZM31.5 42H34.5V43.5H31.5V42ZM36 42H39V43.5H36V42ZM40.5 42H43.5V43.5H40.5V42ZM40.5 39H42V40.5H33V39H34.5V25.5H40.5V39ZM19.5 19.5H25.5V32.25C25.5 34.438 24.6308 36.5365 23.0836 38.0836C21.5365 39.6308 19.438 40.5 17.25 40.5C15.062 40.5 12.9635 39.6308 11.4164 38.0836C9.86919 36.5365 9 34.438 9 32.25V29.976H15.174V32.337C15.174 32.9107 15.4019 33.4608 15.8075 33.8665C16.2132 34.2721 16.7633 34.5 17.337 34.5C17.9107 34.5 18.4608 34.2721 18.8665 33.8665C19.2721 33.4608 19.5 32.9107 19.5 32.337V19.5ZM34.5 18V16.5C34.5 15 34.5 15 33 15H27C25.5 15 25.5 15 25.5 16.5V18H19.5V15C19.5 13.4087 20.1321 11.8826 21.2574 10.7574C22.3826 9.63214 23.9087 9 25.5 9H34.5C36.0913 9 37.6174 9.63214 38.7426 10.7574C39.8679 11.8826 40.5 13.4087 40.5 15V18H34.5ZM33 19.5H42V24H33V19.5Z" fill="white"/>
<path id="Vector_2" d="M7.5 13.5H6V4.5H7.5V6H9C10.5913 6 12.1174 6.63214 13.2426 7.75736C14.3679 8.88258 15 10.4087 15 12V28.5H9V13.5C9 12 9 12 7.5 12V13.5ZM31.5 42H34.5V43.5H31.5V42ZM36 42H39V43.5H36V42ZM40.5 42H43.5V43.5H40.5V42ZM40.5 39H42V40.5H33V39H34.5V25.5H40.5V39ZM19.5 19.5H25.5V32.25C25.5 34.438 24.6308 36.5365 23.0836 38.0836C21.5365 39.6308 19.438 40.5 17.25 40.5C15.062 40.5 12.9635 39.6308 11.4164 38.0836C9.86919 36.5365 9 34.438 9 32.25V29.976H15.174V32.337C15.174 32.9107 15.4019 33.4608 15.8075 33.8665C16.2132 34.2721 16.7633 34.5 17.337 34.5C17.9107 34.5 18.4608 34.2721 18.8665 33.8665C19.2721 33.4608 19.5 32.9107 19.5 32.337V19.5ZM21 32.337C21 33.3085 20.6141 34.2402 19.9271 34.9271C19.2402 35.6141 18.3085 36 17.337 36C16.3655 36 15.4338 35.6141 14.7469 34.9271C14.0599 34.2402 13.674 33.3085 13.674 32.337V31.476H10.5V32.25C10.5 34.0402 11.2112 35.7571 12.477 37.023C13.7429 38.2888 15.4598 39 17.25 39C19.0402 39 20.7571 38.2888 22.023 37.023C23.2888 35.7571 24 34.0402 24 32.25V21H21V32.337ZM34.5 18V16.5C34.5 15 34.5 15 33 15H27C25.5 15 25.5 15 25.5 16.5V18H19.5V15C19.5 13.4087 20.1321 11.8826 21.2574 10.7574C22.3826 9.63214 23.9087 9 25.5 9H34.5C36.0913 9 37.6174 9.63214 38.7426 10.7574C39.8679 11.8826 40.5 13.4087 40.5 15V18H34.5ZM39 16.5V15C39 13.8065 38.5259 12.6619 37.682 11.818C36.8381 10.9741 35.6935 10.5 34.5 10.5H25.5C24.3065 10.5 23.1619 10.9741 22.318 11.818C21.4741 12.6619 21 13.8065 21 15V16.5H24C24 14.172 24.672 13.5 27 13.5H33C35.328 13.5 36 14.172 36 16.5H39ZM33 19.5H42V24H33V19.5ZM34.5 21V22.5H40.5V21H34.5ZM36 27V39H39V27H36ZM13.5 12C13.5 10.8065 13.0259 9.66193 12.182 8.81802C11.3381 7.97411 10.1935 7.5 9 7.5H7.5V10.5H9C9.39782 10.5 9.77936 10.658 10.0607 10.9393C10.342 11.2206 10.5 11.6022 10.5 12V27H13.5V12Z" fill="#04BFBF"/>
<path id="Vector_3" d="M6 4.5H7.5V13.5H6V4.5ZM33 19.5H42V24H33V19.5ZM34.5 21V22.5H40.5V21H34.5ZM33 39H42V40.5H33V39ZM31.5 42H34.5V43.5H31.5V42ZM36 42H39V43.5H36V42ZM40.5 42H43.5V43.5H40.5V42Z" fill="#04BFBF"/>
</g>
</svg>
