<svg width="16" height="16" viewBox="0 0 16 16" fill="none" xmlns="http://www.w3.org/2000/svg">
<g id="privacy 2" clip-path="url(#clip0_6520_28127)">
<path id="Vector" d="M7.96842 4.50403H7.80709C7.51092 4.50403 7.23122 4.62055 7.01964 4.83213C6.80805 5.04378 6.69154 5.32342 6.69154 5.61965V7.23313H9.08417V5.61965C9.0841 5.00448 8.58359 4.50403 7.96842 4.50403ZM7.94611 0.484314C3.67451 0.484314 0.21167 3.94715 0.21167 8.21875C0.21167 12.4904 3.67451 15.9532 7.94611 15.9532C12.2177 15.9532 15.6805 12.4904 15.6805 8.21875C15.6805 3.94715 12.2177 0.484314 7.94611 0.484314ZM11.1562 11.9541H4.6195V7.23319H5.69569V5.61965C5.69569 5.05746 5.91577 4.52767 6.31544 4.128C6.71511 3.72826 7.2449 3.50818 7.80709 3.50818H7.96842C9.13276 3.50818 10.08 4.45537 10.08 5.61965V7.23313H11.1562V11.9541Z" fill="#717171"/>
</g>
<defs>
<clipPath id="clip0_6520_28127">
<rect width="16" height="16" fill="white"/>
</clipPath>
</defs>
</svg>
