<svg width="20" height="18" viewBox="0 0 20 18" fill="none" xmlns="http://www.w3.org/2000/svg">
<path id="Vector" d="M12.6005 7.03921C12.7864 6.72198 12.6804 6.31345 12.3632 6.12685C12.0473 5.94091 11.6381 6.04688 11.4515 6.3641C10.915 7.27713 9.38021 8.01955 8.02866 8.01955C6.67244 8.01955 5.13429 7.27113 4.5998 6.35144C4.41453 6.03288 4.00666 5.92492 3.68877 6.11019C3.37021 6.29479 3.26225 6.70332 3.44752 7.02122C4.32722 8.53538 6.46451 9.35311 8.02932 9.35311C9.5868 9.35244 11.7181 8.54138 12.6005 7.03921ZM13.9953 12.66C15.0976 12.66 15.9947 11.763 15.9947 10.6607V1.99689C15.9947 0.894593 15.0976 -0.00244141 13.9953 -0.00244141H1.99933C0.897034 -0.00244141 0 0.894593 0 1.99689V10.6607C0 11.763 0.897034 12.66 1.99933 12.66H2.008L1.99933 15.9902C1.99867 16.2641 2.16594 16.5107 2.41986 16.612C2.49983 16.6433 2.58314 16.6587 2.66578 16.6587C2.84638 16.6587 3.02366 16.5854 3.15228 16.4481L6.6971 12.66H13.9953ZM3.34289 12.0815C3.34622 12.0515 3.36021 12.0249 3.36021 11.9936C3.36021 11.625 3.06165 11.3271 2.69377 11.3271H1.99933C1.63212 11.3271 1.33289 11.0285 1.33289 10.6607V1.99689C1.33289 1.62968 1.63212 1.33045 1.99933 1.33045H13.9953C14.3632 1.33045 14.6618 1.62968 14.6618 1.99689V10.6607C14.6618 11.0285 14.3632 11.3271 13.9953 11.3271H6.41186C6.4072 11.3271 6.4032 11.3298 6.39853 11.3298C6.33322 11.3304 6.27058 11.3484 6.20726 11.3684C6.18794 11.3751 6.16661 11.3744 6.14862 11.3824C6.09264 11.4058 6.04399 11.4464 5.99467 11.4857C5.97667 11.5004 5.95335 11.5097 5.93735 11.527C5.93269 11.5324 5.92602 11.5337 5.92136 11.539L3.33689 14.3015L3.34289 12.0815ZM17.99 4.00489C17.6215 4.00489 17.3296 4.30346 17.3296 4.67133C17.3296 5.03921 17.6335 5.33778 18.002 5.33778C18.3685 5.33778 18.6664 5.63701 18.6664 6.00422V13.3351C18.6664 13.703 18.3685 14.0016 18.002 14.0016H17.3276C16.959 14.0016 16.6611 14.2995 16.6611 14.668C16.6611 14.67 16.6618 14.6713 16.6618 14.6727C16.6618 14.678 16.6591 14.682 16.6591 14.6867L16.6558 15.7183L15.1456 14.1908C15.015 14.0582 14.8417 13.9936 14.6684 13.9942C14.6664 13.9942 14.6644 13.9929 14.6618 13.9929H11.3296C10.961 13.9929 10.6631 14.2908 10.6631 14.6593C10.6631 15.0279 10.961 15.3258 11.3296 15.3258H14.3939L16.8437 17.8043C16.971 17.9329 17.143 18.0022 17.3176 18.0022C17.4029 18.0022 17.4882 17.9862 17.5701 17.9529C17.8194 17.8509 17.9833 17.6077 17.984 17.3378L17.9907 15.3344H18.0027C19.1036 15.3344 20 14.4374 20 13.3351V6.00422C19.9993 4.90126 19.103 4.00489 17.99 4.00489Z" fill="#BF5700"/>
</svg>
