<svg width="32" height="32" viewBox="0 0 32 32" fill="none" xmlns="http://www.w3.org/2000/svg">
<g id="report 2">
<path id="Vector" d="M12.5188 22.9442L10.9352 24.3241L8.22176 22.4376L5.65231 24.349L4.12191 23.2115V4.10716H20.8781V13.4122C20.8781 13.9934 21.3538 14.4658 21.939 14.4658C22.5243 14.4658 23 13.9934 23 13.4122V3.75597C23 2.78941 22.2082 2 21.2317 2H3.76826C2.79493 2 2 2.7863 2 3.75597V24.2619L5.65231 26.9782L8.26557 25.0358L11.0854 27L13.9209 24.5261C14.359 24.1438 14.4028 23.4787 14.0179 23.0405C13.6298 22.6054 12.9601 22.5619 12.5188 22.9442Z" fill="black"/>
<path id="Vector_2" d="M28.1928 15.2926H16.3689C15.3723 15.2926 14.5584 16.0994 14.5584 17.0943V25.7045C14.5584 26.6963 15.3691 27.5062 16.3689 27.5062H21.4221L26.0203 29.7991C26.2446 29.933 26.4945 30 26.7476 30C26.9687 30 27.1866 29.949 27.3917 29.8437C27.8659 29.6014 28.1607 29.123 28.1607 28.5905V27.4999H28.1896C29.1861 27.4999 30 26.6931 30 25.6981V17.088C30 16.0994 29.1893 15.2926 28.1928 15.2926ZM27.8307 25.341H25.9914V27.3659L21.938 25.3441H16.731V17.4515H27.8307V25.341ZM5.72417 7.4414H12.2257C12.6262 7.4414 12.9499 7.11932 12.9499 6.7207C12.9499 6.32208 12.6262 6 12.2257 6H5.72417C5.32363 6 5 6.32208 5 6.7207C5 7.11932 5.32363 7.4414 5.72417 7.4414ZM5.72417 13.3473C5.32363 13.3473 5 13.6694 5 14.068C5 14.4666 5.32363 14.7887 5.72417 14.7887H12.2257C12.6262 14.7887 12.9499 14.4666 12.9499 14.068C12.9499 13.6694 12.6262 13.3473 12.2257 13.3473H5.72417ZM15.4653 10.2764C15.4653 9.87776 15.1416 9.55567 14.7411 9.55567H5.72417C5.32363 9.55567 5 9.87776 5 10.2764C5 10.675 5.32363 10.9971 5.72417 10.9971H14.7443C15.1416 10.9971 15.4653 10.675 15.4653 10.2764Z" fill="black"/>
<path id="Vector_3" d="M21.052 22C21.6315 22 22.1039 21.5509 22.1039 21C22.1039 20.4491 21.6315 20 21.052 20C20.4724 20 20 20.4491 20 21C20 21.5509 20.4693 22 21.052 22ZM24.948 22C25.5307 22 26 21.5509 26 21C26 20.4491 25.5307 20 24.948 20C24.3685 20 23.8992 20.4491 23.8992 21C23.8992 21.5509 24.3685 22 24.948 22Z" fill="black"/>
</g>
</svg>
