<svg width="40" height="40" viewBox="0 0 40 40" fill="none" xmlns="http://www.w3.org/2000/svg">
<g id="river 1" clip-path="url(#clip0_6520_25819)">
<path id="Vector" d="M14.5744 39.0635C14.2901 39.0638 14.0173 38.9516 13.8155 38.7514L13.4334 38.3747C13.333 38.275 13.2533 38.1566 13.1987 38.0261C13.1441 37.8956 13.1158 37.7557 13.1153 37.6142C13.1143 37.3286 13.2268 37.0543 13.428 36.8516C13.6293 36.6489 13.9028 36.5345 14.1884 36.5335C14.4741 36.5324 14.7484 36.6449 14.9511 36.8462L15.3332 37.2229C15.4847 37.3732 15.5881 37.565 15.6303 37.7741C15.6725 37.9833 15.6517 38.2002 15.5703 38.3974C15.489 38.5947 15.3509 38.7633 15.1736 38.8819C14.9963 39.0005 14.7877 39.0637 14.5744 39.0635ZM11.5175 36.0335C11.2332 36.0338 10.9604 35.9215 10.7586 35.7214L9.98899 34.9625C9.78702 34.7606 9.67355 34.4866 9.67355 34.201C9.67355 33.9154 9.78702 33.6414 9.98899 33.4395C10.191 33.2375 10.4649 33.124 10.7505 33.124C11.0362 33.124 11.3101 33.2375 11.5121 33.4395L12.2709 34.1929C12.4221 34.3428 12.5254 34.5342 12.5678 34.7428C12.6101 34.9514 12.5897 35.1679 12.5091 35.3649C12.4284 35.562 12.2912 35.7306 12.1147 35.8496C11.9382 35.9686 11.7303 36.0326 11.5175 36.0335ZM8.82651 30.4041H8.79421C8.50964 30.3942 8.24057 30.2721 8.04589 30.0643C7.85121 29.8565 7.7468 29.58 7.75551 29.2954C7.75551 29.0873 7.76986 28.8792 7.79856 28.6711C7.83577 28.3899 7.98179 28.1345 8.20526 27.9598C8.42872 27.785 8.71181 27.7049 8.99369 27.7366C9.27558 27.7683 9.53379 27.9094 9.71284 28.1294C9.8919 28.3494 9.97752 28.6308 9.95132 28.9133C9.95132 29.064 9.92441 29.2147 9.91903 29.3654C9.90923 29.6452 9.79078 29.9102 9.58882 30.1041C9.38685 30.2981 9.11726 30.4056 8.83727 30.4041H8.82651ZM10.3011 26.4376C10.0979 26.4373 9.89893 26.3794 9.7272 26.2708C9.55548 26.1621 9.41803 26.007 9.33076 25.8234C9.2435 25.6399 9.20998 25.4354 9.23408 25.2336C9.25818 25.0318 9.33891 24.841 9.46695 24.6831C9.72982 24.3613 10.0178 24.0608 10.3281 23.7844C10.543 23.6001 10.8216 23.5077 11.104 23.5271C11.3864 23.5464 11.6499 23.6759 11.8377 23.8877C12.0255 24.0995 12.1226 24.3766 12.108 24.6593C12.0934 24.942 11.9683 25.2076 11.7596 25.3989C11.5345 25.5989 11.3257 25.8167 11.1353 26.0501C11.0347 26.1709 10.9088 26.2682 10.7666 26.3352C10.6243 26.4021 10.4691 26.4371 10.3119 26.4376H10.3011ZM13.4173 20.9965H13.3473C13.0626 20.9785 12.7967 20.8483 12.608 20.6343C12.4193 20.4204 12.3232 20.1403 12.3409 19.8556V19.4035C12.3366 19.118 12.4459 18.8425 12.6447 18.6377C12.8436 18.4328 13.1156 18.3153 13.4011 18.311C13.6866 18.3067 13.9621 18.416 14.167 18.6148C14.3718 18.8137 14.4894 19.0857 14.4936 19.3712V19.9955C14.4747 20.2659 14.3544 20.5191 14.1569 20.7047C13.9593 20.8903 13.699 20.9945 13.428 20.9965H13.4173ZM12.3409 16.9063C12.1632 16.9069 11.9881 16.8634 11.8313 16.7798C11.6744 16.6962 11.5407 16.5751 11.4421 16.4273C11.2818 16.1766 11.1019 15.9391 10.9039 15.7169C10.8024 15.6144 10.7225 15.4925 10.669 15.3585C10.6155 15.2245 10.5895 15.0811 10.5926 14.9369C10.5956 14.7926 10.6276 14.6505 10.6867 14.5188C10.7457 14.3872 10.8306 14.2688 10.9364 14.1706C11.0421 14.0725 11.1665 13.9966 11.3022 13.9474C11.4378 13.8983 11.582 13.8769 11.7261 13.8846C11.8701 13.8923 12.0112 13.9289 12.1408 13.9922C12.2705 14.0555 12.3861 14.1442 12.4808 14.253C12.765 14.5582 13.0241 14.8858 13.2558 15.2325C13.3649 15.396 13.4272 15.5862 13.4359 15.7826C13.4445 15.9789 13.3993 16.1739 13.305 16.3464C13.2107 16.5188 13.0711 16.6622 12.9011 16.7609C12.7311 16.8596 12.5374 16.9099 12.3409 16.9063ZM8.92338 11.5675C8.66617 11.571 8.4162 11.4823 8.21875 11.3174C8.0213 11.1525 7.88942 10.9224 7.847 10.6687C7.81471 10.4642 7.78959 10.2579 7.77166 10.0498C7.75785 9.90729 7.7725 9.76349 7.81475 9.62672C7.85701 9.48995 7.92603 9.36295 8.0178 9.25309C8.10957 9.14323 8.22226 9.05271 8.34933 8.98679C8.47639 8.92087 8.61529 8.88086 8.75795 8.86909C8.90061 8.85732 9.04419 8.87402 9.18034 8.91823C9.31649 8.96244 9.4425 9.03327 9.55103 9.1266C9.65957 9.21993 9.74847 9.33391 9.81257 9.4619C9.87666 9.5899 9.91468 9.72935 9.92441 9.87217C9.92441 10.0229 9.9567 10.1736 9.97823 10.3189C10.0013 10.4585 9.99665 10.6012 9.9645 10.739C9.93235 10.8768 9.87335 11.0069 9.79087 11.1219C9.70839 11.2369 9.60406 11.3344 9.48383 11.4091C9.36361 11.4837 9.22985 11.5338 9.09022 11.5567L8.92338 11.5675ZM9.59612 7.39112C9.41085 7.39106 9.22873 7.34318 9.06738 7.25212C8.90604 7.16105 8.77093 7.02988 8.67513 6.8713C8.57933 6.71272 8.52609 6.5321 8.52055 6.34691C8.51501 6.16173 8.55737 5.97824 8.64352 5.81422C8.83744 5.43735 9.06247 5.07731 9.31626 4.73785C9.48897 4.51018 9.74505 4.36045 10.0282 4.32159C10.3113 4.28273 10.5982 4.35793 10.8259 4.53064C11.0535 4.70335 11.2033 4.95943 11.2421 5.24254C11.281 5.52565 11.2058 5.8126 11.0331 6.04026C10.8511 6.27948 10.6891 6.53329 10.5487 6.79911C10.4604 6.97681 10.3247 7.12666 10.1566 7.23208C9.98851 7.3375 9.79453 7.3944 9.59612 7.3965V7.39112ZM14.133 2.8488C13.9138 2.84864 13.6998 2.78152 13.5197 2.65643C13.3396 2.53133 13.2021 2.35422 13.1254 2.14879C13.0487 1.94337 13.0366 1.71943 13.0907 1.50693C13.1448 1.29444 13.2625 1.10354 13.428 0.959759L13.8317 0.604554C14.0486 0.440427 14.3197 0.36454 14.5903 0.392157C14.861 0.419774 15.1111 0.548845 15.2904 0.753411C15.4698 0.957976 15.565 1.22286 15.557 1.49479C15.5489 1.76671 15.4382 2.02551 15.2471 2.21912L14.8435 2.57433C14.6496 2.75325 14.3968 2.85475 14.133 2.85957V2.8488ZM29.2454 39.817C28.9599 39.817 28.6861 39.7036 28.4843 39.5017C28.2824 39.2999 28.169 39.0261 28.169 38.7406C28.1678 38.5275 28.2299 38.3188 28.3474 38.1409C28.4649 37.9631 28.6325 37.8242 28.8291 37.7417C29.0257 37.6593 29.2423 37.6371 29.4515 37.6779C29.6607 37.7187 29.8531 37.8207 30.0042 37.971C30.1576 38.1209 30.2626 38.3133 30.3059 38.5233C30.3493 38.7333 30.3288 38.9515 30.2473 39.1499C30.1657 39.3482 30.0268 39.5177 29.8483 39.6366C29.6698 39.7554 29.4599 39.8183 29.2454 39.817ZM26.5545 37.1637C26.2702 37.164 25.9974 37.0517 25.7956 36.8516L23.9335 35.0056C23.772 34.8441 23.6106 34.6665 23.4599 34.4674C23.3686 34.3593 23.2996 34.2343 23.2567 34.0995C23.2138 33.9647 23.1978 33.8227 23.2098 33.6818C23.2218 33.5408 23.2615 33.4036 23.3266 33.278C23.3916 33.1524 23.4808 33.0408 23.589 32.9497C23.8111 32.7745 24.0916 32.6904 24.3734 32.7144C24.6552 32.7384 24.9174 32.8687 25.1067 33.0789C25.2144 33.208 25.3328 33.3372 25.4512 33.4556L27.3133 35.3016C27.4724 35.4505 27.5826 35.6442 27.6293 35.8571C27.676 36.07 27.657 36.292 27.5747 36.4938C27.4925 36.6956 27.3509 36.8677 27.1687 36.9874C26.9865 37.107 26.7723 37.1685 26.5545 37.1637ZM22.7387 30.9315C22.5973 30.9347 22.4567 30.91 22.3249 30.8588C22.1931 30.8077 22.0727 30.7311 21.9705 30.6334C21.7641 30.436 21.6445 30.1648 21.6381 29.8793C21.6317 29.5939 21.7389 29.3175 21.9362 29.1111C22.1336 28.9047 22.4048 28.7852 22.6903 28.7787C22.9757 28.7652 23.2549 28.8656 23.4663 29.0579C23.6778 29.2501 23.8042 29.5185 23.8178 29.804C23.8313 30.0895 23.7309 30.3686 23.5387 30.5801C23.3464 30.7915 23.078 30.9179 22.7925 30.9315H22.7387ZM23.6052 27.3203C23.4159 27.322 23.2297 27.2718 23.067 27.1749C22.8208 27.0329 22.6407 26.7993 22.5661 26.5251C22.4915 26.2508 22.5284 25.9582 22.6687 25.7111C23.1001 24.9489 23.661 24.2677 24.3264 23.6982C24.5333 23.5201 24.7275 23.3277 24.9076 23.1224C25.0984 22.9131 25.3624 22.7851 25.6449 22.7651C25.9274 22.7451 26.2069 22.8344 26.4253 23.0147C26.6407 23.2018 26.773 23.4667 26.7932 23.7513C26.8134 24.0359 26.7198 24.3168 26.5329 24.5324C26.2849 24.8166 26.0169 25.0828 25.731 25.329C25.254 25.7408 24.8501 26.2302 24.5362 26.7767C24.4425 26.9412 24.3071 27.078 24.1437 27.1734C23.9802 27.2689 23.7945 27.3195 23.6052 27.3203ZM27.3241 20.9858H27.2595C27.118 20.9775 26.9796 20.9414 26.8522 20.8795C26.7247 20.8176 26.6108 20.7312 26.5168 20.6252C26.3289 20.4103 26.234 20.1296 26.2531 19.8448C26.2657 19.6349 26.3395 19.4333 26.4654 19.2649C26.5913 19.0965 26.7638 18.9686 26.9616 18.8971C27.1593 18.8256 27.3737 18.8136 27.5782 18.8626C27.7827 18.9116 27.9684 19.0194 28.1123 19.1727C28.2562 19.326 28.3521 19.5182 28.388 19.7253C28.424 19.9325 28.3985 20.1457 28.3146 20.3386C28.2308 20.5314 28.0923 20.6955 27.9163 20.8105C27.7402 20.9255 27.5343 20.9864 27.3241 20.9858ZM26.5168 17.3584C26.3253 17.361 26.1366 17.3126 25.9701 17.218C25.8036 17.1234 25.6653 16.986 25.5696 16.8202C25.3116 16.351 24.9851 15.9229 24.6008 15.5501L23.9604 14.9204L23.6267 14.5706C23.4366 14.3584 23.3383 14.0795 23.3534 13.795C23.3686 13.5105 23.4959 13.2437 23.7074 13.0529C23.9234 12.8689 24.2017 12.7747 24.4851 12.7897C24.7684 12.8047 25.0352 12.9278 25.2305 13.1336L25.4673 13.3812L26.1078 14.0108C26.6414 14.5313 27.0948 15.128 27.4532 15.7815C27.5218 15.9052 27.5654 16.0411 27.5815 16.1816C27.5975 16.3222 27.5857 16.4645 27.5467 16.6004C27.5077 16.7364 27.4423 16.8633 27.3542 16.974C27.2662 17.0846 27.1572 17.1768 27.0334 17.2454C26.8733 17.3254 26.6957 17.3643 26.5168 17.3584ZM22.7495 11.0293C22.4825 11.0307 22.2246 10.933 22.0257 10.755C21.8268 10.577 21.7011 10.3314 21.6731 10.0659C21.6511 9.7826 21.742 9.50208 21.926 9.28554C22.1105 9.06794 22.3737 8.93245 22.658 8.90881C22.8004 8.895 22.9442 8.90965 23.081 8.95191C23.2178 8.99416 23.3448 9.06318 23.4546 9.15495C23.5645 9.24673 23.655 9.35942 23.7209 9.48648C23.7869 9.61355 23.8269 9.75245 23.8386 9.89511C23.8504 10.0378 23.8337 10.1813 23.7895 10.3175C23.7453 10.4536 23.6745 10.5797 23.5811 10.6882C23.4878 10.7967 23.3738 10.8856 23.2458 10.9497C23.1178 11.0138 22.9784 11.0518 22.8356 11.0616H22.7495V11.0293ZM23.4922 7.38574C23.3159 7.38651 23.1422 7.344 22.9863 7.26195C22.7346 7.12822 22.5463 6.90014 22.4625 6.62774C22.3788 6.35534 22.4065 6.06085 22.5396 5.80884C22.9823 4.96916 23.5772 4.2191 24.2941 3.59688L24.8861 3.0587C25.1045 2.8784 25.3839 2.78901 25.6664 2.80905C25.949 2.82909 26.213 2.95701 26.4038 3.16633C26.5913 3.38124 26.6858 3.66178 26.6666 3.94634C26.6475 4.2309 26.5161 4.49621 26.3015 4.68403L25.7095 5.22222C25.1899 5.67591 24.7608 6.22371 24.4448 6.83678C24.3504 7.00464 24.2128 7.14412 24.0461 7.24068C23.8795 7.33723 23.6901 7.38733 23.4975 7.38574H23.4922ZM28.8418 2.14377C28.6876 2.14368 28.5353 2.11047 28.3951 2.04641C28.2549 1.98234 28.1301 1.8889 28.0291 1.77242C27.8412 1.55756 27.7463 1.27685 27.7654 0.99205C27.7757 0.85076 27.8138 0.7129 27.8776 0.586374C27.9413 0.459848 28.0294 0.347146 28.1367 0.254731C28.3545 0.0737713 28.6335 -0.0165365 28.916 0.00249751C29.1985 0.0215315 29.4629 0.14845 29.6544 0.356987C29.7909 0.51239 29.8798 0.703841 29.9103 0.908428C29.9409 1.11301 29.9119 1.32207 29.8267 1.51058C29.7415 1.69909 29.6038 1.85906 29.4301 1.97136C29.2564 2.08365 29.054 2.14351 28.8471 2.14377H28.8418Z" fill="#ABBF63"/>
<path id="Vector_2" d="M31.5812 33.0951C31.0908 32.608 30.7063 32.0248 30.4519 31.3821C30.1975 30.7393 30.0787 30.051 30.103 29.3602C30.1272 28.6693 30.294 27.991 30.5929 27.3677C30.8917 26.7444 31.3161 26.1896 31.8396 25.7381C32.7039 24.9943 33.4045 24.0792 33.897 23.0506C34.3895 22.0221 34.6631 20.9025 34.7005 19.7628C34.738 18.6231 34.5384 17.488 34.1145 16.4293C33.6906 15.3707 33.0515 14.4116 32.2378 13.6127L31.5974 12.983C31.1046 12.4984 30.7173 11.9173 30.4598 11.276C30.2022 10.6347 30.08 9.94704 30.1007 9.25627C30.1214 8.56549 30.2846 7.88644 30.5802 7.26173C30.8757 6.63701 31.2971 6.08011 31.818 5.62594L38.2332 0.0449219H33.3142L29.6976 3.19333C28.8406 3.94006 28.1474 4.8559 27.6613 5.88335C27.1752 6.91079 26.9068 8.02764 26.8729 9.16376C26.8391 10.2999 27.0405 11.4307 27.4645 12.4853C27.8886 13.5399 28.526 14.4954 29.337 15.2918L29.9774 15.9215C30.4722 16.4073 30.8608 16.9905 31.1185 17.6343C31.3763 18.278 31.4976 18.9682 31.4748 19.6613C31.4521 20.3543 31.2857 21.0351 30.9863 21.6605C30.6868 22.2859 30.2608 22.8424 29.7352 23.2947C28.8733 24.0364 28.1742 24.9485 27.682 25.9736C27.1898 26.9986 26.915 28.1145 26.8751 29.2509C26.8352 30.3873 27.0309 31.5197 27.4499 32.5768C27.869 33.6339 28.5023 34.5928 29.3101 35.3932L33.9546 40.0001H38.5239L31.5812 33.0951ZM4.70406 29.3601C4.72528 28.6685 4.8909 27.989 5.19027 27.3653C5.48964 26.7415 5.91615 26.1872 6.44241 25.7381C7.3051 24.9943 8.00422 24.0798 8.49564 23.0523C8.98706 22.0247 9.26011 20.9065 9.29753 19.7681C9.33495 18.6297 9.13595 17.4959 8.71308 16.4383C8.2902 15.3807 7.65265 14.4222 6.84067 13.6234L6.20022 12.9938C5.70748 12.5092 5.32018 11.928 5.06263 11.2867C4.80508 10.6454 4.68283 9.95781 4.70354 9.26703C4.72426 8.57625 4.8875 7.89721 5.18303 7.27249C5.47855 6.64778 5.89998 6.09087 6.42088 5.63671L12.8361 0.0556856H7.91705L4.30042 3.20409C3.44677 3.95147 2.75655 4.86698 2.27297 5.89335C1.78938 6.91972 1.52283 8.03485 1.48999 9.16896C1.45716 10.3031 1.65874 11.4318 2.08213 12.4844C2.50553 13.537 3.14161 14.4909 3.95059 15.2864L4.59104 15.9161C5.08582 16.4019 5.47439 16.9851 5.73214 17.6289C5.9899 18.2726 6.11123 18.9628 6.08847 19.6559C6.0657 20.3489 5.89934 21.0297 5.59989 21.6551C5.30045 22.2805 4.87445 22.837 4.34885 23.2893C3.48692 24.031 2.78785 24.9431 2.29562 25.9682C1.80339 26.9932 1.52866 28.1091 1.48873 29.2455C1.44879 30.3819 1.64451 31.5143 2.06357 32.5714C2.48262 33.6285 3.11595 34.5874 3.92368 35.3878L8.55749 39.9947H13.0998L6.15179 33.1059C5.66277 32.6169 5.28137 32.031 5.03206 31.386C4.78274 30.7409 4.67102 30.0509 4.70406 29.3601Z" fill="#ABBF63"/>
</g>
<defs>
<clipPath id="clip0_6520_25819">
<rect width="40" height="40" fill="white"/>
</clipPath>
</defs>
</svg>
