<svg width="32" height="32" viewBox="0 0 32 32" fill="none" xmlns="http://www.w3.org/2000/svg">
<g id="cholera">
<path id="Vector" fill-rule="evenodd" clip-rule="evenodd" d="M16.0001 3.99996H6.66675V2.66663H16.0001C19.6819 2.66663 22.6667 5.65139 22.6667 9.33329V9.99996H17.3334V8.66663C17.3334 8.29843 17.0349 7.99996 16.6667 7.99996H6.66675V6.66663H16.6667C17.7713 6.66663 18.6667 7.56203 18.6667 8.66663H21.2921C20.9641 6.03575 18.7198 3.99996 16.0001 3.99996Z" fill="#252A31"/>
<path id="Vector_2" fill-rule="evenodd" clip-rule="evenodd" d="M16 8.66663H24V12.6666H16V8.66663ZM17.3333 9.99996V11.3333H22.6667V9.99996H17.3333Z" fill="#252A31"/>
<path id="Vector_3" fill-rule="evenodd" clip-rule="evenodd" d="M20.0001 28C22.154 28 24.0001 26.1571 24.0001 23.7576C24.0001 21.7549 22.8793 19.6047 21.5892 17.8345C21.0223 17.0567 20.4534 16.3935 20.0001 15.9006C19.5467 16.3935 18.9778 17.0567 18.4109 17.8345C17.1209 19.6047 16.0001 21.7549 16.0001 23.7576C16.0001 26.1571 17.8461 28 20.0001 28ZM20.0001 29.3333C22.9456 29.3333 25.3334 26.837 25.3334 23.7576C25.3334 18.8788 20.0001 14 20.0001 14C20.0001 14 14.6667 18.8788 14.6667 23.7576C14.6667 26.837 17.0545 29.3333 20.0001 29.3333Z" fill="#252A31"/>
<path id="Vector_4" fill-rule="evenodd" clip-rule="evenodd" d="M18.0198 22.345C17.6517 22.3494 17.3497 22.0544 17.3453 21.6863C17.3345 20.7659 18.0718 20.0109 18.9922 20C19.3603 19.9957 19.6623 20.2906 19.6667 20.6588C19.6711 21.027 19.3761 21.329 19.0079 21.3333C18.8239 21.3355 18.6764 21.4864 18.6786 21.6706C18.6829 22.0387 18.388 22.3407 18.0198 22.345Z" fill="#252A31"/>
<path id="Vector_5" fill-rule="evenodd" clip-rule="evenodd" d="M20.6667 21.3333C20.6667 20.9651 20.9652 20.6666 21.3334 20.6666C22.2539 20.6666 23.0001 21.4128 23.0001 22.3333C23.0001 22.7015 22.7016 23 22.3334 23C21.9652 23 21.6667 22.7015 21.6667 22.3333C21.6667 22.1492 21.5175 22 21.3334 22C20.9652 22 20.6667 21.7015 20.6667 21.3333Z" fill="#252A31"/>
<path id="Vector_6" fill-rule="evenodd" clip-rule="evenodd" d="M19.8422 25.5005C19.9211 25.8601 19.6936 26.2156 19.3339 26.2945C18.4348 26.4919 17.546 25.9231 17.3486 25.024C17.2697 24.6644 17.4972 24.3089 17.8569 24.2299C18.2165 24.1509 18.5721 24.3785 18.651 24.7381C18.6905 24.9179 18.8683 25.0317 19.0481 24.9922C19.4077 24.9133 19.7632 25.1408 19.8422 25.5005Z" fill="#252A31"/>
<path id="Vector_7" d="M22.6666 25.3333C22.6666 25.7015 22.3681 26 21.9999 26C21.6317 26 21.3333 25.7015 21.3333 25.3333C21.3333 24.9651 21.6317 24.6666 21.9999 24.6666C22.3681 24.6666 22.6666 24.9651 22.6666 25.3333Z" fill="#252A31"/>
<path id="Vector_8" d="M20.6666 18.6667C20.6666 19.0349 20.3681 19.3333 19.9999 19.3333C19.6317 19.3333 19.3333 19.0349 19.3333 18.6667C19.3333 18.2985 19.6317 18 19.9999 18C20.3681 18 20.6666 18.2985 20.6666 18.6667Z" fill="#252A31"/>
<path id="Vector_9" d="M20.6666 23.3333C20.6666 23.7015 20.3681 24 19.9999 24C19.6317 24 19.3333 23.7015 19.3333 23.3333C19.3333 22.9651 19.6317 22.6666 19.9999 22.6666C20.3681 22.6666 20.6666 22.9651 20.6666 23.3333Z" fill="#252A31"/>
</g>
</svg>
