<svg width="40" height="40" viewBox="0 0 40 40" fill="none" xmlns="http://www.w3.org/2000/svg">
<g id="taste 1">
<path id="Vector" d="M30.3704 5.92578V19.5764C30.3704 24.3106 25.7275 28.1482 20 28.1482C14.2726 28.1482 9.62964 24.3106 9.62964 19.5767V5.92605" fill="#FFC0D6"/>
<path id="Vector_2" d="M30.3705 5.92578V19.5764C30.3705 24.3106 25.8073 28.1482 20.1785 28.1482C16.739 28.1482 13.6977 26.7154 11.8518 24.5207C13.1454 25.0204 14.5849 25.2991 16.1017 25.2991C21.6593 25.2991 26.1779 21.558 26.2915 16.9071L26.2937 16.7276L26.2931 5.92578H30.3705Z" fill="#FCACC8"/>
<path id="Vector_3" d="M10.7407 5.92578V19.5764C10.7407 23.645 14.8444 27.037 19.9999 27.037C25.0748 27.037 29.1306 23.7503 29.2562 19.7668L29.2591 19.5767V5.92605H31.4815V19.5767C31.4815 24.9759 26.2991 29.2594 19.9999 29.2594C13.7847 29.2594 8.65669 25.0893 8.52122 19.7919L8.51855 19.5767V5.92605H10.7407V5.92578Z" fill="#7B7BA3"/>
<path id="Vector_4" d="M35.5556 4.4446C35.8407 4.445 36.1148 4.555 36.3211 4.75184C36.5274 4.94869 36.6502 5.21731 36.6639 5.50214C36.6777 5.78696 36.5815 6.06617 36.3951 6.282C36.2088 6.49784 35.9466 6.63377 35.6628 6.66167L35.5556 6.66674H4.44463C4.15948 6.66634 3.88539 6.55634 3.67908 6.3595C3.47277 6.16265 3.35003 5.89402 3.33626 5.6092C3.32249 5.32438 3.41874 5.04517 3.60509 4.82934C3.79145 4.6135 4.05365 4.47757 4.33743 4.44967L4.44463 4.44434H35.5556V4.4446Z" fill="#7B7BA3"/>
<path id="Vector_5" d="M20.0001 5.18506C20.2763 5.18504 20.5426 5.28789 20.7471 5.47355C20.9516 5.65922 21.0797 5.9144 21.1062 6.18933L21.1113 6.29626V16.7141C21.1116 16.9997 21.0018 17.2745 20.8049 17.4813C20.6079 17.6882 20.3389 17.8112 20.0536 17.825C19.7684 17.8387 19.4888 17.7421 19.2728 17.5552C19.0569 17.3683 18.9212 17.1054 18.894 16.8211L18.8889 16.7141V6.29599C18.889 6.00133 19.0061 5.71876 19.2145 5.51043C19.4229 5.30209 19.7055 5.18506 20.0001 5.18506Z" fill="#7B7BA3"/>
<path id="Vector_6" d="M20 34.1333C22.5714 34.1333 24.8 32.9261 24.8 31.1333C24.8 30.581 24.304 30.1333 23.6922 30.1333C23.0805 30.1333 22.5845 30.581 22.5845 31.1333C22.5845 31.5496 21.5072 32.1333 20 32.1333C18.493 32.1333 17.4154 31.5496 17.4154 31.1333C17.4154 30.581 16.9194 30.1333 16.3077 30.1333C15.696 30.1333 15.2 30.581 15.2 31.1333C15.2 32.9261 17.4285 34.1333 20 34.1333Z" fill="#7B7BA3"/>
<path id="Vector_7" d="M19.9999 38.1333C23.9781 38.1333 27.7333 35.9919 27.7333 33.2445C27.7333 32.7045 27.2386 32.2666 26.6285 32.2666C26.0543 32.2666 25.5823 32.6543 25.5287 33.1503L25.5237 33.2445C25.5237 34.6861 22.9077 36.1778 19.9999 36.1778C17.1567 36.1778 14.5925 34.7514 14.4799 33.3405L14.4762 33.2445C14.4762 32.7045 13.9815 32.2666 13.3714 32.2666C12.7613 32.2666 12.2666 32.7045 12.2666 33.2445C12.2666 35.9917 16.0218 38.1333 19.9999 38.1333Z" fill="#7B7BA3"/>
</g>
</svg>
