<svg width="25" height="24" viewBox="0 0 25 24" fill="none" xmlns="http://www.w3.org/2000/svg">
<g id="tips 1">
<path id="Vector" d="M12.5 1.50003C11.5148 1.4971 10.5388 1.68998 9.62882 2.06749C8.7188 2.44499 7.89287 2.99958 7.19903 3.69903C6.49958 4.39287 5.94499 5.2188 5.56749 6.12882C5.18998 7.03885 4.9971 8.01482 5.00003 9.00003C5.00003 11.0625 5.83103 12.945 7.19753 14.298C7.66103 14.7735 8.18603 15.168 8.75003 15.4935V18C8.75003 18.3979 8.90807 18.7794 9.18937 19.0607C9.47068 19.342 9.85221 19.5 10.25 19.5H14.75C15.1479 19.5 15.5294 19.342 15.8107 19.0607C16.092 18.7794 16.25 18.3979 16.25 18V15.4935C16.814 15.1695 17.339 14.7735 17.8025 14.298C18.5014 13.6044 19.0555 12.7789 19.4327 11.8695C19.8099 10.96 20.0028 9.98464 20 9.00003C20 4.85103 16.649 1.50003 12.5 1.50003ZM8.26403 4.75653C8.81833 4.19745 9.47831 3.75423 10.2056 3.45267C10.9328 3.15112 11.7128 2.99725 12.5 3.00003C15.821 3.00003 18.5 5.67903 18.5 9.00003C18.5029 9.78732 18.3491 10.5673 18.0475 11.2946C17.7459 12.0218 17.3027 12.6818 16.7435 13.236L16.7315 13.248C16.2762 13.7087 15.7462 14.089 15.164 14.373L14.75 14.5815V18H10.25V14.5815L9.83603 14.3745C9.25377 14.0901 8.7238 13.7092 8.26853 13.248L8.25653 13.236C7.69745 12.6817 7.25423 12.0218 6.95267 11.2945C6.65112 10.5673 6.49725 9.78731 6.50003 9.00003C6.50003 7.34403 7.16753 5.84103 8.25653 4.76403L8.26403 4.75653ZM8.75003 21V22.5H16.25V21H8.75003Z" fill="black" fill-opacity="0.9"/>
</g>
</svg>
