<svg width="32" height="32" viewBox="0 0 32 32" fill="none" xmlns="http://www.w3.org/2000/svg">
<g id="treated_water">
<path id="Vector" fill-rule="evenodd" clip-rule="evenodd" d="M5.33325 24.1349C5.33325 25.3775 6.1831 26.4215 7.33325 26.7175V27.9999H8.66659V26.8016H19.3333V27.9999H20.6666V26.7175C21.8167 26.4215 22.6666 25.3775 22.6666 24.1349V22.0079H23.6705C24.0387 22.0079 24.3372 22.3064 24.3372 22.6746V23.8056H27.3333V23.0119C27.3333 21.0538 25.9263 19.4243 24.0683 19.0793H26.1349V17.7459H23.1388V19.0119H22.1875C22.0215 18.7859 21.8181 18.5891 21.5864 18.4307C21.1889 18.1589 20.7083 18 20.1904 18C20.1904 18 20.6459 17.5247 21.1662 16.7928C21.859 15.8182 22.6666 14.3885 22.6666 13.0197V3.76172H5.33325V13.0197C5.33325 14.3885 6.14085 15.8182 6.83365 16.7928C7.35392 17.5247 7.80945 18 7.80945 18C7.29159 18 6.81092 18.1589 6.41345 18.4307C5.76126 18.8767 5.33325 19.6265 5.33325 20.4762V24.1349ZM17.0655 19.3333L17.3333 19.054V17H15.9999V19.3333H14.6666V17H13.3333V19.3333H11.9999V17H10.6666V19.054L10.9343 19.3333H7.80945C7.17825 19.3333 6.66659 19.845 6.66659 20.4762V21.4596C6.80939 21.5424 6.95219 21.6159 7.09499 21.6799C8.51479 22.3165 9.93452 22.0264 11.3543 20.8095C13.2185 22.4074 15.0827 22.4074 16.9469 20.8095C18.3667 22.0269 19.7865 22.3164 21.2063 21.6797C21.2486 21.6607 21.2909 21.6409 21.3333 21.6203V20.4762C21.3333 19.845 20.8216 19.3333 20.1904 19.3333H17.0655ZM21.3333 13.0197C21.3333 13.8119 20.9005 14.7783 20.3206 15.6667H7.67925C7.09932 14.7783 6.66659 13.8119 6.66659 13.0197V11.1441C12.2304 12.2105 15.6763 12.2255 21.3333 11.0824V13.0197ZM21.3333 9.7216C15.6108 10.9003 12.3041 10.8863 6.66659 9.786V5.09505H21.3333V9.7216ZM19.8841 25.4682C20.6153 25.4622 21.2063 24.8676 21.2063 24.1349V23.1068C20.7351 23.2591 20.2472 23.3411 19.7435 23.3412C18.7468 23.3414 17.8117 23.0205 16.9469 22.4692C16.0821 23.0203 15.1472 23.3413 14.1507 23.3413C13.1541 23.3413 12.2191 23.0203 11.3543 22.4691C10.4896 23.0203 9.55459 23.3413 8.55799 23.3413C8.05425 23.3413 7.56619 23.2592 7.09499 23.1069V24.1349C7.09499 24.8676 7.68592 25.4622 8.41719 25.4682H19.8841Z" fill="#252A31"/>
<path id="Vector_2" d="M26.3333 28C26.8855 28 27.3333 27.4573 27.3333 26.7878C27.3333 25.7272 26.3333 24.6666 26.3333 24.6666C26.3333 24.6666 25.3333 25.7272 25.3333 26.7878C25.3333 27.4573 25.781 28 26.3333 28Z" fill="#252A31"/>
</g>
</svg>
