<svg width="32" height="32" viewBox="0 0 32 32" fill="none" xmlns="http://www.w3.org/2000/svg">
<g id="polygon">
<path id="Vector" fill-rule="evenodd" clip-rule="evenodd" d="M9.33341 26.6666C10.0698 26.6666 10.6667 26.0697 10.6667 25.3333C10.6667 24.5969 10.0698 24 9.33341 24C8.59701 24 8.00008 24.5969 8.00008 25.3333C8.00008 26.0697 8.59701 26.6666 9.33341 26.6666ZM9.33341 28C10.8061 28 12.0001 26.806 12.0001 25.3333C12.0001 23.8606 10.8061 22.6666 9.33341 22.6666C7.86068 22.6666 6.66675 23.8606 6.66675 25.3333C6.66675 26.806 7.86068 28 9.33341 28Z" fill="#252A31"/>
<path id="Vector_2" fill-rule="evenodd" clip-rule="evenodd" d="M6.66667 14.6666C7.40307 14.6666 8 14.0697 8 13.3333C8 12.5969 7.40307 12 6.66667 12C5.93029 12 5.33333 12.5969 5.33333 13.3333C5.33333 14.0697 5.93029 14.6666 6.66667 14.6666ZM6.66667 16C8.1394 16 9.33333 14.806 9.33333 13.3333C9.33333 11.8606 8.1394 10.6666 6.66667 10.6666C5.19391 10.6666 4 11.8606 4 13.3333C4 14.806 5.19391 16 6.66667 16Z" fill="#252A31"/>
<path id="Vector_3" fill-rule="evenodd" clip-rule="evenodd" d="M25.3334 14.6666C26.0698 14.6666 26.6667 14.0697 26.6667 13.3333C26.6667 12.5969 26.0698 12 25.3334 12C24.597 12 24.0001 12.5969 24.0001 13.3333C24.0001 14.0697 24.597 14.6666 25.3334 14.6666ZM25.3334 16C26.8061 16 28.0001 14.806 28.0001 13.3333C28.0001 11.8606 26.8061 10.6666 25.3334 10.6666C23.8607 10.6666 22.6667 11.8606 22.6667 13.3333C22.6667 14.806 23.8607 16 25.3334 16Z" fill="#252A31"/>
<path id="Vector_4" fill-rule="evenodd" clip-rule="evenodd" d="M22.6667 26.6666C23.4031 26.6666 24 26.0697 24 25.3333C24 24.5969 23.4031 24 22.6667 24C21.9303 24 21.3333 24.5969 21.3333 25.3333C21.3333 26.0697 21.9303 26.6666 22.6667 26.6666ZM22.6667 28C24.1394 28 25.3333 26.806 25.3333 25.3333C25.3333 23.8606 24.1394 22.6666 22.6667 22.6666C21.1939 22.6666 20 23.8606 20 25.3333C20 26.806 21.1939 28 22.6667 28Z" fill="#252A31"/>
<path id="Vector_5" fill-rule="evenodd" clip-rule="evenodd" d="M15.9999 8C16.7363 8 17.3333 7.40307 17.3333 6.66667C17.3333 5.93029 16.7363 5.33333 15.9999 5.33333C15.2635 5.33333 14.6666 5.93029 14.6666 6.66667C14.6666 7.40307 15.2635 8 15.9999 8ZM15.9999 9.33333C17.4727 9.33333 18.6666 8.1394 18.6666 6.66667C18.6666 5.19391 17.4727 4 15.9999 4C14.5272 4 13.3333 5.19391 13.3333 6.66667C13.3333 8.1394 14.5272 9.33333 15.9999 9.33333Z" fill="#252A31"/>
<path id="Vector_6" fill-rule="evenodd" clip-rule="evenodd" d="M23.2791 12.6853L17.2791 8.39957L18.0541 7.31458L24.0541 11.6003L23.2791 12.6853ZM14.5229 8.54091L8.72072 12.6853L7.94572 11.6003L13.7479 7.45591L14.5229 8.54091ZM7.76179 15.1886L9.53958 23.1886L8.23798 23.4779L6.46021 15.4779L7.76179 15.1886ZM22.4602 23.1886L24.1639 15.522L25.4655 15.8112L23.7618 23.4779L22.4602 23.1886ZM11.3333 24.6666H20.6666V25.9999H11.3333V24.6666Z" fill="#252A31"/>
</g>
</svg>
