<svg width="28" height="29" viewBox="0 0 28 29" fill="none" xmlns="http://www.w3.org/2000/svg">
<g id="wcwh-01 1">
<path id="Vector" d="M17.25 7.75287C16.6667 7.67624 16.125 7.59962 15.625 7.59962C15.3542 7.59962 15.125 7.61877 14.9167 7.67625L14.7917 4.68774V4.18966C15.0208 4.09387 15.2917 4.05556 15.6458 4.05556C16.1042 4.05556 16.625 4.13218 17.1667 4.18966C17.6458 4.24713 18.1458 4.32375 18.6458 4.34291L18.7917 7.90613C18.2917 7.88697 17.7708 7.81034 17.25 7.75287ZM11.7083 7.75287C11.2083 7.8295 10.6667 7.90613 10.1458 7.92529L10.2917 4.36207C10.7917 4.32375 11.2917 4.26628 11.7708 4.20881C12.3125 4.13218 12.8333 4.07471 13.2917 4.07471C13.6458 4.07471 13.9167 4.11303 14.1458 4.20881V4.7069L14.0208 7.6954C13.8125 7.65709 13.5833 7.61877 13.3125 7.61877C12.8333 7.58046 12.2917 7.65709 11.7083 7.75287ZM19.9583 5.64559V4.9751H19.5V3.82567H19.1875C18.5417 3.82567 17.8958 3.72989 17.2708 3.65326C16.7083 3.57663 16.1667 3.5 15.6667 3.5C15.1667 3.5 14.8125 3.57663 14.4792 3.71073C14.1667 3.57663 13.7708 3.5 13.2917 3.5C12.8125 3.5 12.25 3.57663 11.6875 3.65326C11.0625 3.72989 10.4167 3.82567 9.77083 3.82567H9.45833V4.9751H9V5.64559H9.45833V6.56513H9V7.23563H9.45833V8.5H9.77083C10.4583 8.5 11.1458 8.40421 11.8125 8.30843C12.375 8.2318 12.8958 8.15517 13.3542 8.15517C13.7083 8.15517 13.9792 8.21264 14.2083 8.30843H14.7917C15 8.21264 15.2708 8.15517 15.6458 8.15517C16.1042 8.15517 16.625 8.2318 17.1875 8.30843C17.8542 8.40421 18.5208 8.5 19.2292 8.5H19.5417V7.23563H20V6.56513H19.5417V5.64559H19.9583Z" fill="#BF5700"/>
<path id="Vector_2" d="M11 4.5C10.9787 4.5 10.9362 4.5 10.9149 4.53226C10.617 4.59677 10.3191 4.66129 10.0213 4.72581L10 5.5C10.3404 5.43548 10.6596 5.37097 10.9787 5.30645H11V4.5Z" fill="#BF5700"/>
<path id="Vector_3" d="M12 4.63685V5.5C12.3623 5.39211 12.6957 5.28421 12.9855 5.35614L13 4.52895C12.6957 4.45702 12.3478 4.52895 12 4.63685Z" fill="#BF5700"/>
<path id="Vector_4" d="M11 6.5C10.9804 6.5 10.9412 6.5 10.9216 6.53226C10.6275 6.59677 10.3137 6.66129 10.0196 6.72581L10 7.5C10.3333 7.43548 10.6667 7.37097 10.9804 7.27419H11V6.5Z" fill="#BF5700"/>
<path id="Vector_5" d="M12 6.65075V7.5C12.3538 7.39384 12.6923 7.28769 12.9846 7.32307L13 6.5092C12.6923 6.47382 12.3538 6.54459 12 6.65075Z" fill="#BF5700"/>
<path id="Vector_6" d="M11 5.71394V6.5H11.0674C11.7865 6.33624 12.4157 6.20523 12.9775 6.27073L13 5.51742C12.3708 5.45192 11.6966 5.58293 11 5.71394Z" fill="#BF5700"/>
<path id="Vector_7" d="M11 5.5C10.6786 5.53571 10.3571 5.57143 10.0357 5.64286L10 6.5C10.3214 6.46429 10.6786 6.42857 11 6.35714V5.5Z" fill="#BF5700"/>
<path id="Vector_8" d="M16 4.62434C15.6552 4.5482 15.3103 4.47205 15 4.51013L15.0172 5.38578C15.3103 5.34771 15.6379 5.38578 16 5.5V4.62434Z" fill="#BF5700"/>
<path id="Vector_9" d="M17.9828 4.75C17.7414 4.6875 17.5 4.625 17.2586 4.5625C17.1724 4.53125 17.0862 4.53125 17 4.5V5.25C17.069 5.28125 17.1379 5.28125 17.2069 5.3125C17.4655 5.375 17.7414 5.46875 18 5.5L17.9828 4.75Z" fill="#BF5700"/>
<path id="Vector_10" d="M15.9808 5.59421C15.6346 5.51545 15.3077 5.47607 15 5.51545L15.0192 6.42124C15.3077 6.38185 15.6346 6.42124 16 6.5L15.9808 5.59421Z" fill="#BF5700"/>
<path id="Vector_11" d="M17.9846 5.78125C17.7538 5.71875 17.5231 5.65625 17.3077 5.59375C17.2 5.5625 17.1077 5.53125 17 5.5V6.25C17.0769 6.28125 17.1692 6.3125 17.2615 6.3125C17.5077 6.375 17.7538 6.46875 18 6.5L17.9846 5.78125Z" fill="#BF5700"/>
<path id="Vector_12" d="M17 7.26667C17.3265 7.33333 17.6531 7.43333 18 7.5L17.9796 6.7C17.6531 6.63333 17.3469 6.56667 17.0408 6.5H17V7.26667Z" fill="#BF5700"/>
<path id="Vector_13" d="M17 6.68429C16.2836 6.57789 15.6269 6.47149 15 6.50696L15.0299 7.32267C15.6269 7.2872 16.2836 7.35814 17 7.5V6.68429Z" fill="#BF5700"/>
<path id="Vector_14" d="M13.8742 14.1048L14.5149 12.6205L15.1557 14.1048L16.8711 14.2205L15.5484 15.2422L15.9617 16.7843L14.5149 15.9361L13.0681 16.7843L13.4815 15.2422L12.1587 14.2205L13.8742 14.1048ZM10.0092 13.5651L12.7581 15.4349L11.704 18.4807V18.5H11.7247L14.4943 16.6108L17.2638 18.5H17.2845C17.2845 18.5 17.3052 18.4807 17.2845 18.4807L16.2304 15.4542L18.9793 13.5843C19 13.5843 19 13.5651 19 13.5651C19 13.5458 18.9793 13.5458 18.9793 13.5458H15.5897L14.5356 10.5193C14.5356 10.5064 14.5287 10.5 14.5149 10.5C14.4943 10.5 14.4943 10.5193 14.4943 10.5193L13.4402 13.5458H10.0299C10.0161 13.5458 10.0092 13.5522 10.0092 13.5651Z" fill="#BF5700"/>
<path id="Vector_15" d="M21.249 17.7324C20.9868 17.9809 20.6372 18.1721 20.2658 18.2485C20.3095 17.9044 20.4843 17.5985 20.7465 17.35C21.0087 17.1015 21.3582 16.9103 21.7297 16.8338C21.686 17.1588 21.5112 17.4647 21.249 17.7324ZM19.8507 15.7441C19.807 15.4 19.8725 15.0559 20.0473 14.75C20.3095 14.9985 20.4624 15.3235 20.528 15.6676C20.5717 16.0118 20.5061 16.3559 20.3314 16.6426C20.0692 16.3941 19.8944 16.0691 19.8507 15.7441ZM20.6154 13.1632C20.5498 12.8191 20.5935 12.475 20.7465 12.1691C21.0305 12.4176 21.2053 12.7235 21.2709 13.0485C21.3364 13.3926 21.2927 13.7368 21.1398 14.0426C20.8776 13.7941 20.7028 13.4882 20.6154 13.1632ZM22.4944 13.9088C22.5162 14.2529 22.4288 14.5971 22.2322 14.8838C22.0356 15.1706 21.7515 15.4191 21.4019 15.5529C21.3801 15.2088 21.4675 14.8838 21.6641 14.5779C21.8389 14.2912 22.1448 14.0618 22.4944 13.9088ZM19.6322 20.3132C19.3263 20.5235 18.933 20.6191 18.5616 20.6382C18.6927 20.3132 18.933 20.0456 19.2389 19.8353C19.5666 19.625 19.9381 19.5294 20.3095 19.5103C20.1784 19.8353 19.9381 20.1221 19.6322 20.3132ZM18.7145 18.1338C18.7364 17.7897 18.8893 17.4647 19.1297 17.1971C19.3263 17.4838 19.4137 17.8279 19.37 18.1721C19.3482 18.5162 19.1952 18.8412 18.9549 19.1088C18.7801 18.8029 18.6927 18.4779 18.7145 18.1338ZM17.7095 20.4279C17.6002 20.7529 17.3818 21.0397 17.0759 21.2691C16.9666 20.9441 16.9448 20.6 17.054 20.275C17.1633 19.95 17.3818 19.6632 17.6876 19.4338C17.7969 19.7397 17.8187 20.1029 17.7095 20.4279ZM18.2994 21.9191C18.1028 22.2059 17.7969 22.4353 17.4473 22.5691C17.207 22.6647 16.9448 22.7221 16.6607 22.7221C16.5515 22.7221 16.4204 22.7221 16.3112 22.7029C16.5078 22.4162 16.8137 22.1868 17.1633 22.0529C17.5128 21.9 17.9061 21.8618 18.2994 21.9191ZM14.9347 22.0529C15.1313 21.7471 15.4154 21.4985 15.7431 21.3456C15.7868 21.6897 15.6994 22.0147 15.5246 22.3206C15.3498 22.6265 15.0658 22.875 14.7162 23.0279C14.6725 22.6838 14.738 22.3397 14.9347 22.0529ZM10.5649 22.5691C10.2153 22.4353 9.90944 22.2059 9.7128 21.9191C10.0842 21.8618 10.4775 21.9 10.8489 22.0338C11.1985 22.1676 11.5044 22.3971 11.701 22.6838C11.3296 22.7603 10.9363 22.7029 10.5649 22.5691ZM10.3027 20.4279C10.1935 20.1029 10.1935 19.7588 10.3246 19.4338C10.6305 19.6441 10.8489 19.9309 10.9582 20.275C11.0674 20.6 11.0674 20.9441 10.9363 21.2691C10.6305 21.0397 10.412 20.7529 10.3027 20.4279ZM12.2691 21.3456C12.6187 21.4985 12.9027 21.7471 13.0775 22.0529C13.2523 22.3588 13.3397 22.7029 13.296 23.0279C12.9464 22.875 12.6624 22.6265 12.4876 22.3206C12.291 22.0147 12.2254 21.6897 12.2691 21.3456ZM8.38002 20.3132C8.05229 20.1029 7.8338 19.8353 7.7027 19.5103C8.09598 19.5103 8.46742 19.625 8.7733 19.8353C9.10103 20.0265 9.31952 20.3132 9.45061 20.6382C9.05733 20.6382 8.6859 20.5235 8.38002 20.3132ZM8.8607 17.1971C9.10103 17.4647 9.25397 17.7897 9.27582 18.1338C9.29767 18.4779 9.21028 18.8221 9.03549 19.1088C8.79515 18.8412 8.64221 18.5162 8.62036 18.1721C8.57666 17.8279 8.66406 17.4838 8.8607 17.1971ZM6.74135 17.7324C6.47917 17.4838 6.30438 17.1588 6.26068 16.8338C6.63211 16.9103 6.98169 17.0824 7.24388 17.35C7.50607 17.5985 7.68086 17.9235 7.72455 18.2485C7.35312 18.1529 7.00354 17.9809 6.74135 17.7324ZM6.61026 15.5721C6.26068 15.4191 5.97664 15.1897 5.78 14.9029C5.58336 14.5971 5.49597 14.2721 5.51782 13.9279C5.8674 14.0809 6.15144 14.3103 6.34808 14.5971C6.54472 14.8838 6.63211 15.2279 6.61026 15.5721ZM6.71951 13.0485C6.78505 12.7044 6.98169 12.3985 7.26573 12.1691C7.41867 12.475 7.46237 12.8191 7.39682 13.1632C7.33127 13.5074 7.13463 13.8132 6.8506 14.0426C6.69766 13.7368 6.63211 13.3926 6.71951 13.0485ZM7.48422 15.6676C7.52791 15.3235 7.7027 15.0176 7.96489 14.75C8.13968 15.0559 8.20523 15.4 8.16153 15.7441C8.11783 16.0882 7.94304 16.3941 7.68086 16.6618C7.50607 16.3368 7.44052 16.0118 7.48422 15.6676ZM21.249 16.0882C21.8389 15.9353 22.3633 15.5912 22.6692 15.1132C22.9751 14.6353 23.0843 14.0809 22.9314 13.5456L22.8658 13.3162L22.6036 13.3926C22.2977 13.4691 22.0137 13.6029 21.7734 13.775C21.8389 13.5074 21.8389 13.2397 21.7734 12.9721C21.6641 12.4368 21.3146 11.9588 20.812 11.6338L20.5935 11.5L20.4406 11.7103C20.1129 12.1691 19.9818 12.7235 20.1129 13.2588C20.2221 13.7941 20.5717 14.2721 21.0742 14.5971C20.9868 14.7882 20.9213 14.9794 20.8776 15.1706C20.7246 14.8074 20.4843 14.5015 20.1347 14.2529L19.9162 14.1L19.7633 14.2912C19.3918 14.7309 19.2389 15.2853 19.3263 15.8206C19.4137 16.3559 19.7196 16.8529 20.2003 17.1971H20.2221C20.0692 17.3691 19.9599 17.5412 19.8944 17.7515C19.8288 17.3691 19.654 17.025 19.3918 16.7191L19.2171 16.5279L19.0204 16.7C18.5616 17.0632 18.2776 17.5794 18.2339 18.1147C18.1902 18.65 18.365 19.2044 18.7582 19.625V19.6441C18.5834 19.7779 18.4305 19.95 18.2994 20.1221C18.3213 19.7397 18.2339 19.3574 18.0372 19.0132L17.9061 18.8029L17.6658 18.9176C17.1196 19.2044 16.7263 19.6441 16.5515 20.1603C16.3767 20.6765 16.4423 21.25 16.7044 21.7279V21.7471C16.4859 21.8426 16.3112 21.9765 16.1364 22.1294C16.2456 21.7662 16.2675 21.3647 16.1582 21.0015L16.0927 20.7721L15.8305 20.8485C15.2406 21.0206 14.738 21.3838 14.454 21.8618C14.17 22.3206 14.0826 22.8559 14.2355 23.3721C14.1481 23.4294 14.0826 23.4676 13.9952 23.525C13.9078 23.4676 13.8204 23.4294 13.7548 23.3721C13.8859 22.8559 13.8204 22.3206 13.5364 21.8618C13.2305 21.3838 12.7498 21.0206 12.1599 20.8485L11.8977 20.7721L11.8321 21.0015C11.7229 21.3838 11.7229 21.7662 11.854 22.1294C11.701 21.9765 11.5044 21.8426 11.2859 21.7471V21.7279C11.57 21.2309 11.6137 20.6765 11.4389 20.1603C11.2641 19.6441 10.8708 19.1853 10.3246 18.9176L10.0842 18.8029L9.95314 19.0132C9.7565 19.3574 9.6691 19.7397 9.69095 20.1221C9.55986 19.95 9.40692 19.7779 9.23213 19.6441V19.625C9.62541 19.2044 9.82205 18.65 9.7565 18.1147C9.7128 17.5603 9.42877 17.0632 8.96994 16.7L8.7733 16.5279L8.59851 16.7191C8.31447 17.025 8.13968 17.3882 8.09598 17.7515C8.00859 17.5603 7.89934 17.3691 7.76825 17.1971H7.7901C8.27078 16.8529 8.57666 16.3559 8.66406 15.8206C8.75145 15.2853 8.59851 14.7309 8.22708 14.2912L8.07414 14.1L7.85565 14.2529C7.50606 14.5015 7.26573 14.8265 7.11279 15.1706C7.09094 14.9794 7.02539 14.7882 6.91615 14.5971C7.41867 14.2721 7.76825 13.7941 7.8775 13.2588C7.98674 12.7235 7.8775 12.1691 7.54976 11.7103L7.39682 11.5L7.17833 11.6338C6.67581 11.9588 6.32623 12.4368 6.21698 12.9721C6.15144 13.2397 6.15144 13.5074 6.21698 13.775C5.97664 13.6029 5.69261 13.4691 5.38672 13.3926L5.12454 13.3162L5.05899 13.5456C4.9279 14.0809 5.01529 14.6353 5.32118 15.1132C5.62706 15.5912 6.12959 15.9353 6.74135 16.0882L6.98169 16.1456C7.00354 16.3176 7.04724 16.4897 7.13463 16.6426C6.8069 16.4515 6.41362 16.3368 6.02034 16.3176L5.73631 16.2985V16.5471C5.73631 17.1015 5.9548 17.6176 6.36992 18.0191C6.78505 18.4206 7.35312 18.6691 7.98674 18.7265L8.22708 18.7456C8.29262 18.9176 8.38002 19.0706 8.48926 19.2044C8.22708 19.1088 7.92119 19.0706 7.63716 19.0706C7.52791 19.0706 7.41867 19.0706 7.33127 19.0897L7.04724 19.1279L7.09094 19.3574C7.22203 19.8926 7.54976 20.3706 8.05229 20.6956C8.46742 20.9632 8.96994 21.0971 9.49431 21.0971C9.60356 21.0971 9.69095 21.0971 9.8002 21.0779L10.0405 21.0588C10.1498 21.2118 10.259 21.3456 10.412 21.4603C10.0187 21.4029 9.62541 21.4412 9.23213 21.5559L8.96994 21.6324L9.07918 21.8618C9.31952 22.3588 9.77835 22.7603 10.3464 22.9897C10.6523 23.1044 11.0019 23.1809 11.3515 23.1809C11.6355 23.1809 11.8977 23.1426 12.1599 23.0662L12.3565 23.0088C12.6842 23.2382 13.0338 23.4868 13.5364 23.7926C13.3179 23.9265 13.0557 24.0603 12.7716 24.2324L13.2523 24.5C13.5364 24.3471 13.7767 24.2132 13.9952 24.0794C14.2137 24.2132 14.454 24.3471 14.738 24.5L15.2187 24.2324C14.9347 24.0794 14.6943 23.9265 14.454 23.7926C14.9565 23.4868 15.3061 23.2574 15.6338 23.0088L15.8305 23.0662C16.0927 23.1426 16.3549 23.1809 16.6389 23.1809C16.9885 23.1809 17.3162 23.1235 17.6439 22.9897C18.212 22.7603 18.6708 22.3588 18.9112 21.8618L19.0204 21.6324L18.7582 21.5559C18.3868 21.4412 17.9717 21.4029 17.5784 21.4603C17.7095 21.3456 17.8406 21.1926 17.9498 21.0588L18.1902 21.0779C18.2994 21.0971 18.3868 21.0971 18.496 21.0971C19.0204 21.0971 19.5229 20.9632 19.9381 20.6956C20.4406 20.3706 20.7902 19.8926 20.8994 19.3574L20.9431 19.1279L20.6591 19.0897C20.5498 19.0706 20.4406 19.0706 20.3532 19.0706C20.0473 19.0706 19.7633 19.1088 19.5011 19.2044C19.6103 19.0515 19.6977 18.8985 19.7633 18.7456L20.0036 18.7265C20.6372 18.6882 21.2053 18.4397 21.6204 18.0191C22.0356 17.6176 22.2541 17.0824 22.2541 16.5471V16.2985L21.97 16.3176C21.5767 16.3368 21.1835 16.4515 20.8557 16.6426C20.9213 16.4706 20.965 16.3176 21.0087 16.1456L21.249 16.0882Z" fill="#BF5700"/>
<path id="Vector_16" d="M21.1618 21.0344C20.6472 21.7222 20.0468 22.3707 19.3392 22.9996C17.152 24.8469 14.6862 25.8689 13.9786 26.1243C13.2924 25.8689 10.8265 24.8469 8.61793 22.9996C7.91033 22.3707 7.30994 21.7419 6.79532 21.0344C4.30799 17.6935 3.98635 13.822 3.96491 10.7955L13.9571 10.2846L23.9493 10.7955C23.9922 13.822 23.6491 17.6935 21.1618 21.0344ZM4.54386 3.03288C6.40936 2.83636 10.5692 2.46296 14 2.46296C17.4308 2.46296 21.5906 2.83636 23.4561 3.03288L23.9708 9.73432H4.02924L4.54386 3.03288ZM25 2.24679L24.5497 2.18783C24.4854 2.18783 18.5887 1.5 14 1.5C9.41131 1.5 3.51462 2.16818 3.45029 2.18783L3 2.24679V9.73432V10.7759C3 13.9203 3.34308 18.0079 6.00195 21.565C6.55945 22.2921 7.18129 22.98 7.91033 23.6285L7.93177 23.6481C9.36842 24.9255 11.2768 26.1243 14 27.5C16.7232 26.1047 18.6316 24.9059 20.0682 23.6481L20.0897 23.6285C20.8402 22.9603 21.462 22.2921 21.9981 21.565C24.6569 18.0079 25 13.9203 25 10.7759V10.6187V2.24679Z" fill="#BF5700"/>
</g>
</svg>
