<svg width="20" height="20" viewBox="0 0 20 20" fill="none" xmlns="http://www.w3.org/2000/svg">
<g id="wcwh-01 1">
<path id="Vector" d="M12.236 5.35098C11.8409 5.29453 11.474 5.23809 11.1354 5.23809C10.9519 5.23809 10.7967 5.2522 10.6556 5.29453L10.5709 3.09316V2.72627C10.7261 2.65571 10.9096 2.62749 11.1495 2.62749C11.4599 2.62749 11.8127 2.68394 12.1796 2.72627C12.5042 2.7686 12.8428 2.82505 13.1815 2.83916L13.2803 5.46387C12.9416 5.44976 12.5888 5.39331 12.236 5.35098ZM8.48242 5.35098C8.14375 5.40742 7.77686 5.46387 7.42407 5.47798L7.52285 2.85327C7.86152 2.82505 8.2002 2.78272 8.52476 2.74038C8.89165 2.68394 9.24444 2.6416 9.55488 2.6416C9.79478 2.6416 9.97822 2.66982 10.1334 2.74038V3.10728L10.0488 5.30864C9.90767 5.28042 9.75244 5.2522 9.569 5.2522C9.24444 5.22398 8.87754 5.28042 8.48242 5.35098ZM14.0705 3.79873V3.30483H13.7601V2.45815H13.5484C13.1109 2.45815 12.6735 2.3876 12.2502 2.33115C11.8691 2.27471 11.5022 2.21826 11.1636 2.21826C10.8249 2.21826 10.585 2.27471 10.3592 2.37349C10.1476 2.27471 9.87945 2.21826 9.55488 2.21826C9.23032 2.21826 8.84932 2.27471 8.46831 2.33115C8.04497 2.3876 7.60752 2.45815 7.17007 2.45815H6.9584V3.30483H6.64795V3.79873H6.9584V4.47608H6.64795V4.96997H6.9584V5.90132H7.17007C7.63574 5.90132 8.10142 5.83076 8.55298 5.76021C8.93399 5.70376 9.28677 5.64732 9.59722 5.64732C9.83711 5.64732 10.0206 5.68965 10.1758 5.76021H10.5709C10.712 5.68965 10.8955 5.64732 11.1495 5.64732C11.4599 5.64732 11.8127 5.70376 12.1937 5.76021C12.6453 5.83076 13.0968 5.90132 13.5766 5.90132H13.7883V4.96997H14.0987V4.47608H13.7883V3.79873H14.0705Z" fill="white"/>
<path id="Vector_2" d="M8.53872 3.10742C8.52461 3.10742 8.49639 3.10742 8.48228 3.12153C8.28472 3.14976 8.08716 3.17798 7.8896 3.2062L7.87549 3.54487C8.10127 3.51665 8.31294 3.48843 8.52461 3.46021H8.53872V3.10742Z" fill="white"/>
<path id="Vector_3" d="M8.79297 3.06492V3.4036C9.14575 3.36126 9.47031 3.31893 9.75254 3.34715L9.76665 3.02259C9.47031 2.99437 9.13164 3.02259 8.79297 3.06492Z" fill="white"/>
<path id="Vector_4" d="M8.53901 4.63135C8.5249 4.63135 8.49668 4.63135 8.48257 4.64546C8.2709 4.67368 8.04512 4.7019 7.83345 4.73013L7.81934 5.0688C8.05923 5.04058 8.29912 5.01235 8.5249 4.97002H8.53901V4.63135Z" fill="white"/>
<path id="Vector_5" d="M8.79297 4.58892V4.9276C9.11753 4.88526 9.42798 4.84293 9.69609 4.85704L9.71021 4.53248C9.42798 4.51837 9.11753 4.54659 8.79297 4.58892Z" fill="white"/>
<path id="Vector_6" d="M8.49658 3.86927V4.20795H8.53892C8.99048 4.13739 9.3856 4.08094 9.73838 4.10917L9.75249 3.78461C9.35737 3.75638 8.93403 3.81283 8.49658 3.86927Z" fill="white"/>
<path id="Vector_7" d="M8.24229 3.91162C8.11528 3.92573 7.98828 3.93984 7.86128 3.96807L7.84717 4.30674C7.97417 4.29263 8.11528 4.27852 8.24229 4.25029V3.91162Z" fill="white"/>
<path id="Vector_8" d="M11.7843 3.05097C11.5021 3.02275 11.2198 2.99452 10.9658 3.00864L10.9799 3.3332C11.2198 3.31909 11.4879 3.3332 11.7843 3.37553V3.05097Z" fill="white"/>
<path id="Vector_9" d="M12.8429 3.19199C12.6454 3.16377 12.4478 3.13555 12.2502 3.10732C12.1797 3.09321 12.1091 3.09321 12.0386 3.0791V3.41777C12.095 3.43189 12.1515 3.43189 12.2079 3.446C12.4196 3.47422 12.6454 3.51655 12.857 3.53066L12.8429 3.19199Z" fill="white"/>
<path id="Vector_10" d="M11.7138 3.79865C11.4598 3.77043 11.2199 3.75632 10.9941 3.77043L11.0083 4.09499C11.2199 4.08088 11.4598 4.09499 11.7279 4.12321L11.7138 3.79865Z" fill="white"/>
<path id="Vector_11" d="M12.8567 3.96807C12.6451 3.93984 12.4334 3.91162 12.2358 3.8834C12.1371 3.86929 12.0524 3.85518 11.9536 3.84106V4.17974C12.0242 4.19385 12.1088 4.20796 12.1935 4.20796C12.4193 4.23618 12.6451 4.27852 12.8709 4.29263L12.8567 3.96807Z" fill="white"/>
<path id="Vector_12" d="M12.2075 4.97007C12.4333 4.99829 12.6591 5.04063 12.899 5.06885L12.8849 4.73018C12.6591 4.70195 12.4474 4.67373 12.2357 4.64551H12.2075V4.97007Z" fill="white"/>
<path id="Vector_13" d="M11.9538 4.60311C11.6151 4.56078 11.3046 4.51844 11.0083 4.53255L11.0224 4.85711C11.3046 4.843 11.6151 4.87123 11.9538 4.92767V4.60311Z" fill="white"/>
<path id="Vector_14" d="M9.92146 9.97964L10.3589 8.89307L10.7964 9.97964L11.9676 10.0643L11.0645 10.8122L11.3467 11.9411L10.3589 11.3202L9.37112 11.9411L9.65334 10.8122L8.75022 10.0643L9.92146 9.97964ZM7.28264 9.58452L9.15945 10.9533L8.43977 13.1829V13.197H8.45388L10.3448 11.8141L12.2357 13.197H12.2498C12.2498 13.197 12.2639 13.1829 12.2498 13.1829L11.5302 10.9674L13.407 9.59863C13.4211 9.59863 13.4211 9.58452 13.4211 9.58452C13.4211 9.57041 13.407 9.57041 13.407 9.57041H11.0927L10.373 7.35493C10.373 7.34552 10.3683 7.34082 10.3589 7.34082C10.3448 7.34082 10.3448 7.35493 10.3448 7.35493L9.62512 9.57041H7.29675C7.28734 9.57041 7.28264 9.57512 7.28264 9.58452Z" fill="white"/>
<path id="Vector_15" d="M15.0298 12.3925C14.8604 12.576 14.6346 12.7171 14.3947 12.7735C14.423 12.5195 14.5359 12.2938 14.7052 12.1103C14.8745 11.9269 15.1003 11.7857 15.3402 11.7293C15.312 11.9692 15.1991 12.195 15.0298 12.3925ZM14.1266 10.925C14.0984 10.6709 14.1407 10.4169 14.2536 10.1912C14.423 10.3746 14.5218 10.6145 14.5641 10.8685C14.5923 11.1225 14.55 11.3765 14.4371 11.5882C14.2677 11.4047 14.1549 11.1648 14.1266 10.925ZM14.6205 9.01992C14.5782 8.76592 14.6064 8.51191 14.7052 8.28613C14.8886 8.46958 15.0015 8.69536 15.0439 8.93525C15.0862 9.18926 15.058 9.44326 14.9592 9.66904C14.7899 9.4856 14.677 9.25982 14.6205 9.01992ZM15.8341 9.57026C15.8482 9.82427 15.7918 10.0783 15.6648 10.2899C15.5378 10.5016 15.3543 10.6851 15.1285 10.7838C15.1144 10.5298 15.1709 10.2899 15.2979 10.0642C15.4108 9.85249 15.6083 9.68316 15.8341 9.57026ZM13.9855 14.2976C13.788 14.4528 13.534 14.5233 13.2941 14.5375C13.3787 14.2976 13.534 14.1 13.7315 13.9448C13.9432 13.7896 14.1831 13.719 14.423 13.7049C14.3383 13.9448 14.1831 14.1565 13.9855 14.2976ZM13.3928 12.6889C13.407 12.4349 13.5057 12.195 13.661 11.9974C13.788 12.2091 13.8444 12.4631 13.8162 12.7171C13.8021 12.9711 13.7033 13.211 13.5481 13.4085C13.4352 13.1828 13.3787 12.9429 13.3928 12.6889ZM12.7437 14.3822C12.6732 14.6221 12.5321 14.8338 12.3345 15.0031C12.2639 14.7632 12.2498 14.5092 12.3204 14.2693C12.3909 14.0294 12.5321 13.8178 12.7296 13.6484C12.8002 13.8742 12.8143 14.1423 12.7437 14.3822ZM13.1247 15.4829C12.9977 15.6946 12.8002 15.8639 12.5744 15.9627C12.4192 16.0333 12.2498 16.0756 12.0664 16.0756C11.9958 16.0756 11.9112 16.0756 11.8406 16.0615C11.9676 15.8498 12.1652 15.6805 12.3909 15.5817C12.6167 15.4688 12.8707 15.4406 13.1247 15.4829ZM10.9516 15.5817C11.0786 15.3559 11.262 15.1725 11.4737 15.0596C11.5019 15.3136 11.4455 15.5535 11.3326 15.7793C11.2197 16.005 11.0363 16.1885 10.8105 16.3014C10.7822 16.0474 10.8246 15.7934 10.9516 15.5817ZM8.12931 15.9627C7.90353 15.8639 7.70597 15.6946 7.57897 15.4829C7.81887 15.4406 8.07287 15.4688 8.31276 15.5676C8.53854 15.6664 8.7361 15.8357 8.8631 16.0474C8.62321 16.1038 8.36921 16.0615 8.12931 15.9627ZM7.95998 14.3822C7.88942 14.1423 7.88942 13.8883 7.97409 13.6484C8.17165 13.8037 8.31276 14.0153 8.38332 14.2693C8.45388 14.5092 8.45388 14.7632 8.36921 15.0031C8.17165 14.8338 8.03054 14.6221 7.95998 14.3822ZM9.23 15.0596C9.45578 15.1725 9.63923 15.3559 9.75212 15.5817C9.86501 15.8075 9.92145 16.0615 9.89323 16.3014C9.66745 16.1885 9.484 16.005 9.37111 15.7793C9.24411 15.5535 9.20178 15.3136 9.23 15.0596ZM6.71818 14.2976C6.50651 14.1423 6.3654 13.9448 6.28073 13.7049C6.53473 13.7049 6.77463 13.7896 6.97218 13.9448C7.18385 14.0859 7.32497 14.2976 7.40964 14.5375C7.15563 14.5375 6.91574 14.4528 6.71818 14.2976ZM7.02863 11.9974C7.18386 12.195 7.28263 12.4349 7.29675 12.6889C7.31086 12.9429 7.25441 13.1969 7.14152 13.4085C6.9863 13.211 6.88752 12.9711 6.87341 12.7171C6.84518 12.4631 6.90163 12.2091 7.02863 11.9974ZM5.65983 12.3925C5.49049 12.2091 5.3776 11.9692 5.34938 11.7293C5.58927 11.7857 5.81505 11.9127 5.98439 12.1103C6.15373 12.2938 6.26662 12.5336 6.29484 12.7735C6.05495 12.703 5.82917 12.576 5.65983 12.3925ZM5.57516 10.798C5.34938 10.6851 5.16593 10.5157 5.03893 10.3041C4.91193 10.0783 4.85548 9.83838 4.86959 9.58438C5.09538 9.69727 5.27882 9.8666 5.40583 10.0783C5.53283 10.2899 5.58927 10.5439 5.57516 10.798ZM5.64572 8.93525C5.68805 8.68125 5.81505 8.45547 5.9985 8.28613C6.09728 8.51191 6.1255 8.76592 6.08317 9.01992C6.04084 9.27393 5.91383 9.49971 5.73039 9.66904C5.63161 9.44326 5.58927 9.18926 5.64572 8.93525ZM6.13962 10.8685C6.16784 10.6145 6.28073 10.3887 6.45006 10.1912C6.56296 10.4169 6.60529 10.6709 6.57707 10.925C6.54884 11.179 6.43595 11.4047 6.26662 11.6023C6.15373 11.3624 6.11139 11.1225 6.13962 10.8685ZM15.0298 11.179C15.4108 11.0661 15.7494 10.8121 15.947 10.4593C16.1446 10.1065 16.2151 9.69727 16.1163 9.30215L16.074 9.13281L15.9047 9.18926C15.7071 9.2457 15.5237 9.34448 15.3684 9.47149C15.4108 9.27393 15.4108 9.07637 15.3684 8.87881C15.2979 8.48369 15.0721 8.13091 14.7475 7.89102L14.6064 7.79224L14.5076 7.94746C14.296 8.28613 14.2113 8.69536 14.296 9.09048C14.3665 9.4856 14.5923 9.83838 14.9169 10.0783C14.8604 10.2194 14.8181 10.3605 14.7899 10.5016C14.6911 10.2335 14.5359 10.0077 14.3101 9.82427L14.169 9.71138L14.0702 9.85249C13.8303 10.1771 13.7315 10.5863 13.788 10.9814C13.8444 11.3765 14.042 11.7434 14.3524 11.9974H14.3665C14.2677 12.1244 14.1972 12.2514 14.1549 12.4066C14.1125 12.1244 13.9996 11.8704 13.8303 11.6446L13.7174 11.5035L13.5904 11.6305C13.2941 11.8986 13.1106 12.2796 13.0824 12.6748C13.0542 13.0699 13.1671 13.4791 13.4211 13.7896V13.8037C13.3082 13.9024 13.2094 14.0294 13.1247 14.1565C13.1388 13.8742 13.0824 13.592 12.9554 13.338L12.8707 13.1828L12.7155 13.2674C12.3627 13.4791 12.1087 13.8037 11.9958 14.1847C11.8829 14.5657 11.9253 14.989 12.0946 15.3418V15.3559C11.9535 15.4265 11.8406 15.5253 11.7277 15.6381C11.7983 15.37 11.8124 15.0737 11.7418 14.8056L11.6995 14.6362L11.5301 14.6927C11.1491 14.8197 10.8246 15.0878 10.6411 15.4406C10.4577 15.7793 10.4012 16.1744 10.5 16.5554C10.4436 16.5977 10.4012 16.6259 10.3448 16.6683C10.2883 16.6259 10.2319 16.5977 10.1896 16.5554C10.2742 16.1744 10.2319 15.7793 10.0485 15.4406C9.8509 15.0878 9.54045 14.8197 9.15944 14.6927L8.99011 14.6362L8.94777 14.8056C8.87722 15.0878 8.87722 15.37 8.96188 15.6381C8.8631 15.5253 8.7361 15.4265 8.59499 15.3559V15.3418C8.77844 14.9749 8.80666 14.5657 8.69377 14.1847C8.58088 13.8037 8.32687 13.465 7.97409 13.2674L7.81887 13.1828L7.7342 13.338C7.6072 13.592 7.55075 13.8742 7.56486 14.1565C7.48019 14.0294 7.38141 13.9024 7.26852 13.8037V13.7896C7.52253 13.4791 7.64953 13.0699 7.6072 12.6748C7.57897 12.2655 7.39553 11.8986 7.09919 11.6305L6.97218 11.5035L6.85929 11.6446C6.67585 11.8704 6.56296 12.1385 6.53473 12.4066C6.47829 12.2655 6.40773 12.1244 6.32306 11.9974H6.33717C6.64762 11.7434 6.84518 11.3765 6.90163 10.9814C6.95807 10.5863 6.85929 10.1771 6.6194 9.85249L6.52062 9.71138L6.37951 9.82427C6.15373 10.0077 5.9985 10.2476 5.89972 10.5016C5.88561 10.3605 5.84328 10.2194 5.77272 10.0783C6.09728 9.83838 6.32306 9.4856 6.39362 9.09048C6.46418 8.69536 6.39362 8.28613 6.18195 7.94746L6.08317 7.79224L5.94206 7.89102C5.6175 8.13091 5.39171 8.48369 5.32116 8.87881C5.27882 9.07637 5.27882 9.27393 5.32116 9.47149C5.16593 9.34448 4.98249 9.2457 4.78493 9.18926L4.61559 9.13281L4.57326 9.30215C4.48859 9.69727 4.54503 10.1065 4.74259 10.4593C4.94015 10.8121 5.26471 11.0661 5.65983 11.179L5.81505 11.2213C5.82917 11.3483 5.85739 11.4753 5.91383 11.5882C5.70216 11.4471 5.44816 11.3624 5.19416 11.3483L5.01071 11.3342V11.5176C5.01071 11.9269 5.15182 12.3079 5.41994 12.6042C5.68805 12.9005 6.05495 13.084 6.46418 13.1263L6.6194 13.1404C6.66174 13.2674 6.71818 13.3803 6.78874 13.4791C6.6194 13.4085 6.42184 13.3803 6.23839 13.3803C6.16784 13.3803 6.09728 13.3803 6.04084 13.3944L5.85739 13.4227L5.88561 13.592C5.97028 13.9871 6.18195 14.3399 6.50651 14.5798C6.77463 14.7773 7.09919 14.8761 7.43786 14.8761C7.50842 14.8761 7.56486 14.8761 7.63542 14.862L7.79064 14.8479C7.8612 14.9608 7.93176 15.0596 8.03054 15.1442C7.77653 15.1019 7.52253 15.1301 7.26852 15.2148L7.09919 15.2712L7.16974 15.4406C7.32497 15.8075 7.62131 16.1038 7.9882 16.2732C8.18576 16.3578 8.41154 16.4143 8.63732 16.4143C8.82077 16.4143 8.99011 16.386 9.15944 16.3296L9.28644 16.2873C9.49811 16.4566 9.7239 16.64 10.0485 16.8658C9.90734 16.9646 9.73801 17.0634 9.55456 17.1904L9.86501 17.3879C10.0485 17.2751 10.2037 17.1763 10.3448 17.0775C10.4859 17.1763 10.6411 17.2751 10.8246 17.3879L11.135 17.1904C10.9516 17.0775 10.7964 16.9646 10.6411 16.8658C10.9657 16.64 11.1915 16.4707 11.4031 16.2873L11.5301 16.3296C11.6995 16.386 11.8688 16.4143 12.0523 16.4143C12.278 16.4143 12.4897 16.3719 12.7014 16.2732C13.0683 16.1038 13.3646 15.8075 13.5198 15.4406L13.5904 15.2712L13.4211 15.2148C13.1812 15.1301 12.9131 15.1019 12.6591 15.1442C12.7437 15.0596 12.8284 14.9467 12.8989 14.8479L13.0542 14.862C13.1247 14.8761 13.1812 14.8761 13.2517 14.8761C13.5904 14.8761 13.915 14.7773 14.1831 14.5798C14.5076 14.3399 14.7334 13.9871 14.804 13.592L14.8322 13.4227L14.6488 13.3944C14.5782 13.3803 14.5076 13.3803 14.4512 13.3803C14.2536 13.3803 14.0702 13.4085 13.9009 13.4791C13.9714 13.3662 14.0279 13.2533 14.0702 13.1404L14.2254 13.1263C14.6346 13.0981 15.0015 12.9147 15.2697 12.6042C15.5378 12.3079 15.6789 11.9127 15.6789 11.5176V11.3342L15.4954 11.3483C15.2414 11.3624 14.9874 11.4471 14.7758 11.5882C14.8181 11.4612 14.8463 11.3483 14.8745 11.2213L15.0298 11.179Z" fill="white"/>
<path id="Vector_16" d="M15.0724 14.6927C14.7337 15.1866 14.3386 15.6523 13.873 16.1038C12.4336 17.4303 10.8108 18.1641 10.3451 18.3475C9.89356 18.1641 8.27076 17.4303 6.81729 16.1038C6.35161 15.6523 5.9565 15.2007 5.61782 14.6927C3.98091 12.2938 3.76924 9.51382 3.75513 7.34068L10.331 6.97378L16.9069 7.34068C16.9351 9.51382 16.7093 12.2938 15.0724 14.6927ZM4.13613 1.7667C5.36382 1.62559 8.10142 1.35747 10.3592 1.35747C12.617 1.35747 15.3546 1.62559 16.5823 1.7667L16.921 6.57867H3.79746L4.13613 1.7667ZM17.5984 1.20225L17.302 1.15991C17.2597 1.15991 13.3791 0.666016 10.3592 0.666016C7.33941 0.666016 3.45879 1.1458 3.41646 1.15991L3.12012 1.20225V6.57867V7.32657C3.12012 9.58438 3.3459 12.5195 5.0957 15.0737C5.4626 15.5958 5.87183 16.0897 6.35161 16.5554L6.36573 16.5695C7.31119 17.4867 8.56709 18.3475 10.3592 19.3353C12.1514 18.3334 13.4073 17.4726 14.3527 16.5695L14.3669 16.5554C14.8608 16.0756 15.27 15.5958 15.6228 15.0737C17.3726 12.5195 17.5984 9.58438 17.5984 7.32657V7.21368V1.20225Z" fill="white"/>
</g>
</svg>
