<svg width="24" height="24" viewBox="0 0 24 24" fill="none" xmlns="http://www.w3.org/2000/svg">
<g id="Frame">
<path id="Vector" fill-rule="evenodd" clip-rule="evenodd" d="M12 21C16.9706 21 21 16.9706 21 12C21 7.02945 16.9706 3 12 3C7.02945 3 3 7.02945 3 12C3 16.9706 7.02945 21 12 21ZM12 22C17.5229 22 22 17.5229 22 12C22 6.47715 17.5229 2 12 2C6.47715 2 2 6.47715 2 12C2 17.5229 6.47715 22 12 22Z" fill="#ABBF63"/>
<path id="Vector_2" fill-rule="evenodd" clip-rule="evenodd" d="M17.3355 8.12925C17.5403 8.3145 17.5561 8.6307 17.3708 8.83545L10.6929 16.2162L6.65476 12.3617C6.45501 12.171 6.44766 11.8545 6.63831 11.6547C6.82901 11.455 7.14551 11.4476 7.34526 11.6383L10.6405 14.7837L16.6293 8.16455C16.8145 7.9598 17.1307 7.94395 17.3355 8.12925Z" fill="#ABBF63"/>
</g>
</svg>
