<svg width="32" height="32" viewBox="0 0 32 32" fill="none" xmlns="http://www.w3.org/2000/svg">
<g id="ui_zoom">
<path id="Vector" fill-rule="evenodd" clip-rule="evenodd" d="M11.8047 21.1381L9.47136 23.4714L8.52856 22.5286L10.8619 20.1953L11.8047 21.1381Z" fill="#252A31"/>
<path id="Vector_2" fill-rule="evenodd" clip-rule="evenodd" d="M3.05713 26.1145L7.40634 21.7654L9.4856 21.8583L10.1968 22.5695L10.2 24.6285L5.88556 28.943L3.05713 26.1145ZM4.94275 26.1145L5.88556 27.0573L8.8658 24.0771L8.8644 23.1652L7.93367 23.1236L4.94275 26.1145Z" fill="#252A31"/>
<path id="Vector_3" fill-rule="evenodd" clip-rule="evenodd" d="M18 22.6667C22.7865 22.6667 26.6667 18.7865 26.6667 14C26.6667 9.21353 22.7865 5.33333 18 5.33333C13.2135 5.33333 9.33333 9.21353 9.33333 14C9.33333 18.7865 13.2135 22.6667 18 22.6667ZM18 24C23.5229 24 28 19.5229 28 14C28 8.47713 23.5229 4 18 4C12.4771 4 8 8.47713 8 14C8 19.5229 12.4771 24 18 24Z" fill="#252A31"/>
</g>
</svg>
