<svg preserveAspectRatio="none" overflow="visible" style="display: block;" width="32" height="32" viewBox="0 0 32 32" fill="none" xmlns="http://www.w3.org/2000/svg">
<g id="exclamation 1">
<path id="Vector" d="M15.9759 1.95359C8.25098 1.95359 1.96667 8.2379 1.96667 15.9629C1.96667 23.6881 8.25098 29.9724 15.9759 29.9724C23.7012 29.9724 29.9855 23.6881 29.9855 15.9629C29.9855 8.2379 23.7012 1.95359 15.9759 1.95359ZM15.9758 28.7332C8.93442 28.7332 3.20592 23.0036 3.20592 15.9629C3.20592 8.92138 8.93442 3.19281 15.9758 3.19281C23.0166 3.19281 28.7461 8.92141 28.7463 15.9629C28.7463 23.0036 23.0166 28.7332 15.9758 28.7332ZM15.9734 18.4313C16.6552 18.4313 17.2109 17.8782 17.2109 17.1938L17.2192 9.65889C17.2192 8.97711 16.6659 8.42408 15.9816 8.42408C15.2971 8.42408 14.7439 8.97711 14.7439 9.65889L14.7768 17.1938C14.7769 17.8782 15.2916 18.4313 15.9734 18.4313ZM15.9789 20.805C15.245 20.805 14.6509 21.3992 14.6509 22.1329L14.6454 22.174C14.6454 22.9077 15.2396 23.5019 15.9734 23.5019C16.7071 23.5019 17.3013 22.9077 17.3013 22.174L17.3068 22.1329C17.3068 21.3992 16.7126 20.805 15.9789 20.805Z" fill="#272636"/>
</g>
</svg>
